<?xml version="1.0" encoding="utf-8"?>
<!-- Generator: Adobe Illustrator 21.0.2, SVG Export Plug-In . SVG Version: 6.00 Build 0)  -->
<svg version="1.1" id="Layer_1" xmlns="http://www.w3.org/2000/svg" xmlns:xlink="http://www.w3.org/1999/xlink" x="0px" y="0px"
	 viewBox="0 0 140 27.5" style="enable-background:new 0 0 140 27.5;" xml:space="preserve">
<style type="text/css">
	.st0{fill:#FFFFFF;}
</style>
<g>
	<g>
		<path class="st0" d="M11.1,5.9c-1.4,0-2.5,0.6-3.9,1.4c0,0-0.1,0.1-0.1-0.1V6.1C7.1,5.9,6.9,6,6.9,6L0.2,7.7c0,0-0.2,0-0.2,0.2
			v1.5c0,0.2,0.2,0.2,0.2,0.2L1,9.5c0,0,0.2-0.1,0.2,0.1c0,0.2,0,15,0,15s0,0.2-0.2,0.2s-0.8,0-0.8,0S0,24.7,0,24.9v1.5
			c0,0.2,0.3,0.2,0.3,0.2H9c0,0,0.2-0.1,0.2-0.2v-1.5c0-0.2-0.2-0.2-0.2-0.2s-1.5,0-1.7,0s-0.2-0.2-0.2-0.2s0-2.6,0-2.8
			c0-0.1,0.1-0.1,0.1-0.1c0.9,0.5,2.1,0.6,3.1,0.6c4.8,0,7.5-4.4,7.5-8.8C17.8,9,14.8,5.9,11.1,5.9z M9.1,19.9c-1.5,0-2-1.1-2-2.5
			c0,0,0-7.5,0-7.7c0-0.2,0.2-0.3,0.2-0.3l0.8-0.1c1,0,3.8,0.3,3.8,5.9C11.8,18.7,11,19.9,9.1,19.9z M137.9,4.3c1.1,0,2.1-1,2.1-2.2
			c0-1.1-1-2.1-2.1-2.1s-2.1,1-2.1,2.1C135.8,3.4,136.8,4.3,137.9,4.3z M137.9,0.3c1,0,1.8,0.9,1.8,1.8c0,1-0.8,1.9-1.8,1.9
			S136,3.1,136,2.1C136,1.2,136.9,0.3,137.9,0.3z M118,5.9c1.6,0,4.2-0.8,4.2-2.7c0-1.6-1.5-2-2.9-2s-3.5,1.1-3.5,2.7
			C115.8,5.3,116.6,5.9,118,5.9z M137.4,2.2h0.5l0.7,1.1h0.4l-0.8-1.1c0.5,0,0.8-0.2,0.8-0.6c0-0.2-0.1-0.5-0.3-0.6
			c-0.1-0.1-0.4-0.1-0.6-0.1h-1v2.4h0.3L137.4,2.2L137.4,2.2z M137.4,1.2h0.7c0.3,0,0.6,0.1,0.6,0.5c0,0.5-0.5,0.4-0.9,0.4h-0.4
			L137.4,1.2L137.4,1.2z M43.5,18.9c0-0.2-0.2,0-0.2,0c-0.4,0.2-0.5,0.2-1,0.2S41,18.9,41,17.9V9c0,0,0-0.1,0.2-0.1s2.1,0,2.1,0
			s0.1,0,0.2-0.2c0-0.2,0.4-2.1,0.4-2.1s0.1-0.2-0.1-0.2c-0.1,0-2.6,0-2.6,0S41,6.5,41,6.3s0-1.1,0-1.1c0-0.7,0.1-1.5,0.2-2.3
			c0,0,0.1-0.1-0.1-0.2c-0.2,0-1.4-0.3-1.6-0.3c-0.2,0-0.2,0.1-0.2,0.1c-1,2.3-3.1,3.9-5.6,4.6c0,0-0.1,0.1-0.1,0.2v1.4
			c0,0.2,0.1,0.2,0.1,0.2s1,0,1.3,0c0.2,0,0.2,0.1,0.2,0.1v9.2c0,2.7,1,4.1,4,4.1c2.7,0,2.9-0.1,4.9-1.5c0,0,0.2-0.1,0.1-0.2
			C44.1,20.3,43.6,19.1,43.5,18.9z M113.6,19.9c0,0-0.8,0-0.9,0c-0.2,0-0.1-0.1-0.1-0.1v-9.4c0-1.7-0.6-4.5-4.7-4.5
			c-2.2,0-3.8,1.2-5.4,2.5c0,0-0.1,0.2-0.1-0.1V6.1c0-0.2-0.2-0.1-0.2-0.1l-6.8,1.8c0,0-0.1-0.1-0.1,0.1v1.6c0,0.2,0.1,0.1,0.1,0.1
			s0.6-0.2,0.9-0.3c0.2,0,0.1,0.2,0.1,0.2v10.3c0,0,0.1,0.1-0.1,0.1c-0.1,0-0.9,0-0.9,0s-0.1,0-0.1,0.2v1.5c0,0.3,0.1,0.2,0.1,0.2h8
			c0,0,0.1,0,0.1-0.1v-1.6c0-0.2-0.1-0.2-0.1-0.2s-0.9,0-1,0s-0.1-0.1-0.1-0.1s0-8.5,0-8.7c0-0.1,0.1-0.2,0.1-0.2
			c0.8-0.7,1.5-1.1,2.6-1.1c0.9,0,1.7,0.4,1.7,1.3v8.7c0,0,0,0.1-0.1,0.1c-0.2,0-1,0-1,0s-0.2,0-0.2,0.2v1.6c0,0.1,0.1,0.1,0.1,0.1
			h8c0,0,0.1,0.1,0.1-0.2v-1.5C113.7,19.9,113.6,19.9,113.6,19.9z M122.9,20.1c0-0.2-0.2-0.2-0.2-0.2s-0.5,0-0.8,0
			c-0.2,0-0.1-0.1-0.1-0.1s0-13.5,0-13.6c0-0.2-0.2-0.1-0.2-0.1l-6.8,1.8c0,0-0.1,0-0.1,0.2v1.5c0,0.2,0.2,0.1,0.2,0.1
			s0.5-0.1,0.9-0.2c0.2,0,0.1,0.2,0.1,0.3c0,0.2,0,10,0,10s0.1,0.1-0.1,0.1s-1,0-1,0s-0.2,0-0.2,0.2v1.6c0,0.2,0.2,0.1,0.2,0.1
			s7.6,0,7.9,0c0.2,0,0.1-0.2,0.1-0.2S122.9,20.3,122.9,20.1z M34.1,19.9h-0.8c-0.1,0-0.1-0.3-0.1-0.3v-8.4c0-3.7-2.4-5.2-6-5.2
			c-1.2,0-2.5,0.2-3.7,0.7c0,0-0.2,0.2-0.1-0.2c0.1-0.2,0.2-0.4,0.2-0.4s0.1-0.2-0.1-0.3c-0.3,0-1.4-0.4-1.7-0.5
			c-0.1-0.1-0.1,0.1-0.1,0.1s-1.9,4.6-2,4.8c-0.1,0.2,0.1,0.2,0.1,0.2s1.5,0.6,1.7,0.7c0.2,0,0.2-0.1,0.2-0.1c0.9-1,1.7-1.7,3.5-1.7
			c1.4,0,2.1,0.6,2.1,1.8c0,0,0,0.4,0,0.5c0,0.2,0,0.2,0,0.2l-4.4,0c-2.9,0-5.2,2-5.2,5.6c0,3,2.2,4.8,5.1,4.8
			c1.7,0,3.1-0.8,4.4-1.7c0,0,0.2-0.4,0.3,0c0,0.3,0.2,0.7,0.3,1c0,0.2,0.1,0.2,0.1,0.2s5.1,0,6.1,0c0,0,0.3,0.1,0.3-0.2
			c0-0.2,0-1.5,0-1.5S34.3,19.9,34.1,19.9z M27.3,13.8v2.9c0,1.1-0.3,2.3-1.7,2.3c-1.6,0-2-1.4-2-2.7c0-1.5,1.2-2.7,2.8-2.7
			c0,0,0.7,0,0.9,0S27.3,13.8,27.3,13.8z M139.3,19.9h-0.8c-0.1,0-0.1-0.3-0.1-0.3v-8.4c0-3.7-2.4-5.2-6-5.2c-1.2,0-2.5,0.2-3.7,0.7
			c0,0-0.3,0.2-0.1-0.2c0.1-0.2,0.2-0.4,0.2-0.4s0-0.2-0.2-0.3c-0.2,0-1.4-0.4-1.6-0.5c-0.2-0.1-0.2,0.1-0.2,0.1s-1.8,4.6-1.9,4.8
			c-0.1,0.2,0.1,0.2,0.1,0.2s1.5,0.6,1.7,0.6c0.1,0.1,0.2,0,0.2,0c0.9-1,1.7-1.7,3.5-1.7c1.4,0,2.1,0.6,2.1,1.8c0,0,0,0.4,0,0.5
			c0,0.2-0.1,0.2-0.1,0.2l-4.3,0.1c-2.9,0-5.2,2.1-5.2,5.7c0,3,2.2,4.8,5.2,4.8c1.7,0,3.1-0.8,4.4-1.7c0,0,0.2-0.4,0.3,0
			c0,0.3,0.1,0.7,0.2,1c0.1,0.2,0.2,0.2,0.2,0.2s5,0,6.1,0c0,0,0.3,0.1,0.3-0.2c0-0.2,0-1.5,0-1.5S139.5,19.9,139.3,19.9z
			 M132.6,16.7c0,1.1-0.3,2.3-1.8,2.3s-1.9-1.4-1.9-2.7c0-1.5,1.1-2.7,2.8-2.7c0,0,0.6,0,0.8,0s0.2,0.2,0.2,0.2v2.9H132.6z
			 M60.6,19.9h-0.7c-0.2,0-0.1-0.3-0.1-0.3v-8.4c0-3.7-2.4-5.2-6-5.2c-1.2,0-2.5,0.2-3.7,0.7c0,0-0.3,0.2-0.1-0.2
			c0.1-0.2,0.1-0.4,0.1-0.4s0.1-0.3-0.1-0.4c-0.2,0-1.4-0.4-1.6-0.5c-0.2-0.1-0.2,0.1-0.2,0.1s-1.8,4.6-1.9,4.8
			c-0.1,0.2,0,0.2,0,0.2s1.6,0.6,1.8,0.6c0.1,0.1,0.2,0,0.2,0c0.9-1,1.7-1.7,3.5-1.7c1.4,0,2.1,0.6,2.1,1.8c0,0,0,0.4,0,0.5
			c0,0.2-0.1,0.2-0.1,0.2l-4.3,0.1c-2.9,0-5.2,2.1-5.2,5.7c0,3,2.2,4.8,5.2,4.8c1.7,0,3.1-0.8,4.4-1.7c0,0,0.2-0.4,0.3,0
			c0,0.3,0.1,0.7,0.2,1c0.1,0.2,0.2,0.2,0.2,0.2s5,0,6.1,0c0,0,0.3,0.1,0.3-0.2c0-0.2,0-1.5,0-1.5S60.9,19.9,60.6,19.9z M53.9,16.7
			c0,1.1-0.3,2.3-1.8,2.3s-1.9-1.4-1.9-2.7c0-1.5,1.1-2.7,2.8-2.7c0,0,0.6,0,0.8,0s0.2,0.2,0.2,0.2L53.9,16.7L53.9,16.7z M76.5,12.1
			c0-3.6-3.1-4.6-3.1-5.2c0-0.4,0.2-0.7,0.6-0.7c0.7-0.1,0.8,0,1,0.2c0,0,0.1,0.2,0.2-0.1c0-0.1,0.6-2.4,0.7-2.5
			c0-0.3-0.2-0.2-0.2-0.2c-0.3-0.1-0.7-0.1-1-0.1C73,3.5,72.4,4,72,5.1c0,0-0.3,0.8-0.3,1c-0.1,0.2-0.2,0.1-0.2,0.1
			c-0.9-0.1-1.8-0.4-3.4-0.4c-3.5,0-7.3,2-7.3,6.5c0,3.1,2.7,5,5.3,5.4c0,0,0.5,0.1,0,0.2c-0.8,0.3-2.5,1.2-4.4,1.5
			c0,0-0.2,0.1-0.1,0.3c0.1,0.1,0.6,1.4,0.7,1.6s0.3,0.2,0.3,0.2c0.9-0.2,3.4,0,3.9,0.1c0.4,0,0,0.1,0,0.1c-1.3,0.2-3,1.2-3,2.7
			c0,2,1.9,2.8,4,3.1h3c2.2-0.3,5.4-1.4,5.4-4.2c0-3.3-5.3-4-7.9-4.3c-0.4,0,0-0.1,0-0.1C72.1,18,76.5,17,76.5,12.1z M68.7,22.5
			c0.1-0.1,0.2-0.1,0.2-0.1c1,0.7,1.9,1.1,1.9,2.6c0,0.8-0.5,1.1-1.2,1.1c-1,0-1.3-0.9-1.3-1.6C68.2,23.9,68.4,22.8,68.7,22.5z
			 M66.2,10c0-1.5,0.5-2.1,1.6-2.1c2.4,0,3.4,4.7,3.4,6.4c0,1.5-0.5,2.1-1.7,2.1C67.2,16.4,66.2,11.7,66.2,10z M86.3,5.9
			c-5.2,0-9.1,3.1-9.1,8.1c0,5.2,3.9,8.2,9.1,8.2s9.2-3.1,9.2-8.2C95.4,9.1,91.4,5.9,86.3,5.9z M87.3,19.9c-3.2,0-4.2-5.7-4.2-8
			c0-1.1,0-3.5,2.1-3.5c3.3,0,4.3,5.7,4.3,8C89.5,18,89,19.9,87.3,19.9z"/>
	</g>
</g>
</svg>
