<?xml version="1.0" standalone="no"?>
<!DOCTYPE svg PUBLIC "-//W3C//DTD SVG 20010904//EN"
 "http://www.w3.org/TR/2001/REC-SVG-20010904/DTD/svg10.dtd">
<svg version="1.0" xmlns="http://www.w3.org/2000/svg"
 width="16.000000pt" height="16.000000pt" viewBox="0 0 16.000000 16.000000"
 preserveAspectRatio="xMidYMid meet">
<metadata>
Created by potrace 1.11, written by Peter Selinger 2001-2013
</metadata>
<g transform="translate(0.000000,16.000000) scale(0.006154,-0.006154)"
fill="#000000" stroke="none">
<path d="M730 2580 c-20 -20 -20 -33 -20 -1280 0 -1247 0 -1260 20 -1280 20
-20 33 -20 570 -20 537 0 550 0 570 20 20 20 20 33 20 1280 0 1247 0 1260 -20
1280 -20 20 -33 20 -570 20 -537 0 -550 0 -570 -20z m1080 -1280 l0 -1220
-510 0 -510 0 0 1220 0 1220 510 0 510 0 0 -1220z"/>
<path d="M1184 2081 l7 -318 -81 -5 c-116 -7 -112 0 -105 -231 5 -143 3 -192
-6 -204 -8 -9 -9 -17 -3 -21 7 -5 6 -160 -2 -452 -16 -569 -17 -730 -4 -730 6
0 10 28 10 64 0 70 6 76 77 76 28 0 37 -7 73 -59 22 -33 40 -65 40 -70 0 -7
48 -11 140 -11 l140 0 0 43 c0 23 -16 292 -35 597 -27 429 -32 556 -22 562 9
6 9 10 -1 20 -8 8 -12 64 -13 193 -2 149 -3 168 -10 110 -5 -38 -8 -119 -7
-180 1 -60 -2 -116 -6 -124 -7 -10 -27 -12 -82 -9 -41 3 -74 1 -74 -4 0 -14
-48 -9 -65 8 -12 12 -29 15 -70 12 l-55 -5 0 87 c0 48 -3 127 -6 176 -3 49 -2
94 3 100 4 6 43 14 86 18 l77 7 1 -68 c0 -37 4 -77 8 -88 l8 -20 6 20 c9 31 9
165 -1 505 -6 173 -11 316 -11 318 -1 1 -6 2 -13 2 -8 0 -9 -80 -4 -319z m199
-848 c3 -42 4 -81 1 -85 -3 -4 -29 -8 -57 -8 l-52 0 -21 80 -20 79 25 4 c14 2
47 5 72 6 l46 1 6 -77z m-193 50 c0 -10 -8 -47 -18 -83 l-19 -65 -68 -3 -68
-3 7 32 c3 17 6 56 6 85 l0 54 80 0 c70 0 80 -2 80 -17z m14 -105 c6 -31 4
-38 -9 -38 -17 0 -18 4 -9 49 8 38 9 37 18 -11z m45 -20 c1 -10 -3 -18 -9 -18
-5 0 -10 17 -9 38 0 30 2 33 9 17 5 -11 9 -28 9 -37z m145 -108 c4 -38 4 -74
1 -80 -3 -5 -21 -10 -39 -10 -32 0 -33 1 -53 73 -11 39 -18 75 -16 80 2 4 26
7 52 7 l48 0 7 -70z m-254 45 c0 -9 -7 -45 -16 -80 l-16 -65 -44 0 -44 0 0 73
c0 41 3 77 7 80 3 4 30 7 60 7 41 0 53 -3 53 -15z m68 -62 l-3 -78 -37 -3
c-21 -2 -38 0 -38 3 0 8 28 123 35 143 2 6 14 12 25 12 20 0 21 -5 18 -77z
m71 25 c6 -29 14 -63 17 -75 6 -21 3 -23 -30 -23 l-36 0 0 75 c0 66 2 75 18
75 14 0 22 -12 31 -52z m41 -160 c6 -24 15 -57 20 -75 4 -17 5 -34 2 -37 -3
-3 -27 -6 -54 -6 l-48 0 0 74 c0 79 -1 78 57 85 7 0 17 -18 23 -41z m84 -10
c10 -90 9 -100 -16 -96 -22 3 -33 27 -52 116 -7 31 -7 32 27 32 34 0 34 -1 41
-52z m-304 35 c0 -5 -9 -39 -18 -78 -16 -63 -21 -70 -43 -70 -13 0 -24 6 -23
13 1 6 2 39 3 71 1 53 3 60 24 64 38 7 57 7 57 0z m110 -67 l0 -74 -60 -4
c-69 -3 -67 -6 -44 87 l16 65 44 0 44 0 0 -74z m5 -171 l0 -70 -88 -3 -88 -3
7 26 c28 111 27 109 85 116 87 10 84 12 84 -66z m159 10 c9 -35 16 -67 16 -70
0 -3 -34 -5 -75 -5 l-75 0 0 70 0 70 59 0 59 0 16 -65z m40 28 c16 -98 -1
-121 -23 -31 -14 60 -14 68 3 68 8 0 16 -15 20 -37z m-364 11 c0 -25 -22 -108
-31 -118 -5 -6 -9 18 -9 55 0 36 3 69 7 72 12 13 33 7 33 -9z m364 -192 c26
-95 29 -92 -73 -92 l-88 0 -7 31 c-3 17 -6 49 -6 70 0 36 1 38 38 42 20 2 56
4 78 5 l41 2 17 -58z m-194 -21 c0 -81 1 -81 -127 -81 l-83 0 0 28 c0 38 20
106 34 114 6 4 48 8 94 8 l82 0 0 -69z m190 -101 c0 -6 -14 -37 -30 -70 l-30
-60 -50 0 -50 0 0 64 c0 59 2 65 23 69 46 9 137 7 137 -3z m-188 -62 c3 -35 4
-64 3 -66 -1 -1 -25 -5 -53 -9 l-51 -6 -36 57 c-58 90 -60 86 43 86 l90 0 4
-62z m-169 -6 c20 -32 37 -62 37 -65 0 -4 -20 -7 -45 -7 l-45 0 0 65 c0 36 3
65 8 65 4 0 24 -26 45 -58z m385 -15 c-3 -39 -5 -42 -35 -45 -18 -2 -33 -1
-33 2 0 3 12 30 27 61 31 62 46 56 41 -18z m-108 -72 c0 -13 -65 -135 -72
-135 -4 0 -8 29 -8 64 0 59 2 65 23 69 34 7 57 7 57 2z m114 -26 c3 -17 6 -49
6 -70 l0 -39 -80 0 c-44 0 -80 2 -80 5 0 2 14 34 32 70 32 64 33 65 74 65 38
0 42 -2 48 -31z m-214 -44 c0 -36 -3 -65 -8 -65 -6 0 -68 94 -80 122 -2 5 17
8 42 8 l46 0 0 -65z"/>
<path d="M1317 1218 c-52 -26 -47 -52 11 -56 42 -3 42 -3 42 32 0 19 -3 37 -7
39 -5 3 -25 -4 -46 -15z"/>
<path d="M1310 1088 c1 -41 13 -58 42 -58 27 0 30 3 24 23 -3 12 -6 28 -6 35
0 7 -13 12 -30 12 -17 0 -30 -5 -30 -12z"/>
<path d="M1330 995 c0 -9 9 -15 25 -15 16 0 25 6 25 15 0 9 -9 15 -25 15 -16
0 -25 -6 -25 -15z"/>
<path d="M1040 1060 c0 -27 3 -30 34 -30 33 0 46 13 46 46 0 10 -12 14 -40 14
-38 0 -40 -2 -40 -30z"/>
<path d="M1040 985 c0 -14 3 -25 8 -25 26 1 51 15 55 31 4 16 0 19 -29 19 -30
0 -34 -3 -34 -25z"/>
<path d="M1176 1067 c-5 -15 -6 -31 -2 -34 11 -11 18 5 14 34 l-4 28 -8 -28z"/>
<path d="M1157 1003 c-14 -13 -6 -33 13 -33 13 0 20 7 20 20 0 19 -20 27 -33
13z"/>
<path d="M1250 1050 c0 -11 4 -20 9 -20 5 0 7 9 4 20 -3 11 -7 20 -9 20 -2 0
-4 -9 -4 -20z"/>
<path d="M1250 990 c0 -11 7 -20 15 -20 8 0 15 9 15 20 0 11 -7 20 -15 20 -8
0 -15 -9 -15 -20z"/>
<path d="M1250 860 l0 -60 41 0 c34 0 40 3 35 18 -3 9 -10 36 -16 60 -9 35
-15 42 -35 42 -24 0 -25 -3 -25 -60z"/>
<path d="M1350 914 c0 -13 32 -114 36 -114 2 0 4 27 4 60 0 53 -2 60 -20 60
-11 0 -20 -3 -20 -6z"/>
<path d="M1030 849 c0 -74 18 -76 37 -3 17 65 17 64 -12 64 -24 0 -25 -3 -25
-61z"/>
<path d="M1117 850 l-15 -60 49 0 49 0 0 60 0 60 -34 0 c-33 0 -34 -1 -49 -60z"/>
<path d="M1080 698 c-6 -24 -13 -50 -16 -58 -3 -13 8 -14 66 -12 l70 4 0 54 0
54 -55 0 -54 0 -11 -42z"/>
<path d="M1293 743 c-33 -4 -33 -5 -33 -60 l0 -55 53 7 c28 4 53 9 55 10 6 6
-25 99 -34 100 -5 1 -24 0 -41 -2z"/>
<path d="M1260 521 l0 -58 73 5 c39 2 74 6 76 8 2 1 -2 26 -9 53 l-12 51 -64
0 -64 0 0 -59z"/>
<path d="M1045 558 c-15 -47 -23 -93 -17 -98 4 -3 47 -4 95 -2 86 3 89 4 83
25 -3 12 -6 37 -6 55 l0 32 -75 0 c-52 0 -77 -4 -80 -12z"/>
<path d="M1260 361 c0 -28 3 -52 8 -54 4 -3 22 -2 40 0 27 5 37 14 58 54 l24
49 -65 0 -65 0 0 -49z"/>
<path d="M1123 403 l-63 -4 33 -49 c30 -47 35 -50 75 -50 l43 0 -3 52 c-2 28
-7 52 -13 53 -5 0 -38 -1 -72 -2z"/>
<path d="M1020 327 c0 -31 3 -38 17 -35 24 4 25 20 3 48 l-20 25 0 -38z"/>
<path d="M1407 336 c-4 -10 -5 -21 -2 -24 9 -9 17 6 13 25 -3 17 -4 17 -11 -1z"/>
<path d="M1270 213 c0 -41 1 -41 24 5 16 31 16 32 -4 32 -16 0 -20 -7 -20 -37z"/>
<path d="M1337 194 c-22 -44 -25 -55 -12 -50 9 3 37 6 61 6 l44 0 0 50 c0 50
0 50 -33 50 -30 0 -35 -5 -60 -56z"/>
<path d="M1181 241 c-11 -7 -10 -13 4 -35 10 -14 19 -26 21 -26 2 0 4 16 4 35
0 36 -5 41 -29 26z"/>
<path d="M1392 2188 c-6 -6 -12 -20 -12 -29 0 -26 -33 -78 -53 -85 -26 -8 -35
-33 -47 -128 -6 -47 -14 -96 -19 -109 -5 -12 -12 -70 -16 -128 -6 -82 -16
-131 -45 -219 -38 -116 -40 -144 -13 -154 18 -7 36 12 64 69 l19 40 -5 -47
c-2 -26 -1 -49 3 -52 12 -7 102 6 102 15 0 5 -9 9 -20 9 -24 0 -24 -7 -1 132
10 62 22 144 26 182 4 38 13 90 21 115 8 25 14 87 14 138 0 98 5 123 24 123 7
0 19 11 26 25 8 14 22 25 34 25 19 1 19 2 5 13 -9 7 -22 26 -30 42 -15 33 -55
45 -77 23z"/>
<path d="M1725 1361 c-16 -4 -57 -25 -90 -47 -53 -35 -66 -39 -115 -37 -100 4
-99 5 -94 -84 3 -43 7 -97 10 -120 l5 -43 165 0 164 0 0 170 c0 94 -3 170 -7
169 -5 -1 -21 -4 -38 -8z"/>
<path d="M940 1089 c-19 -4 -52 -5 -72 -2 -37 5 -38 5 -38 -26 l0 -31 75 0 75
0 0 35 c0 19 -1 35 -2 34 -2 -1 -19 -5 -38 -10z"/>
<path d="M822 563 l3 -448 66 -3 66 -3 6 193 c4 106 10 309 13 451 l7 257 -82
0 -81 0 2 -447z"/>
<path d="M1440 972 c0 -21 11 -218 25 -438 14 -219 25 -405 25 -412 0 -10 32
-12 143 -10 l142 3 0 445 0 445 -167 3 -168 2 0 -38z"/>
<path d="M1016 209 c-3 -17 -6 -42 -6 -55 0 -26 18 -29 112 -16 l48 7 -31 48
c-29 44 -34 47 -74 47 -40 0 -43 -2 -49 -31z"/>
</g>
</svg>
