<svg xmlns="http://www.w3.org/2000/svg" viewBox="0 0 240 120" enable-background="new 0 0 240 120"><style type="text/css">.st0{fill:#FFFFFF;}</style><path d="M11.9 43.3c.9-.2 1.3-.3 2.2-.6.4-.1.9-.3 1.7-.6.4-.1.5-.2.9-.3.5-.2.8-.1.9.3 0 .1 0 .3-.1.4-.1.1-.2.2-.3.3-.1.3-.2.4-.3.6-.2.3-.2.4-.2.6-.1 1.1 0 2.5.4 3.9.3.9.5 1.8.9 2.7.1.5.2.8.3 1.3.1.4.2.5.3.9.1.5.2.7.3 1.2.1.3.1.4.2.7 0 .1.1.3.1.8 0 .1 0 .3.1.6.1.2.2.5.3.8.1.4.2.7.3.8.1.3.2.5.3.8 0 .1.1.4.1.9 0 .1 0 .1.1.2.3 1 .9 1.3 1.9 1 .2-.1.6-.2 1.1-.4.4-.1.8-.2 1.3-.4.1 0 .2-.1.3-.1.3-.1.5-.1.8-.2.2 0 .4-.4.7-1 .4-.8.6-1.3.7-1.5.2-.9.4-1.4.6-1.5.2-.1.4.1.4.4.1.5.1.8.2 1.3.1.4.2.6.4 1 0 .1.1.2.1.4.1.2.1.3.2.5.1.5 0 .9-.2 1.1-.2.1-.6.2-1.2.4-.3.1-.5.1-.8.2-.8.2-1.3.3-2.1.5 0 0-.1 0-.1 0s-.1.1-.3.1c-.1 0-.2.1-.3.1-.1 0-.2 0-.3.1-.3.1-.6.2-.8.3-.5.1-1 .3-1.7.3-.3 0-.5.1-.7.1-.3.1-.9.3-1.8.6 0 0-.1 0-.2.1-.1 0-.2.1-.5.2-.2.1-.4.2-.6.3-.1 0-.1.1-.2.1-.5.1-.8.1-.9-.2-.1-.2 0-.5.1-.7.1-.2.3-.4.5-.7.4-.6.5-1.4.3-2.2-.1-.4-.2-1.3-.6-2.7-.2-.5-.2-.8-.4-1.3 0-.1-.1-.3-.1-.4 0-.2-.1-.3-.1-.4 0-.1-.1-.3-.1-.4 0-.1-.1-.2-.1-.3 0 0 0-.1 0-.1-.1-.5-.3-1.1-.4-1.9 0 0 0-.2-.1-.3 0 0 0 0-.1-.1 0-.1 0-.2-.1-.3 0-.1-.1-.2-.1-.4 0-.1-.1-.3-.2-.4-.1-.2-.1-.3-.1-.5-.4-1.3-.5-1.9-.9-3.2-.1-.3-.2-.4-.3-.7-.1-.1-.1-.3-.2-.5s-.1-.4-.2-.6c-.1-.1-.4-.3-.6-.5-.2-.2-.3-.2-.5-.4-.1 0-.2-.1-.4-.1s-.4 0-.6-.1c-.2 0-.3-.1-.3-.3-.1-.2.1-.4.4-.5.1 0 .2-.1.3-.1.1.1.3 0 .4 0zM41.2 37.4c-.3-.1-.5-.2-.8-.3-.4-.1-.6-.2-.6-.4s.2-.4.8-.5c.3-.1.8-.1 1.5-.2.3 0 .6-.1 1-.1 0 0 .2 0 .4-.1.3-.1.4-.1.6-.1.6-.1.9-.2 1.5-.3.4-.1.5-.1.9-.2s.6 0 .7.3c0 .2-.2.6-.6 1.2-.1.1-.2.2-.4.3-.2 0-.3 0-.4.1-.2.2-.3.6-.5 1.2-.1.3-.1.6 0 1 0 .1.1.3.1.5.1.2.1.6.2 1 .3 1.2.4 1.7.6 2.9 0 .3 0 .4.1.7 0 .2.1.4.1.6 0 .3.1.5.1.8.2.8.2 1.2.4 2.1 0 .1.1.5.3 1.2 0 .1.1.3.1.4.1.3.1.8.1 1.4 0 .3 0 .6 0 .7 0 .3 0 .5 0 .7 0 0 0 .1 0 .1 0 .1 0 .1 0 .2s0 .2 0 .3c-.1.7-.3 1.3-.5 1.6-.8 1.3-1.5 2.1-2.3 2.4 0 0-.1 0-.2.1-.1 0-.2.1-.3.1-.1 0-.2.1-.3.1-.1 0-.6.1-1.4.4-.5.2-1 .3-1.3.4-.8.2-1.5.2-2.2.2-1.7-.1-2.7-.2-3.1-.3-.5-.1-1.1-.4-1.7-.9-.1-.1-.3-.2-.4-.3-.5-.4-.9-.7-1.1-1-.4-.7-.7-1.4-.9-2.2 0-.1 0-.1-.1-.2-.1-.3-.1-.5-.2-.9s-.2-.6-.3-1c-.1-.3-.2-.4-.3-.6 0-.2-.1-.6-.3-1.1-.2-.6-.3-.9-.3-1.1-.3-1.1-.4-2-.4-2.7 0-.1 0-.1 0-.2-.3-.7-.4-1-.7-1.7 0 0 0-.1 0-.1 0-.1 0-.1 0-.3 0-.1 0-.2-.1-.3 0-.2-.1-.3-.1-.4-.4-1.5-1-2.4-1.9-2.6-.4-.1-.7-.1-.8-.2-.1 0-.1-.1-.2-.2-.1-.3.2-.5.7-.6.3-.1.5-.1.8-.2.1 0 .2-.1.4-.1.1 0 .2 0 .3 0 .3-.1.6-.2.9-.3.4-.1.6-.1 1-.2.5-.1.8-.2 1-.3.1 0 .5-.1 1.1-.3.5-.1.7-.2 1.2-.3.6-.1 1 0 1.1.4 0 .2 0 .3-.1.5-.1.1-.3.3-.8.5-.8.5-1.3 1-1.4 1.6-.1.4 0 1 .1 1.5s.2 1.1.4 1.7c.1.3.1.4.2.7 0 .1.1.2.1.5 0 .2.1.4.1.5 0 0 0 .1 0 .2s0 .2 0 .3c0 .2.1.3.1.5 0 .1.1.2.1.4 0 .1 0 .3.1.5 0 .2 0 .4 0 .5 0 .1 0 .2 0 .3 0 0 .2.8.7 2.2 0 .2.1.2.1.4.1.2.1.3.1.6 0 .2.1.3.1.6.2 1.4.5 2.3.9 2.8.7.8 1.2 1.3 1.3 1.4.2.1.5.3 1.1.4.1 0 .4.1 1 .4.2.1.4.1.6.1.2 0 .6-.2 1.2-.5 0 0 .1-.1.2-.1.6-.1.9-.2 1.6-.3.3-.1.9-.4 1.5-.8.6-.5 1-.9 1.1-1.2 0 0 .2-.5.5-1.3s.4-1.3.4-1.4c0-.2-.1-.7-.2-1.4s-.1-1-.2-1.7c-.2-1.1-.3-1.7-.4-2.9-.1-.3-.1-.5-.2-.8-.1-.7-.2-1-.4-1.7 0-.1 0-.1 0-.2 0-.3-.1-.4-.1-.7 0 0 0 0-.1-.1-.1-.2-.2-.5-.3-.8 0-.1-.2-.4-.5-.7-.1-.1-.3-.6-.6-1.5 0-.1-.1-.2-.1-.3 0-.1-.1-.1-.1-.2 0 0-.1-.1-.1-.1s0 0-.1 0c-.3-.1-.5-.2-.8-.4.3 0 .1-.3-.4-.6zM56.5 48.8c.1.6.1.9.2 1.4.1.4.3 1 .7 1.9.1.3.7.7 1.6 1.1.5.3.7.5.8.7 0 .2-.2.4-.7.5 0 0-.5 0-1.3.2-.4.1-.9.1-1.4.2-1.4.2-2.2.3-2.4.3-.2 0-.4-.2-.4-.5 0-.1 0-.2 0-.3 0-.1.3-.3.6-.6.8-.6 1.2-1.8.9-3.2-.1-.6-.4-2.2-.7-4.5 0-.2 0-.3-.1-.6-.1-1.2-.2-1.8-.4-3-.1-.5-.3-1.2-.6-2.1 0 0-.2-1.2-.6-3.2-.1-.6-.3-1-.5-1.2-.1-.1-.6-.3-1.5-.6-.4-.2-.7-.4-.7-.6-.1-.3.1-.5.3-.6.1 0 .4-.1.6-.1.3-.1.5-.1.8-.1 0 0 .1 0 .2 0s.3 0 .5-.1c.2 0 .4-.1.5-.1.1 0 .3 0 .4 0 .4-.1 1-.2 1.8-.4.1 0 .3-.1.4-.1.4-.1.6 0 .8.3 0 .1.1.4.3.9.2.7.4 1.6.7 2.3.5 1.2 1.5 2.8 3 4.8 0 0 0 .1.1.1 0 .1.1.1.1.2.1.1.1.2.2.3.3.7.6 1.1.7 1.2.1.2.3.5.6 1 0 0 .4.5 1.1 1.3.3.4.5.7.6.9.1.3.3.4.4.4.2 0 .5-.4.8-1 0 0 .1-.1.2-.3.2-.4.5-1.4.9-2.9.1-.2.1-.3.1-.5.1-.3.1-.5.2-.8.2-.6.2-.9.4-1.5.2-.9.3-1.4.5-2.4.1-.6.2-1 .3-1.6.1-.5.2-.8.3-1.3.2-.7.3-1.4.5-2 0-.1.1-.2.1-.4s.1-.3.1-.3c.1-.3.2-.5.4-.6.3-.2 1-.3 1.9-.4.3 0 .6 0 .9 0 0 0 .1 0 .1 0 .4-.1.6-.1 1-.2.2 0 .4.1.7.3.1.1.2.2.2.3 0 .2 0 .3-.2.4-.2.1-.3.2-.6.3-.3.2-.6.6-.9 1.3 0 .3 0 .7 0 1.3 0 .6.1 1.5.2 2.6.1.8.2 1.5.3 1.9 0 .2.1.4.1.6 0 .2.1.3.1.4 0 .1 0 .2 0 .2.2 1.6.3 2.5.3 2.8 0 .3 0 .4.1.6 0 .3.1.5.1.8.1 1 .2 1.5.3 2.5 0 .1 0 .3.1.6 0 .3 0 .5.1.5 0 .2.1.5.4 1.1.3.8.6 1.2.7 1.3.3.1.5.2.9.4.1.1.2.2.2.4s0 .3-.1.4c-.1.1-.2.2-.3.2-.3 0-.4 0-.7 0-.5.1-.8.1-1.4.2-.1 0-.2 0-.3 0-.2 0-.3.1-.4.1-.8.1-1.2.1-2 .2-.1 0-.3 0-.7.1-.4.1-.6.1-.7.1-.4.1-.6 0-.7-.2 0-.1 0-.1 0-.2 0 0 0-.1.1-.2 0-.1.1-.1.1-.1s.1-.1.2-.2.2-.2.3-.3c.7-.6 1.1-1.1 1.2-1.5.1-.2.1-.5.1-.7 0-.3-.2-1.2-.3-2.6 0-.2 0-.3 0-.5s0-.3 0-.5c0-.1 0-.2 0-.4s0-.3 0-.4c0-.1 0-.2 0-.4 0-.1-.1-.3-.2-.7 0-.5-.1-.7-.1-1.2-.1-.5-.2-.9-.3-1.4 0-.1 0-.2-.1-.3 0-.1-.1-.2-.1-.2s0-.1 0-.1c0-.2 0-.5-.1-.9 0-.7-.1-1.1-.1-1.4 0-.3-.1-.4-.3-.4-.2 0-.3.2-.3.4 0 .1-.1.2-.1.4-.1.3-.2.6-.2.8-.1.5-.2.8-.3.9-.1.2-.2.4-.4.6-.1.1-.2.7-.4 1.6-.2.7-.5 1.4-.6 1.8 0 .2-.2 1.1-.4 2.7-.1.3-.3.7-.4 1.2-.1.3-.2 1-.4 2-.2.5-.2.7-.4 1.2 0 .2-.2.7-.4 1.5-.1.1-.2.2-.3.2-.1 0-.3-.1-.5-.3-.1-.1-.4-.6-.7-1.5-.1-.2-.5-.9-1.4-2.2-.4-.7-.9-1.4-1.3-2.1-.2-.3-.6-.8-1.2-1.5-.3-.5-.8-1.3-1.3-2.4-.4-.7-1-1.7-1.9-2.8-.1 0-.1-.1-.2-.1 0 0 0-.1 0-.1-.3-.4-.5-.6-.6-.6-.2 0-.3.2-.2.4.1.6.2.9.3 1.5 0 .6 0 .8.1 1.4.1.5.1.7.2 1.2.1.3.1.6.2.9 0 0 0 .2 0 .3 0 .2 0 .5.1.9 0 .4.1.9.1 1.2.2.9.4 1.4.4 1.5zM82.3 45.2c.1.6.1.9.1 1.4 0 .4.2 1.1.6 1.9.1.3.6.7 1.5 1.2.5.3.7.6.7.7 0 .2-.2.4-.8.4 0 0-.5 0-1.3.1-.4 0-.9.1-1.4.1-1.4.1-2.2.2-2.4.1-.2-.1-.4-.2-.4-.5 0-.1 0-.2 0-.3.1-.1.3-.3.7-.6.8-.5 1.3-1.7 1.2-3.1-.1-.6-.2-2.2-.4-4.5 0-.2 0-.3 0-.6-.1-1.2-.1-1.8-.2-3-.1-.5-.2-1.2-.5-2.1 0 0-.1-1.2-.4-3.2-.1-.6-.3-1-.4-1.2-.1-.1-.6-.4-1.5-.7-.4-.2-.6-.4-.7-.7 0-.3.1-.5.3-.5.1 0 .4 0 .6-.1.3 0 .5-.1.8-.1 0 0 .1 0 .2 0s.3 0 .5 0 .4 0 .5 0c.1 0 .3 0 .4 0 .4 0 1-.1 1.8-.3.1 0 .3-.1.4-.1.4 0 .6.1.7.4 0 .1.1.4.2.9.2.8.3 1.6.6 2.4.4 1.2 1.3 2.9 2.7 5 0 0 0 .1 0 .1 0 .1.1.1.1.2.1.1.1.2.2.3.3.7.5 1.1.6 1.2.1.2.3.5.5 1 0 0 .3.5 1 1.4.3.4.5.7.5.9.1.3.2.4.4.4s.5-.3.8-.9c0 0 .1-.1.2-.3.3-.4.6-1.3 1.1-2.8.1-.2.1-.3.2-.5.1-.3.1-.5.2-.8.2-.6.3-.9.5-1.5.3-.9.4-1.4.7-2.3.2-.6.3-.9.4-1.6.2-.5.3-.7.4-1.2.2-.7.4-1.3.6-2 0-.1.1-.2.1-.4s.1-.3.1-.3c.1-.3.2-.5.4-.5.3-.1 1-.2 1.9-.3.3 0 .6 0 .9 0 0 0 .1 0 .1 0 .4 0 .6-.1 1-.1.2 0 .4.1.7.3.1.1.2.3.2.3 0 .2-.1.3-.2.4-.2.1-.4.2-.6.3-.4.1-.7.6-1 1.2-.1.2-.1.6-.1 1.2s0 1.5 0 2.6c0 .8.1 1.5.1 1.9 0 .2 0 .4.1.6 0 .2 0 .4.1.5 0 .1 0 .2 0 .2.1 1.6.1 2.5.1 2.8 0 .3 0 .4 0 .6 0 .3 0 .5 0 .8.1 1 .1 1.5.2 2.5 0 .1 0 .3 0 .6s0 .5 0 .6c0 .2.1.5.3 1.1.3.8.5 1.2.7 1.3.3.2.5.3.8.4.1.1.2.3.2.5s0 .3-.1.4c-.1.1-.2.1-.3.1-.3 0-.4 0-.7 0-.5 0-.8 0-1.4.1-.1 0-.2 0-.3 0-.2 0-.3.1-.4.1-.8 0-1.2.1-2 .1-.1 0-.3 0-.7.1-.4 0-.6.1-.7.1-.4 0-.6-.1-.7-.3 0-.1 0-.1 0-.2 0 0 0-.1.1-.1 0-.1.1-.1.1-.1s.1-.1.2-.2.2-.2.3-.3c.7-.6 1.2-1.1 1.3-1.4.1-.2.2-.4.2-.6 0-.3-.1-1.2-.1-2.7 0-.2 0-.3 0-.5s0-.3 0-.5c0-.1 0-.2 0-.4s0-.3 0-.4c0-.1 0-.2 0-.4 0-.1-.1-.3-.1-.7 0-.5-.1-.7-.1-1.1 0-.5-.1-.9-.2-1.4 0-.1 0-.2 0-.3 0-.1 0-.2-.1-.2 0 0 0-.1 0-.1 0-.2 0-.5 0-.9 0-.7 0-1.1 0-1.4 0-.3-.1-.4-.3-.4-.2 0-.3.1-.3.4 0 .1-.1.2-.1.4-.1.3-.2.6-.2.7-.1.5-.2.7-.3.9-.2.2-.2.3-.4.6-.1.1-.2.7-.5 1.6-.2.7-.6 1.3-.7 1.8 0 .2-.2 1.1-.6 2.7-.1.3-.3.7-.5 1.1-.1.3-.3 1-.6 2-.2.5-.3.7-.5 1.2-.1.2-.2.7-.5 1.5-.1.1-.2.2-.3.2-.1 0-.3-.1-.5-.4-.1-.1-.3-.6-.6-1.5-.1-.2-.5-1-1.2-2.3-.4-.7-.8-1.4-1.2-2.1-.2-.3-.6-.8-1.1-1.6-.4-.6-.8-1.4-1.3-2.5-.3-.8-.9-1.7-1.7-2.9 0 0-.1-.1-.1-.1s0-.1 0-.1c-.3-.4-.4-.7-.5-.6-.2 0-.3.2-.3.4.1.6.1.9.2 1.5 0 .6 0 .8 0 1.4 0 .5.1.7.1 1.2.1.3.1.6.1.9 0 0 0 .2 0 .3 0 .2 0 .5 0 .9s0 .9 0 1.2c.8.6 1 1.1 1 1.1zM105.3 28.1c.8 0 1.2 0 2 0 .8-.1 1.3-.2 1.6-.2 1 0 1.5.2 1.5.7 0 .1-.1.3-.4.5-.4.3-.6.6-.7.8-.2.6-.3 2.1-.2 4.5 0 0 0 0 0 .2s0 .3 0 .5c0 .7.1 1.4.1 1.9 0 .3 0 .5 0 .9 0 1.1 0 2 0 2.7 0 .1 0 .2 0 .4s0 .4 0 .5c0 .3.1.6.1.9 0 .1 0 .1 0 .1 0 .1 0 .2 0 .3 0 .1 0 .2 0 .3 0 .2.1.5.2 1 0 .7 0 1 .1 1.6 0 .2 0 .3 0 .5.1.1.2.4.4.7 0 .1.1.2.1.3.1.1.1.2.1.3.2.2.3.3.5.5s.3.4.3.5c0 .3-.1.5-.3.5-.3 0-.5 0-.9 0-.1 0-.1 0-.1 0-.4.1-.7.1-.8.1 0 0-.1 0-.1 0-.1 0-.1 0-.3 0-.1 0-.2 0-.3 0-.6 0-.8 0-1.4.1-.3 0-.7 0-1.1-.1-.2-.1-.3-.3-.3-.5 0-.1 0-.2.1-.3.3-.3.5-.4.8-.7.2-.3.3-.6.3-1 0 0 0-.1 0-.3 0-.1 0-.3 0-.5s0-.4 0-.6c0-.1 0-.1 0-.3 0-.1 0-.3-.1-.6 0-.3-.1-.5-.1-.6 0-.1 0-.6 0-1.4 0-.6.1-1.1 0-1.4 0-.1-.1-.7-.2-1.9 0-.4 0-.6.1-1 0 0 0-.1 0-.1 0-.1 0-.1 0-.2s0-.2 0-.3c0-.1 0-.1 0-.2 0-1.2-.1-1.8-.1-3 0-.1 0-.3 0-.4 0-.2-.1-.7-.2-1.6 0-.7-.1-1-.1-1.7-.1-.5-.3-.9-.9-1.3-.4-.3-.6-.5-.6-.7.2-.1.4-.3.9-.4zM125.8 27.8c.8 0 1.2.1 2 .1.8-.1 1.3-.1 1.6-.1 1 0 1.5.3 1.5.8 0 .1-.1.3-.4.5-.4.3-.7.6-.8.8-.2.6-.4 2.1-.4 4.5 0 0 0 0 0 .2s0 .3 0 .5c0 .7 0 1.4 0 1.9 0 .3 0 .5 0 .9 0 1.1-.1 2-.2 2.7 0 .1 0 .2 0 .4s0 .4 0 .5c0 .3 0 .6 0 .9 0 .1 0 .1 0 .1 0 .1 0 .2 0 .3 0 .1 0 .2 0 .3 0 .2 0 .5.1 1 0 .7 0 1 0 1.6 0 .2 0 .3 0 .5.1.1.2.4.3.7 0 .1.1.2.1.3s.1.2.1.3c.2.2.3.3.5.5s.2.4.2.5c0 .3-.1.5-.3.5-.3 0-.5 0-.9 0-.1 0-.1 0-.1 0-.4 0-.7 0-.8 0 0 0-.1 0-.1 0-.1 0-.1 0-.3 0-.1 0-.2 0-.3 0-.6 0-.8 0-1.4 0-.3 0-.7-.1-1.1-.2-.2-.1-.3-.3-.3-.5 0-.1 0-.2.1-.3.3-.3.5-.4.8-.7.2-.3.3-.6.3-1 0 0 0-.1 0-.3 0-.1 0-.3.1-.5 0-.2 0-.4.1-.6 0-.1 0-.1 0-.3 0-.1 0-.3 0-.6s0-.5 0-.6c0-.1 0-.6.1-1.4.1-.6.1-1.1.1-1.4 0-.1 0-.7-.1-1.9 0-.4.1-.6.1-1 0 0 0-.1 0-.1 0-.1 0-.1 0-.2s0-.2 0-.3c0-.1 0-.1 0-.2 0-1.2 0-1.8 0-3 0-.1 0-.3 0-.4 0-.2-.1-.7-.1-1.6 0-.7 0-1 0-1.7 0-.5-.3-.9-.8-1.3-.4-.3-.6-.5-.6-.7.2-.1.4-.3.9-.4zM135.1 42.6c.2 0 .3.1.3.2.2.7.3 1.1.6 1.8.1.2.1.2.2.4 0 .1.2.4.5 1 0 0 .3.3.8.7.2.2.3.3.6.6s.7.6 1.1.8c.3.2.5.4.7.5.4.2.6.3.7.3.4 0 .6 0 1-.1.7 0 1.2 0 1.5-.1.3-.1.6-.3 1-.7.4-.4.7-.7.9-.8.1-.1.1-.2.2-.3.1-.1.1-.2.2-.2 0-.1.1-.1.1-.2s.1-.1.1-.1 0-.1 0-.1c.2-.5.4-.9.4-1.2.1-1.9-.8-3.3-2.9-4.1-.4-.2-.6-.3-1.1-.5-.9-.3-1.3-.4-2.2-.7-.2-.1-.3-.2-.6-.3-.3-.1-.8-.5-1.5-1-.3-.3-.6-.6-.9-1-.6-.7-.9-1.2-1-1.4-.1-.2-.2-.4-.3-.7 0-.2 0-.4 0-.6 0-.2 0-.4 0-.6 0-.2 0-.4 0-.5 0-.1 0-.2 0-.2 0-.5.2-1 .5-1.6.2-.4.5-.8.9-1.2.3-.3.9-.8 1.8-1.4.3-.2.4-.2.7-.4.2-.1.3-.1.5-.2 1-.4 1.9-.5 2.7-.5 1.2.1 1.9.1 2.2.2.5.1 1.4.3 2.5.8.2 0 .6.2.9.5.3.3.4.9.6 1.6.2 1.3.3 2 .3 2 0 .1 0 .2 0 .3 0 .3 0 .4.1.7 0 .2-.1.3-.4.3-.2 0-.4-.1-.6-.3-.1-.1-.3-.5-.5-1.1-.1-.2-.3-.5-.6-.9 0 0-.3-.2-.8-.6-.2-.1-.2-.2-.4-.3-.1-.1-.2-.2-.3-.3-.6-.7-1-1-1.1-1.1-.3-.2-.6-.3-1-.3-.1 0-.5 0-1 0-.7 0-1.1.1-1.3.2-.3.1-.6.3-.9.6-.6.6-.9.9-1 1-.3.4-.4.7-.5.9-.1.3-.1.6-.1.7 0 .5.1 1 .4 1.7.2.5.8 1 1.7 1.6.2.2.7.3 1.3.5.1 0 .2 0 .4.1s.6.2 1.3.4c.1 0 .5.3 1.1.6.4.2.7.3 1 .5.3.2.6.4.9.7.9.8 1.4 1.4 1.6 1.8.2.4.3.8.5 1.1.1.3.2.5.4.8.1.7.1 1.4 0 2 0 .3 0 .4 0 .7 0 .8-.5 1.6-1.3 2.5-.2.3-.7.7-1.4 1.2-.1.1-.5.3-1.1.6-.6.3-1 .4-1.2.5-.5.1-.9.1-1.3.1-.7-.1-1.1-.1-1.8-.2-.3 0-.5 0-.8 0-.2 0-.3 0-.5-.1-.4-.1-.6-.2-1-.3-.7-.2-1.4-.3-2.1-.5-.8-.2-1.3-.7-1.4-1.3 0-.3-.1-.5-.1-.8-.1-.5-.1-1-.1-1.5 0-.3 0-.7 0-1 0-.1 0-.3 0-.4-.7-1.3-.4-1.8-.1-1.8zM154.9 29.4c.9.1 1.4.2 2.3.3.4 0 1 0 1.8.1.4 0 .6 0 .9.1.5 0 .8.2.7.5 0 .1-.1.2-.2.3-.2.1-.3.1-.4.2-.2.2-.3.3-.5.5s-.4.3-.4.4c-.5 1-.9 2.3-1 3.8-.1 1-.2 1.9-.2 2.9-.1.6-.1.8-.2 1.4 0 .4-.1.6-.1.9 0 .5-.1.8-.1 1.3 0 .3 0 .5-.1.8 0 .1-.1.3-.2.8 0 .1-.1.3-.1.6 0 .2 0 .5 0 .9s0 .7 0 .9c0 .3 0 .5 0 .8 0 .1-.1.4-.2.8 0 .1 0 .2 0 .3-.1 1 .4 1.5 1.4 1.6.2 0 .6 0 1.1 0 .4 0 .8.1 1.3.1.1 0 .2 0 .3 0 .3 0 .5.1.8.1.2 0 .5-.2 1-.6.6-.6 1-1 1.1-1.2.5-.8.9-1.2 1.1-1.1.2 0 .3.2.2.5-.1.5-.2.8-.3 1.3 0 .4 0 .7 0 1.1 0 .2 0 .2 0 .4s0 .3 0 .5c-.1.5-.3.8-.6.9-.2 0-.6 0-1.2-.1-.3 0-.5-.1-.8-.1-.8-.1-1.3-.2-2.1-.3 0 0-.1 0-.1 0-.1 0-.1 0-.3 0-.1 0-.2 0-.4 0-.1 0-.2 0-.3 0-.3 0-.6 0-.8 0-.5 0-1.1-.1-1.7-.3-.2-.1-.5-.1-.7-.1-.3 0-.9-.1-1.8-.1 0 0-.1 0-.2 0s-.3 0-.5.1c-.2 0-.4 0-.7.1-.1 0-.2 0-.3 0-.5 0-.8-.2-.8-.5 0-.2.1-.5.3-.6.2-.1.4-.3.6-.5.6-.4.9-1.1 1.1-1.9.1-.4.2-1.3.4-2.7 0-.6.1-.8.1-1.4 0-.1 0-.3 0-.4 0-.2 0-.3 0-.5 0-.1 0-.3 0-.4 0-.1 0-.2 0-.3 0-.1 0-.1 0-.1 0-.5.2-1.1.3-1.9 0 0 0-.2.1-.3 0 0 0-.1 0-.1 0-.1 0-.2 0-.3 0-.1 0-.3 0-.4 0-.1 0-.3 0-.5s0-.3 0-.5c.1-1.3.2-2 .3-3.3 0-.3 0-.5 0-.8 0-.1 0-.3 0-.6s0-.5 0-.6c-.1-.2-.2-.4-.4-.7-.1-.2-.2-.3-.3-.6-.1-.1-.2-.1-.4-.2s-.4-.2-.6-.3c-.1-.1-.2-.2-.2-.4 0-.3.3-.3.6-.4.1 0 .2 0 .4 0 .7-.2.9-.2 1-.2zM180 53.5s-.1 0-.1 0c-.4.1-.8.1-1.2 0-.3-.1-.5-.2-.5-.4 0-.1.2-.3.5-.5.7-.4 1.1-.9 1.2-1.6.1-.4 0-.8-.1-1.4 0 0 0-.1 0-.2s-.1-.3-.1-.5c-.1-.2-.1-.5-.2-.7 0-.1-.1-.9-.2-2-.1-.8-.6-1.3-1.4-1.4-.4-.2-.6-.2-1-.4-.3-.2-.7-.3-1.2-.4-.7-.1-1.3-.1-1.7 0-.3 0-.6.4-1 1.2-.2.5-.4.9-.6 1.1-.4.4-.6.8-.8 1.2 0 0-.1.2-.2.6-.2.7-.3 1.2-.3 1.3-.1.4 0 .7 0 .9 0 .1.1.1.1.1.1.1.2.2.3.5.1.2.3.4.5.7.2.3.3.4.3.5 0 .3-.3.4-.8.3-.3 0-.6-.1-1-.2-.1 0-.2 0-.3 0-.1 0-.2 0-.3 0-.2 0-.3 0-.5-.1-.6-.1-.8-.1-1.4-.1-.5-.1-.7-.3-.7-.6 0-.2.1-.3.2-.4.3-.2.4-.2.7-.4.1-.1.4-.4.8-1.1 0-.1.2-.3.6-.7.1-.1.3-.5.6-1.3.1-.1.4-.7 1.1-1.8.3-.5.4-.8.7-1.3.7-1.3 1.4-2.6 2.3-4.1 0 0 .1-.1.2-.3.1-.2.3-.4.5-.8s.5-.8.7-1.2c.7-1.2 1.2-1.9 1.3-2.3.5-.9.9-2 1.2-3.1.2-.7.6-1.1 1-1 .1 0 .3.2.4.6.1.2.3 1.3.7 3.1 0 0 .1.4.4 1.2 0 .1 0 .5.1.9 0 .1 0 .2 0 .3 0 .1 0 .3.1.5 0 .2.1.4.1.6 0 .2.1.6.4 1.3.2.9.3 1.4.5 2.3 0 .5.1.7.1 1.1.1.7.2 1.1.3 1.8.1.6.2 1.5.4 2.6.1.4.2 1.2.4 2.3.1 1 .4 1.8.7 2.4.1 0 .3.2.6.7.1.1.1.3.1.5 0 .3-.3.4-.7.4-.7-.1-1.1-.1-1.8-.2-.3 0-.5 0-.8-.1-.2 0-.5-.1-1.2-.4zM177.7 38c-.1 0-.1 0-.2 0-.2.2-.2.3-.4.5-.3.4-.6.7-.8 1-.5.9-.7 1.5-.8 1.9 0 .2 0 .4 0 .6.1.3.5.6 1.2.8.2 0 .3.1.4.2.3.1.5.2.7.2.3 0 .4-.1.5-.4.2-1.1.2-2.1 0-3.1-.1-1-.3-1.6-.6-1.7zM191.1 40.3c.1-.3.1-.5.1-.8.1-.7.2-1.2.1-1.5 0-.7-.1-1.3-.3-1.5-.1-.1-.5-.5-1.3-1.1-.3-.2-.5-.5-.4-.8.1-.4.3-.5.6-.5.3.1.5.1.9.2.1 0 .4 0 .9.1 0 0 .1 0 .2 0s.3 0 .6.1c.3 0 .6.1.9.1.9.1 1.3.2 2.1.3.6.1.9.4.8.8 0 .1 0 .2-.1.2-.1.4-.2.7-.3.8-.1.5.3 1.8 1.3 4 .1.2.1.3.2.6 0 .1.2.4.4.9s.4 1.1.7 1.7c.3.6.6 1.3 1 2s.8 1.5 1.4 2.3c0 .1.1.1.1.2s.1.1.1.2c0 0 0 .1.1.1 0 0 0 .1.1.1.2.4.3.7.6.9.3.2.4.3.7.6.2.1.5-.1.7-.5.1-.2.3-.8.7-1.8.2-.6.3-.9.5-1.6.1-.7.2-1 .3-1.6 0-.1.1-.4.3-.9 0 0 .1-.1.1-.1 0-.3.1-.5.1-.9 0-.2 0-.3.1-.4 0-.7.2-1.6.2-2.3 0-.6-.5-1.4-1.4-2.2-.2-.2-.3-.4-.3-.6 0-.1.1-.2.2-.3.1-.1.2-.2.3-.2.8.2 1.1.4 1.9.6 0 0 .2 0 .5 0s.5 0 .6 0c.4.1.6.1 1 .2.6.1 1 .2 1.1.3.2.1.3.3.3.6 0 .2-.1.3-.3.3-.3.1-.4.1-.7.2-.7.2-1.1.5-1.3 1.1-.1.2-.3.9-.5 2 0 .1-.1.3-.1.5s-.1.3-.1.4c0 .1 0 .1 0 .2 0 0 0 .1 0 .1 0 .1 0 .2 0 .4s-.1.3-.1.5c-.1.5-.2 1-.3 1.6-.1.3-.1.4-.2.7 0 0 0 .1-.1.1 0 .1 0 .1-.1.2 0 .1-.1.2-.1.3 0 .1-.1.3-.1.4 0 .2-.1.3-.1.4-.2.9-.3 1.4-.5 2.3-.2.6-.4 1-.4 1.2 0 .2-.1.7-.2 1.4-.1.4-.1.6-.2 1.1-.1.3-.1.4-.1.6-.1.5-.2.9-.3 1.3-.1.3-.1.5-.1.6 0 .1-.1.2-.1.4 0 .1 0 .2 0 .3 0 .1 0 .1 0 .1-.1.7-.5.9-.9.8-.2 0-.3-.1-.3-.2-.2-.6-.3-.8-.5-1.4 0 0-.1-.2-.3-.6-.5-.8-.8-1.2-.9-1.4-.2-.5-.4-.9-.5-1.2-.1-.2-.4-.7-.8-1.5-.1-.1-.1-.2-.2-.3-.2-.3-.2-.5-.4-.8-.2-.4-.3-.5-.5-.9s-.3-.5-.5-.9-.3-.6-.5-.9c-.1-.1-.2-.3-.4-.7-.2-.3-.3-.6-.4-.8 0 0-.1-.3-.3-.6-.2-.4-.4-.7-.5-1.1-.2-.5-.4-.9-.6-1.3-.1-.3-.5-.9-1-2-.3-.7-.5-1.1-.9-1.8-.2 0-.4.1-.6.5-.1.7-.2 1.1-.3 1.8-.1.6-.2.9-.3 1.5-.3 1.3-.5 2.7-.9 3.9-.2.7-.3 1.2-.4 1.4 0 .2-.1.6-.1 1 0 0-.1.4-.1 1.1 0 .2 0 .2 0 .4-.1.6-.1 1.1-.1 1.3 0 1 .5 1.7 1.6 2.2.3.1.5.4.4.7 0 .2-.5.3-1.5.1-.2 0-.4-.1-.7-.2-.4-.1-1-.2-1.8-.4-.3-.1-.6-.1-.8-.1-.1 0-.1 0-.2 0-.2 0-.6-.1-1-.3-.3-.1-.4-.3-.4-.5 0-.1.1-.2.3-.3.3-.1.6-.2.7-.2.6-.2 1-.5 1.3-1.1.2-.4.5-1.4.8-2.8.1-.4.1-.8.2-1 0-.2.1-.3.1-.5s.1-.5.1-1c0-.1 0-.2.1-.3.1-.3.2-.7.4-1.4 0-.1.1-.3.1-.3 0-.2 0-.3.1-.6 0-.2.1-.4.1-.6 0-.1 0-.2 0-.3 0-.1 0-.2 0-.3 0-.1 0-.1 0-.1 0-.2.1-.6.3-1 0-.1.1-.3.2-.8 0-.1.1-.3.1-.6s0-.5 0-.6zM214.8 39.3c.5.1.9.3 1.4.5.2.1.3.1.3.1.1 0 .6 0 1.5.1.7.1 1.1.2 1.8.4 0 0 .5.2 1.6.5.7.2 1.6.5 2.7.8.3.1 1 .6 2 1.7.1.1.1.1.2.2.1.2.2.3.3.5.7.7 1.2 1.4 1.6 2.2.3.4.7 1.1.9 2 .2.9.1 1.7.1 2.1-.1.9-.2 1.5-.4 2-.2.6-.3.9-.5 1.6-.2.6-.3.9-.4 1.5-.1.5-.5 1.3-1.3 2.4-.3.4-.5.7-.6.8-.1.1-.4.4-.9.9-.6.5-1.1.9-1.4 1.2-.5.3-1 .5-1.5.6 0 0-.2 0-.4.1s-.4.1-.5.1c-.2 0-.9.1-2.1.2-.1 0-.3 0-.6.1-.9.1-1.6.1-1.9 0-.3-.1-.7-.2-1.1-.3-.6-.1-.9-.2-1-.2-.1 0-.2 0-.3 0-.1 0-.2 0-.2 0s-.2-.1-.3-.1c-.2-.1-.4-.2-.5-.2-.1-.1-.5-.2-1.1-.3-.4-.1-.7-.2-.9-.3-.4-.1-.5-.1-.9-.2s-.7-.2-1.1-.3c-.2 0-.3-.1-.5-.1-.3-.1-.4-.3-.3-.7 0-.2.2-.4.3-.4.4-.1.5-.2.9-.3.6-.3 1.1-.9 1.3-1.8 0-.2.1-.5.3-1 .2-.5.3-.8.4-1 .1-.2.2-.7.3-1.4 0-.1 0-.2 0-.2 0-.1.1-.2.1-.3.1-.4.3-.8.4-1.3 0-.1 0-.1 0-.2s0-.3.1-.4c0-.2.1-.3.1-.4.1-.6.2-.9.3-1.5.1-.3.2-.9.3-1.6.1-.4.1-.6.2-.9.1-.3.2-.7.3-1 .1-.3.3-.6.3-.8 0-.2.1-.5.1-.8 0-.4.1-.6.1-.8 0-.6 0-1-.1-1.2-.1-.2-.1-.5-.3-.8-.1-.1-.2-.2-.3-.3-.1-.1-.3-.3-.4-.3-.1-.1-.1-.3-.1-.5.3-.9.8-1 1.7-.7zm6.6 3c-1.9-.5-3.1-.1-3.5 1.1-.2.5-.4 1-.7 1.5 0 0 0 0-.1.1 0 .1 0 .5 0 1.2 0 .1-.1.2-.1.3 0 0 0 .1 0 .1 0 .1-.1.1-.1.3 0 .1-.1.2-.1.3-.2.6-.4 1-.4 1.3-.2.7-.4 1.3-.5 1.8 0 0-.1.1-.1.2s-.1.2-.1.2c-.1.6-.1.9-.2 1.4-.1.4-.2.7-.4 1.1-.1.3-.1.4-.2.7-.1.3-.2.5-.3.8-.1.8-.2 1.3-.2 1.3 0 .2-.2.5-.3 1.1 0 0-.1.1-.1.2-.1.5-.1 1 .2 1.5.3.5.6.8 1.1.9.1 0 .5 0 1.2 0 .4 0 .6.1 1 .1.3 0 .5 0 .8 0 .4 0 .7 0 1.1-.1.2-.1.4-.2.8-.5s.6-.4.9-.6c.1 0 .2-.1.3-.2.1-.1.2-.1.3-.2 0 0 .1-.1.2-.1.1-.1.2-.1.3-.3.1-.1.3-.2.4-.3.1 0 .2-.1.3-.3.2-.1.3-.2.4-.3.2-.1.4-.4.5-.7 0 0 .1-.2.2-.5s.2-.6.4-.8c.2-.4.3-.7.6-1.1 0-.2.2-.5.4-1s.3-.8.3-.9c.1-.3.1-.5.1-.8.1-.3.1-.5.2-.8.1-.2.2-.7.3-1.4 0-.1-.1-.6-.4-1.4-.1-.5-.3-1.1-.6-2-.2-.3-.6-.8-1.2-1.3-.3-.3-.5-.5-.6-.6-.5-.5-.8-.8-.9-.9-.4-.1-.8-.2-1.2-.4zM92.4 65.9h2.2c.3 0 .4 0 .6.2.1.2.2.4.2.7 0 .4 0 .7-.1.7l-.9.5c-.1.1-.2.2-.2.5s.3 1.2.8 2.5c.2.5.6.8 1 .8.2 0 .4-.1.5-.2.1-.1.1-.2.2-.6.2-.6.4-1.1.4-1.3.1-.5.1-.8.1-.9 0-.3-.1-.6-.3-.8-.1-.1-.3-.2-.8-.3-.2 0-.3-.2-.3-.4s.1-.5.3-.8c.1-.3.3-.4.6-.4.1 0 .2 0 .5 0s.4 0 .5 0h1c.5 0 1.2 0 2 0 .7 0 1 .3 1 .8 0 .3-.1.5-.3.7-.1.1-.4.4-1 .8-.4.3-1 1-1.7 2.2 0 0-.2.3-.5 1-.1.3-.3.9-.5 2 0 0-.2.4-.5 1.2-.1.2-.1.3-.1.5 0 .1 0 .4.1.7 0 .1.1.2.1.4.1.2.2.5.3.9.1.4.2.8.4 1.1.1.3.3 1.1.7 2.5.2.5.5 1.3.9 2.4l.1.6c.2 1.2.5 1.8.7 1.8.2 0 .4-.4.7-1.2.4-.9.7-1.9.9-2.8l.4-1.5c.3-.9.5-1.7.6-2.2.2-.5.4-1 .7-1.4.1-.1.3-.7.7-2l.3-1 .2-1c.2-1 .3-1.6.3-1.7 0-.1 0-.1 0-.2s0-.1 0-.1 0-.1 0-.1c0-.1 0-.1-.1-.1 0 0-.1-.1-.1-.2-.1-.1-.1-.2-.1-.2 0-.1-.1-.2-.2-.3-.1-.2-.2-.3-.2-.4-.1-.1-.1-.3-.2-.6-.1-.2-.2-.4-.3-.6l-.6-.4c-.1-.1-.2-.3-.2-.5s.1-.3.2-.5c.2-.2.3-.3.5-.2 1.4.2 2.3.2 2.5.2 1 0 1.6 0 1.7 0h.9c.7 0 1.1.3 1.1.8 0 .2-.1.3-.2.5l-1 .6c-.5.4-.9 1-1.2 1.8-.5 1.2-.9 2-1.1 2.6-.1.3-.6 2.1-1.7 5.5-.5 1.4-1.1 3.3-1.8 5.5-.6 1.9-1.1 3.7-1.5 5.2-.2.5-.3 1.3-.5 2.2-.1 1.1-.4 1.6-1 1.6-.2 0-.4-.1-.6-.3-.1-.3-.3-.8-.5-1.4l-.5-1.3-.5-2.2-.6-1.1-.2-.7-.5-.8-.3-1.3c-.4-1.1-.7-1.9-.9-2.6-.2-.5-.3-.8-.4-.8-.2 0-.4.3-.7.8-.2.4-.3.8-.5 1.5l-.5 1.3-.8 3.1c-.9 2.2-1.4 3.5-1.4 3.7-.2.7-.4 1.1-.7 1.1-.1 0-.3-.1-.6-.4-.3-.3-.4-.5-.4-.7l-.3-1-.4-1-.8-2.3-1-2.4-.4-1.3-.3-.7-.6-1.9-.7-1.6-.8-2.3-.7-1.7-.3-1.2c-.2-.8-.4-1.5-.7-2.1l-.2-.5c-.6-1.4-1.1-2.3-1.4-2.6-.3-.3-.6-.5-1.1-.7-.5-.3-.8-.7-.8-1.2s.3-.7.8-.7c.7 0 1.6 0 2.7.1.2 0 .5 0 .7 0 .3 0 .5 0 .7 0l.5-.1c1.6 0 2.4.1 2.6.2.4.2.5.5.5 1.1 0 .3 0 .5-.1.5l-.7.7c-.4.4-.5 1.2-.5 2.2 0 1.1.2 2.1.5 3.1.2.8.8 2.2 1.7 4l.6 2 .8 2.2.4 1.5c.3 1 .5 1.5.6 1.6.1.2.3.3.5.3.3 0 .6-.6 1-1.7.1-.3.2-.6.4-.9.2-.3.4-.9.7-1.8.5-1.4.8-2.3.8-2.6 0-.7-.5-2.1-1.5-4-.3-.5-.5-1.2-.8-2.3-.3-.2-.5-.8-.9-1.8-.3-.7-.6-1.4-1-2.2-.1-.1-.4-.3-1-.6-.2-.1-.3-.3-.3-.7 0-.6.3-.8 1-.8l2.7.2zM113.1 65.8l2.3.1c.9-.1 1.5-.2 1.8-.2 1.1 0 1.7.3 1.7 1 0 .2-.1.4-.4.6-.5.4-.7.7-.8 1-.3.8-.4 2.6-.4 5.5 0-.1 0 0 0 .2s0 .4 0 .6c.1.9.1 1.7.1 2.3v1c0 1.3 0 2.4-.1 3.3 0 .1 0 .2 0 .5 0 .2 0 .4 0 .6 0 .4 0 .8 0 1.2v.2c0 .1 0 .2 0 .3v.4c0 .2.1.6.2 1.2v2.7c.1.2.3.4.4.8 0 .1.1.2.2.3s.1.3.2.3l.6.6c.2.3.3.5.3.7 0 .4-.1.6-.4.6h-1.2c-.5.1-.8.1-1 .1 0 0-.1 0-.2 0s-.2 0-.3 0c-.1 0-.3 0-.4 0H114c-.4 0-.8-.1-1.3-.2-.2-.1-.3-.3-.3-.6 0-.2 0-.3.1-.3l1-.8c.2-.3.4-.7.4-1.2 0-.1 0-.2 0-.3 0-.2.1-.4.1-.6 0-.2.1-.5.1-.7 0-.1 0-.2 0-.3 0-.1 0-.3-.1-.7 0-.4-.1-.6-.1-.7 0-.2 0-.7.1-1.7.1-.8.1-1.3.1-1.7 0-.1-.1-.9-.2-2.3l.1-1.2s0-.1 0-.1c0-.1 0-.2 0-.3 0-.1 0-.2 0-.4v-4c0-.2 0-.3 0-.5 0-.3-.1-.9-.2-2V69c-.1-.6-.4-1.1-.9-1.6-.4-.4-.7-.6-.7-.8 0-.6.3-.8.9-.8zM123.8 65.9l2.6.1c.4-.1 1.1-.1 2.1-.1h1.1c.6-.1.9.1.9.6 0 .2-.1.3-.2.4l-.5.3-.5.7c-.3.3-.4.4-.4.6-.5 1.3-.7 2.9-.7 4.7 0 1.2 0 2.3.1 3.5v5.2c0 .1 0 .4-.1 1 0 .1 0 .4 0 .7 0 .3 0 .6.1 1.1 0 .5.1.9.1 1.1l.1 1c0 .2-.1.5-.2 1v.3c0 1.2.6 1.8 1.8 1.8.3 0 .7-.1 1.3-.2.5 0 1 0 1.6 0h1.4c.2 0 .6-.3 1.2-.9.7-.8 1.1-1.3 1.2-1.6.5-1 .9-1.5 1.1-1.5.3 0 .4.2.3.5l-.1 1.7.1 1.3v1.2c0 .6-.2 1-.6 1.2-.3.1-.7.1-1.5.1h-1l-2.6-.1s-.1 0-.1 0c-.1 0-.2 0-.3 0-.2 0-.3 0-.4 0h-.3c-.4.1-.7.1-1 .1-.6 0-1.3-.1-2.1-.2-.3-.1-.6-.1-.9-.1-.4 0-1.1 0-2.2.1 0 0-.1 0-.2 0s-.3.1-.6.1c-.3.1-.5.1-.8.2-.1 0-.2 0-.3 0-.6 0-1-.2-1-.5s.1-.5.3-.8c.2-.2.5-.4.7-.6.7-.6 1-1.4 1.1-2.5.1-.5.1-1.6.2-3.3v-1.7c0-.2 0-.3 0-.5s0-.4 0-.6c0-.2 0-.3 0-.5s0-.3 0-.4v-.2c0-.6.1-1.4.2-2.3 0-.1 0-.2 0-.4v-.1c0-.1 0-.2 0-.3 0-.2 0-.3 0-.5s0-.4 0-.6c0-.2 0-.4 0-.6v-4l-.1-1c0-.2 0-.4-.1-.7 0-.3 0-.6 0-.7-.1-.2-.3-.5-.5-.8l-.4-.7c-.1-.1-.2-.2-.4-.2-.2-.1-.4-.2-.7-.3-.2-.1-.3-.3-.3-.5 0-.3.2-.5.6-.5.1 0 .2 0 .4-.1.3.1.4 0 .5 0zM141.7 65.9c.5 0 1.1.1 1.7.2.2.1.3.1.3.1.1 0 .6-.1 1.7-.3l2.1-.1s.6 0 1.8.1c.8 0 1.9.1 3.2.1.3 0 1.2.5 2.7 1.3l.3.2.5.5c1 .6 1.8 1.3 2.4 2 .4.4 1 1 1.7 2 .4 1.2.7 2 .8 2.5.2 1.1.2 1.9.2 2.4v3.8c0 .6-.2 1.7-.7 3.2-.2.6-.3.9-.4 1.1-.1.2-.3.7-.7 1.3-.5.8-.9 1.5-1.2 1.8-.5.5-1 .9-1.5 1.2-.1 0-.2.1-.4.2s-.4.2-.5.3c-.3.1-1 .4-2.3.9-.2.1-.4.2-.7.3-1 .4-1.8.6-2.2.6-.3 0-.8 0-1.4 0-.7.1-1.1.1-1.2.1-.1 0-.2 0-.3 0-.1 0-.2 0-.3 0-.1 0-.2 0-.4-.1-.2 0-.5-.1-.7-.1-.2 0-.6 0-1.4 0-.4 0-.8 0-1.2 0H140.5c-.4 0-.6-.3-.6-.8 0-.3.1-.5.3-.6l1-.6c.7-.5 1-1.4 1-2.5 0-.2 0-.6.1-1.3.1-.7.2-1.1.2-1.3 0-.3 0-.9-.1-1.8 0-.1 0-.2 0-.3 0-.1 0-.2 0-.3.1-.5.1-1 .1-1.7v-.2c0-.2 0-.3-.1-.5 0-.2 0-.4 0-.5v-1.9c0-.4 0-1.1-.1-2 0-.4 0-.8 0-1.1 0-.4 0-.9.1-1.3s.2-.8.2-1c0-.2 0-.6-.1-1 0-.5-.1-.8-.1-1-.2-.7-.3-1.2-.4-1.4-.1-.2-.3-.5-.5-.8-.1-.1-.2-.1-.4-.3-.2-.1-.4-.2-.5-.3-.2-.1-.2-.3-.2-.6-.3-.2.2-.5 1.3-.5zm8 1.7c-2.3 0-3.4.8-3.5 2.4-.1.6-.2 1.3-.3 2 0 0 0 .1 0 .1 0 .1.1.6.3 1.4v.5s0 .1 0 .2 0 .2 0 .3c0 .1 0 .3 0 .4-.1.8-.1 1.3-.1 1.7 0 .9 0 1.7 0 2.3 0 .1 0 .1-.1.2 0 .1 0 .2 0 .2l.2 1.8c0 .5-.1.9-.1 1.4v.9l-.1 1c.1 1 .2 1.6.2 1.6 0 .2 0 .7-.1 1.3 0 .1 0 .1 0 .2 0 .6.2 1.2.7 1.7.4.5 1 .8 1.6.8.1 0 .6-.1 1.4-.3l1.2-.2.9-.2c.4-.1.8-.3 1.2-.5.2-.1.4-.4.8-.8l.9-1c.1-.1.1-.2.3-.3.1-.1.2-.2.3-.3 0-.1.1-.1.1-.2.1-.1.2-.2.3-.4.1-.2.2-.3.3-.5.1-.1.1-.2.3-.4.1-.2.2-.3.3-.4.2-.2.3-.6.4-1 0 0 0-.2.1-.6 0-.4.1-.8.1-1.1l.3-1.5c0-.2 0-.6.1-1.2s.1-1 .1-1.2l-.1-1v-1c0-.3 0-.9-.1-1.7 0-.2-.3-.7-.8-1.6-.2-.5-.7-1.2-1.3-2.1-.3-.3-.9-.7-1.7-1.2-.5-.3-.7-.5-.8-.5-.7-.5-1.1-.7-1.3-.8-1-.3-1.4-.4-2-.4zM21.6 78.8c-.1 0 0 0 0 0zM21.7 78.8zM22.3 78.8c-.1 0-.3 0-.4 0 .2 0 .4 0 .4 0zM22.1 78.8h.1zM22 78.8h.2zM22.8 78.8h-.1c-.1 0 .1 0 0 0-.2 0-.1 0-.3 0 0 0 .4 0 .3 0 .2 0 0 0 .1 0zM31.4 78.5zM33.8 78.4c0 .1.1.1 0 0 .1.1.1 0 0 0zM30 78.7c-.1 0-.1 0 0 0-.1 0-.1 0 0 0zM45 79zM36.4 78.3s.1 0 .1 0c0-.1 0-.1-.1 0zM29.1 78.7zM33 78.4c.1 0 .1 0 0 0 .1 0 .1 0 0 0zM25 78.8s.1 0 .1 0-.1 0-.1 0zM25.8 78.8zM26.4 78.8zM25.1 78.8c.1 0 .1 0 .2 0s.1 0 .2 0c0 0-.1 0-.1 0-.2 0-.2 0-.3 0zM31.4 78.6c0-.1 0 0 0 0zM30.7 78.6zM28 78.7c0-.1 0 0 0 0zM30.8 78.6zM28.8 78.7zM56.3 79.9c-.1 0-.1 0-.1-.1-.2.2.2 0 .1.1 0 .1 0 .1 0 0v-.1c-.1 0 .1 0 0 .1zM45.7 79.2s0 .1 0 0c.1 0 0-.1.2-.2 0 0-.1 0-.1 0 0 .1 0 .1-.1.2zM45.8 79c-.1 0-.1 0 0 0-.1 0-.1 0 0 0-.1 0-.1 0 0 0zM54.5 79.8c-.1 0-.1 0 0 0-.1 0 0 0 0 0zM36.3 79.1c0 .1-.1.1 0 0-.1.1 0 .1 0 0zM44.4 79.1c-.1 0-.1 0-.1 0h.1zM48.7 77.9c0 .1 0 0 .1.1l.1-.1s-.1 0-.2 0zM56.4 80c0-.1 0-.1 0 0zM51.3 77.8zM45.2 78.9h-.3.1c.1 0 .2.1.2 0zM47.3 77.9c-.4.1-.7-.1-1 .1-.4-.3-.3.3-.6 0-.6 0-1.2 0-1.8 0-.6 0-1.2 0-1.8.1-.9 0-1.8 0-2.7.1-.9 0-1.8.1-2.7.1-.2 0-.1.1-.2.2-.1 0-.2 0-.2 0 .1 0 .1-.1.1-.1-.2 0-.5 0-.6 0h.2c-.1 0-.2 0-.2 0s-.1-.1 0-.1c-.4.1-.3 0-.6 0-.1.1-.5.2-.7.3h-.1c.2 0 0-.1.2-.1-.2 0-.4 0-.5 0 0 0 0 .1 0 .1-.1 0-.1-.1-.2-.1h.1c-.1 0-.2 0-.2 0s-.2 0-.2-.1c-.2.1-.2 0-.4.1.2 0 0 0 0 .1h.2c-.3 0 .1 0 .1-.1.1 0-.2.1 0 .1-.3 0-.3 0-.6.1.2 0 0 0 .1.1-.2 0-.1 0-.1-.1-.1 0-.2 0-.3 0-.2 0 0 0-.1-.1.1 0 .5 0 .5-.1.1 0 .2-.1.4-.1-.1 0-.3-.1-.5 0v.1c-.1 0-.1.1-.2.1 0 0 0-.1-.1 0 0 0 .1 0 .1 0-.2 0-.2.1-.4.1.2 0 .2 0 .4.1 0 .1-.1 0-.2 0h-.1c-.2 0 0-.1-.2-.1-.1 0-.2 0-.3 0-.1 0-.2 0-.3 0 0 0-.1 0-.1 0-.1 0-.2.1-.3 0-.1 0-.3 0-.2 0h-.2c-.2 0-.2 0-.3.1-.2 0-.4 0-.5 0 0 0 0 0-.1 0h.1c-.2 0-.1 0-.3 0 0 0 0 0-.1 0 0 0 0 0 .1 0-.1 0-.2 0-.3 0 0 0 0 0 .1 0-.1 0-.2-.1-.2 0 0 0 0 0-.1 0h-.1s0 0 .1 0c0 0-.1 0-.1 0h-.2s-.1 0-.1 0c-.1 0-.1 0-.1 0-.3 0-.4 0-.7 0-.1 0 .1 0 .1 0s-.2 0-.3 0c-.1 0-.5 0-.4-.1-.2 0 .1 0 0 0 .1 0 .1 0 .2 0 0 0-.2 0-.3 0-.2 0-.2 0-.3.1-.2 0-.1 0-.1 0h-.2c-.1 0-.1 0-.3 0 .1 0-.2 0-.1 0-.1 0-.1 0-.2 0s.1 0 .1 0-.2 0-.3 0c0 0 .1 0-.1 0 0 0-.1 0-.2 0 0 0-.1 0-.2 0 .1 0 .2 0 .1 0s-.1 0-.3 0h.1c-.1 0-.2 0-.4 0 .1 0 .1 0 .2 0-.1 0-.2 0-.4 0h-.1s-.2 0-.2 0c-.2 0 .1 0 .2 0-.2 0-.2 0-.4 0h.1c-.1 0-.2 0-.2 0s0 0 .1 0c0 0-.3 0-.3 0h.1c-.2 0-.3 0-.4 0-.1 0 .1 0 .1 0-.1 0-.1 0-.3 0 .1 0 .1 0 0 0 .1 0 .3 0 .3 0s.1 0 .1 0c.1 0 .1 0 .1 0 .2 0 0 0 .2 0 .1 0 .3 0 .3 0 .1 0 .2 0 .3 0 0 0-.3 0-.5 0 .1 0-.1 0-.1 0h.3s.1 0 .2 0 .1 0 .2 0 .1 0 .2 0-.1 0 0 0 .2 0 .3 0c0 0 .4 0 .2 0h.3c.1 0-.2 0-.1 0h-.2s.4 0 .6 0c.1 0 .1 0 .3 0 .1 0 .1 0 .1 0 .1 0 .1 0 .2 0 0 0 0 0-.1 0 .1 0 .1 0 .1 0s.1 0 .2 0h-.1s.1 0 .1 0 .1 0 .1 0-.1 0-.2 0c.3 0 .4 0 .7 0 0 0-.1 0-.1 0 .1 0 .2 0 .2 0s0 0 .1 0c0 0 0 0 .1 0 0 0 0 0 .1 0 0 0 .2 0 .3 0 0 0-.1 0-.2 0 .1 0 .2 0 .2 0-.2 0 .2 0-.1 0 .2 0 .1 0 .3 0h.1s-.2 0-.2 0h.1c-.1 0-.4 0-.6 0h.4c.5 0 1.1 0 1.5 0h.1c.1 0 .3 0 .4.1-.1 0-.1 0-.1 0s0 0 .2 0c0 0-.1 0 0 0-.1 0 0 0 .1 0s.2 0 .2 0-.1 0-.1 0 .1 0 0 0h.1c.1 0-.1 0 0 0 .2 0 .3-.1.5-.1 0 0 0 .1 0 .1.2 0 .3-.1.5-.1 0 0-.1 0-.1 0 .6 0 1 0 1.5.1l.1-.1.1.1c.5.1 1 0 1.5 0 .2 0 .1.1.2.1.4 0 .4-.1.8-.1 0 0-.1.1 0 .1 0 0 0-.1.1 0 .1 0 .2 0 .3 0 .3 0 .6-.1.8-.2.3 0 0 .1 0 .1-.2 0-.1 0-.2 0 .1 0 .2 0 .3 0 .1 0 .2 0 .3 0-.1 0-.1 0-.1 0 .1 0 .4 0 .4.1.7 0 1.4 0 2.1.1.1 0-.1 0 0-.1.2-.1.1 0 .3 0l-.1.1c.2 0 .4-.1.6-.1 0 .1.2.1 0 .1.1 0 .2.3.3.2l-.1-.3s.1 0 .1 0c.1.1.2.1.3.1 0 .1-.1.1-.2 0 0 .1.3.1.2.2.2 0 0-.1.1-.1h.2-.1c.1 0 .2-.1.3-.1l.2-.1c0 .1.1 0 .2 0l-.1.1c.1 0 .2 0 .2.1-.1.1-.1 0-.1.1h.1c0-.1.1-.1 0-.1.1-.1.2-.2.5-.2.1.1-.2.1-.1.2.3.1.4-.3.6-.2.2 0 .2 0 .5-.1-.1.1.2.1.2.1l-.1.1c.1 0 .1 0 .1.1 0-.1.3-.1.5-.1V79c.1 0 .3-.1.5-.1s.2-.1.3-.2c.1.1.1.2 0 .3-.1 0-.1 0-.2 0-.3.1-.5.2-.7.2-.1.2.2 0 .3.1-.1 0-.2.1-.3.2.2 0 .1-.2.3-.1.1-.1.3.1.3.1.1-.1.1-.2.3-.2l-.1.1c.3 0 .1-.2.4-.2-.1 0 .1-.1-.1-.1.1-.1.3-.1.4 0 0 0 0 0 0-.1-.1-.1-.2.1-.4 0l-.1.1c-.1 0-.2-.2-.1-.2 0 0-.1 0-.1 0 0-.2.2.1.2-.1h-.1c0-.1.2-.1.4-.1.1.1.3.1.3.2h-.2c.1.1.2 0 .4 0 0 0 0 0 .1 0s.2-.1.3 0v-.1c-.1 0-.2-.1-.1-.1.2-.1.2.1.3.2 0 .1-.2 0-.3 0 .1.1.2 0 .4.1-.1.1-.2 0-.3.1.2 0 .2-.1.4 0 0 .1-.2.1-.2.2h.1c-.3 0 0 .2-.2.2.1.1.1-.1.3 0 0-.1-.2-.2 0-.2h.2c.1.1-.2.2-.1.2h.2s-.1-.1 0-.1c.1.1.2-.2.3-.2.1 0 .2 0 .2.1.2-.1.5-.1.7-.2-.1.1 0 .2.1.2-.2 0-.2.2-.2.3.1 0 .2-.2.1-.2.2.1.1-.1.3 0 .1.1 0 .1 0 .2.2 0 0-.2.2-.1 0 0 0 0 0 .1.1 0 .2 0 .2-.1.1.2.3 0 .3.2.3 0 0-.1 0-.2.1-.1.3 0 .4 0-.1 0-.1.1-.2 0l.1.1c.3.1.2-.3.5-.2-.2.1-.1.1-.1.2 0 0 .3 0 .1-.1.1 0 .2 0 .3.1.1 0 .2-.1.3-.2.2 0 .3.1.4.2.3-.1.6.1 1 0 .3 0-.1-.2.2-.2 0 .2.2.1.3.2.4.1.6-.1.9 0 0 0 0 .1-.1.1.2.1.4 0 .7.1.4.2.7 0 1.1 0 0 0 0 .1-.1.1.2 0 .5.1.6-.1.2.2.1-.1.4.1.1.1.2.1.4.1.3-.1.4-.4.8-.3 0 .3-.2.1-.2.3.1 0 .1-.1.2 0-.1.1 0 .1-.1.2.1.1.3-.3.3-.3 0-.1 0-.1-.1-.1.1-.2.4 0 .5-.1-.1 0-.2-.1-.2-.2.2.1.3-.2.5-.3.2.1-.2.2-.1.4 0 .1.1.2 0 .3.2 0 .3-.1.5-.2v.1c.2 0 .5-.3.7-.1l-.1-.1s.2 0 .2-.1c0 .1.2.2.1.3.1-.3.6-.2.7-.5.1.1 0 .2 0 .3-.2 0-.2-.1-.3 0 .1 0 .2.1.2.2.1-.2.4-.3.5-.5.1.1.2.2.1.3.4-.1-.2-.5.2-.5.2.2-.2.2.1.3h-.1c.2.4.1-.3.4-.3 0 .2-.2.2 0 .3.2-.1.3-.4.5-.3v.1c.1 0 .4 0 .5 0 0 0 0 0 0 .1.2.1.1-.1.3 0l.1-.1c-.1-.1-.3-.2-.4-.1.1-.1-.2-.3-.1-.5v.1c-.3-.4-.8-.4-1.2-.5-.3.2-.5-.1-.7.1 0 .3-.1.1-.3.1.1 0 0-.2-.1-.2 0 .1-.1.1-.2.1 0-.1-.4-.3-.5-.1-.1-.1 0-.1.1-.1-.1-.1-.1.1-.2 0-.2 0-.4-.1-.6-.1 0 .3-.2.1-.3.2 0-.1-.1-.1-.2-.1l-.1.2c-.1.2-.2-.1-.3 0-.1.1-.4-.1-.6-.2-.6.3-1 .2-1.4.1-.4-.1-.9-.2-1.5-.2-.1.1.1.1 0 .2-.1 0-.1 0-.3 0 .1.1.1 0 .1 0l.2-.1s0 0 0 .1c.1 0 .1-.1.2-.1-.1.1-.1.2-.3.2 0 0 0 0 .1 0-.1 0-.1.1-.2 0-.1 0-.1 0-.1-.1l-.3-.1c-.2.2-.4 0-.4 0 0-.1.2 0 .3-.2l-.1-.1v.1h-.2s0 .1-.1.1c0 0 0 0 0-.1l-.1.1c.1-.1-.1 0-.1-.2-.4-.1-.5.2-.8 0 .1.1-.1.2-.2.2s-.1-.1 0-.1l-.1.1c-.2-.2-.3-.1-.6-.1v-.1c-.1.1-.2.1-.3.1v-.1c-.2-.1-.1.2-.3.2 0 .1.1.2.1.3 0-.1-.3-.1-.2 0-.2.1-.1 0-.1 0l-.1.1c-.1 0 0-.2 0-.2-.1.1-.3 0-.4 0l.1-.1h-.2c-.1.1-.3.1-.5.1l.1-.2c-.1-.1-.1.1-.1.1-.2.1-.2 0-.3-.1-1 0-1.3-.4-1.6-.1zm-19.3.8zm1.6 0c-.2 0-.1 0-.1 0 .2 0 .3 0 .4 0 .1 0 .1 0 .2 0-.2 0-.6-.1-.5 0zm-3.5.1zm.9 0c.1 0 0 0 0 0zm1.8.1s.1 0 .2 0c0 0 0 0-.2 0zm11.6.1c-.1.1-.2.1 0 0 0 .1.1.1.1.1-.1 0-.1-.1-.1-.1zm5.4-.3c0 .1-.1.1 0 .2 0 0 .1 0 .1 0 0-.2.1-.2-.1-.2zM44 79.4zM45.9 78.9s0 0-.1-.1c0 0 0 .1.1.1zM23.1 78.7c-.2 0-.2 0-.3 0 .2 0 .3 0 .5 0h-.2zM23.2 78.8s.1 0 0 0h.1-.1zM25.3 78.9h-.2c0-.1.2 0 .2 0zM24.6 78.7s.1 0 .1 0c-.1 0 0 0-.1 0zM25.8 78.9c.1 0 .2 0 .2 0-.1 0-.2-.1-.2 0zM25.7 78.7c-.1 0-.1 0-.3 0 .1 0 .2 0 .3 0zM26.7 78.8s-.1 0-.2 0c.1 0 .1 0 .2 0-.2 0-.2 0-.3 0 .1 0 .2.1.3 0 0 .1.1 0 0 0zM25.9 78.7c-.1 0-.1 0-.3 0 .1 0 .1 0 .3 0h-.1c.1 0 0 0 .1 0zM27.2 78.9c-.2 0-.3 0-.4 0 .1 0 .3 0 .4 0zM26.4 78.7c-.2 0 0 0 0 0-.1 0-.1 0-.1 0 .1 0-.1 0 .1 0zM26.8 78.7h.2-.2c-.2-.1 0 0 0 0zM27 78.7h.3c-.2 0-.2 0-.3 0zM29.9 78.9s-.1 0 0 0c-.1 0 .1.1 0 0zM29.3 78.6c.1 0 .3 0 .4 0-.1 0-.4 0-.4 0zM29.7 78.6zM33.9 78.3zM33.8 78.3c-.1 0-.2 0-.2 0 .1.1.2.1.2 0zM34.7 78.3s-.1 0-.1 0c.1.1.2 0 .1 0zM41.1 79.4c.1 0 .1 0 .1-.1-.1 0 0 .1-.1.1zM41.4 79.3v.1zM42 79.4c0 .1 0 .1 0 0 0 .1 0 .1 0 0zM41.9 79.5zM41.9 79.5zM42.2 79.5l-.1-.1c-.1 0 .1.1 0 .2l.1-.1zM42.6 79.5c.1 0 .3-.1.3 0 .3-.1-.1-.2.3-.3-.4-.1-.2.2-.5.2.2 0-.1 0-.1.1zM42.5 79.2c0 .1.1.1.2 0 0 .1-.1 0-.2 0zM43.2 79.4l.1.1.1-.1zM43.6 79.5c-.1 0 .1 0 0 0zM44.1 79.6c.1 0 .2-.1 0-.1 0 0 .2.1 0 .1zM45.3 79.3c-.1 0-.1 0-.1.1l.1-.1zM45.3 78.9c-.1-.1-.2 0-.3 0 .2 0 .2 0 .3 0zM45.5 79.5s-.1 0-.2 0c.1.1.2 0 .2 0zM45.8 79.5c.1 0 0 0 0 0 .2.2.3.2.3.1s-.1-.2 0-.2c-.2-.1-.3.1-.3.1l-.2.1c.1 0 .1-.2.2-.1zM45.4 79.1l.1.1c0-.1.1-.1.1-.1 0-.2-.1 0-.2 0zM46.9 79.4h.2l-.1-.1zM47 79.4v.1l.2-.1zM47.3 79.5h-.2zM47.7 79.5c-.1-.1-.2-.1-.2 0 .1 0 .2 0 .2 0zM49.2 77.8s0 .1 0 .1v-.1c.1 0 0 0 0 0zM49.5 78l.2-.1c-.2 0-.2.1-.4.1 0 0 .1-.1.2 0zM52.7 78c0 .1 0 .1-.1.2.2-.1.3 0 .5-.1 0-.1.1-.2 0-.1h-.2v-.1c-.1 0 0 .2-.2.1zM61.2 79.1c0 .1 0 .1 0 .2.2 0 0-.1 0-.2zM218.4 78.8c.1 0 0 0 0 0zM218.3 78.8zM217.7 78.8c.1 0 .3 0 .4 0-.2 0-.4 0-.4 0zM217.9 78.8h-.1zM218 78.8h-.2zM217.2 78.8h.1c.1 0-.1 0 0 0 .2 0 .1 0 .3 0 0 0-.4 0-.3 0-.2 0 0 0-.1 0zM208.6 78.5zM206.2 78.4c0 .1-.1.1 0 0-.1.1-.1 0 0 0zM210 78.7c.1 0 .1 0 0 0 .1 0 .1 0 0 0zM195 79zM203.6 78.3s-.1 0-.1 0c0-.1 0-.1.1 0zM210.9 78.7zM207 78.4c-.1 0-.1 0 0 0-.1 0-.1 0 0 0zM215 78.8s-.1 0-.1 0 .1 0 .1 0zM214.2 78.8zM213.6 78.8zM214.9 78.8c-.1 0-.1 0-.2 0s-.1 0-.2 0c0 0 .1 0 .1 0 .2 0 .2 0 .3 0zM208.6 78.6c0-.1 0 0 0 0zM209.3 78.6zM212 78.7c0-.1 0 0 0 0zM209.2 78.6zM211.2 78.7zM183.7 79.9c.1 0 .1 0 .1-.1.2.2-.2 0-.1.1 0 .1 0 .1 0 0v-.1c.1 0-.1 0 0 .1zM194.3 79.2s0 .1 0 0c-.1 0 0-.1-.2-.2 0 0 .1 0 .1 0 0 .1 0 .1.1.2zM194.2 79c.1 0 .1 0 0 0 .1 0 .1 0 0 0 .1 0 .1 0 0 0zM185.5 79.8c.1 0 .1 0 0 0 .1 0 0 0 0 0zM203.7 79.1c0 .1.1.1 0 0 .1.1 0 .1 0 0zM195.6 79.1c.1 0 .1 0 .1 0h-.1zM191.3 77.9c0 .1 0 0-.1.1l-.1-.1s.1 0 .2 0zM183.6 80c0-.1 0-.1 0 0zM188.7 77.8zM194.8 78.9h.3-.1c-.1 0-.2.1-.2 0zM191.9 77.8c-.1.1-.1.2-.3.1 0 0 0-.2-.1-.1l.1.2c-.2 0-.3 0-.5-.1h-.2l.1.1c-.1 0-.3.1-.4 0 0 .1.1.2 0 .2l-.1-.1s0 .1-.1 0c0-.1-.2-.1-.2 0 0-.1.1-.2.1-.3-.2.1-.2-.2-.3-.2v.1c-.1 0-.2 0-.3-.1v.1c-.3.1-.4-.1-.6.1l-.1-.1c0 .1 0 .1 0 .1-.1 0-.3-.1-.2-.2-.3.2-.5-.1-.8 0 0 .1-.2 0-.1.2l-.1-.1s0 0 0 .1c0 0-.1 0-.1-.1h-.2v-.1l-.1.1c.1.1.3 0 .3.2-.1 0-.3.2-.4 0l-.3.1c0 .1 0 0-.1.1-.1 0-.1 0-.2 0 0 0 .1 0 .1 0-.1.1-.2-.1-.3-.2.1 0 .1 0 .2.1 0 0 0 0 0-.1l.2.1c0-.1 0 0 .1 0-.1 0-.1 0-.3 0-.1-.1.1-.1 0-.2-.6-.1-1 .1-1.5.2-.4.1-.9.2-1.4-.1-.1.1-.4.3-.6.2-.2-.1-.2.2-.3 0l-.1-.2c-.1 0-.2.1-.2.1-.1-.1-.3.1-.3-.2-.2 0-.4.1-.6.1 0 .1-.1-.2-.2 0 0 .1.2.1.1.1-.1-.2-.4 0-.5.1-.1 0-.1-.1-.2-.1s-.2.2-.1.2c-.2-.1-.3.2-.3-.1-.3-.2-.5.2-.7-.1-.4.1-.9.2-1.2.5v-.1c.1.2-.3.4-.1.5-.1-.1-.3 0-.4.1l.1.1c.2-.2.1 0 .3 0 0 0 0 0 0-.1.1 0 .4 0 .5 0v-.1c.2-.1.3.3.5.3.2-.2 0-.1 0-.3.2 0 .2.7.4.3h-.1c.3-.1-.1-.1.1-.3.4 0-.1.4.2.5 0-.2.1-.2.1-.3.1.2.4.3.5.5 0-.1.1-.2.2-.2-.1-.1-.1-.1-.3 0 0-.1-.1-.2 0-.3.1.3.6.2.7.5-.1-.1.1-.2.1-.3.1.1.2.1.2.1l-.1.1c.2-.1.5.1.7.1v-.1c.2 0 .3.2.5.2-.1-.1 0-.2 0-.3 0-.2-.3-.3-.1-.4.2.1.2.4.5.3.1.1-.1.2-.2.2.2.1.4-.1.5.1-.1 0-.1 0-.1.1 0 0 .2.3.3.3 0-.1 0-.1-.1-.2.1-.1.2 0 .2 0 0-.2-.2 0-.2-.3.4-.1.4.2.8.3.1 0 .2 0 .4-.1 0 0-.1 0 0 0 .3-.2.2.1.4-.1.1.2.4.1.6.1 0 0 0-.1-.1-.1.4 0 .7.2 1.1 0 .2 0 .4 0 .7-.1-.1 0-.1 0-.1-.1.3-.1.6.1.9 0 .1-.1.3 0 .3-.2.3 0-.1.2.2.2.4.1.7-.1 1 0 .1-.1.2-.2.4-.2.1.1.2.1.3.2.1 0 .2-.1.3-.1-.1.1.1.1.1.1-.1-.1 0-.1-.1-.2.3-.1.2.3.5.2l.1-.1c-.1 0-.1 0-.2 0 .1 0 .3-.1.4 0 .1.1-.2.1 0 .2 0-.2.2 0 .3-.2 0 .1.1.1.2.1 0 0 0 0 0-.1.2 0 .1.1.2.1 0-.1-.1-.1 0-.2s.1.1.3 0c-.1 0 0 .2.1.2 0-.1 0-.2-.2-.3.1-.1.2-.1.1-.2.2.1.5.1.7.2 0-.1.1-.1.2-.1.1.1.2.3.3.2 0 .1 0 .1 0 .1h.2c.1-.1-.1-.1-.1-.2h.2c.1.1 0 .2 0 .2.1-.1.2.1.3 0-.2 0 .1-.2-.2-.2h.1c0-.1-.2-.1-.2-.2.2 0 .2.1.4 0 0-.1-.2 0-.3-.1.2-.1.4 0 .4-.1-.1 0-.3.1-.3 0s.1-.2.3-.2c.1.1-.1.1-.1.1v.1c.1 0 .2 0 .3 0 0 0 0 0 .1 0s.3.1.4 0h-.2c0-.1.1-.1.3-.2.1 0 .4 0 .4.1h-.1c0 .2.2-.1.2.1 0 0-.1 0-.1 0 .1.1.1.2-.1.2l-.6.1c-.1.1-.2 0-.4 0 0 0 0 .1 0 .1.1 0 .3 0 .4 0-.2 0 0 .1-.1.1.2 0 .1.2.4.2l-.1-.1c.2 0 .2.1.3.2.1 0 .2-.2.3-.1.2-.1.2.1.3.1 0-.1-.2-.1-.3-.2.1-.1.4.1.3-.1-.3 0-.5-.1-.7-.2-.1 0-.2 0-.2 0 0-.1 0-.2 0-.3.2.1.1.2.3.2.1 0 .3 0 .5.1v.1c.2 0 .5 0 .5.1 0-.1 0-.1.1-.1l-.1-.1c0-.1.3-.1.2-.1.2 0 .2.1.5.1.2 0 .3.3.6.2.1-.1-.2-.1-.1-.2.3 0 .4.1.5.2-.1 0 0 .1 0 .1h.1c0-.1-.1 0-.1-.1.1 0 .1-.1.2-.1l-.1-.1c.1 0 .2.1.2 0l.2.1c.2-.1.2 0 .3.1h-.1.2c.1 0-.1.1.1.1-.1-.1.2-.1.2-.2-.1 0-.2 0-.2 0 .1 0 .2-.1.3-.1 0 0 .1 0 .1 0l-.1.3c.1.1.2-.2.3-.2-.2 0 0 0 0-.1.2.1.4.2.6.1l-.1-.1c.1.1.1-.1.3 0 .1 0-.1 0 0 .1.7 0 1.5-.1 2.1-.1 0-.1.3-.1.4-.1.1 0 0 .1-.1 0 .1 0 .2 0 .3 0 .1-.1.2-.1.3 0 0 0 0-.1-.2 0 .1 0-.2-.1 0-.1.3.1.5.2.8.2.2 0 .3 0 .3 0 .1 0 .1 0 .1 0 .1 0 .1-.1 0-.1.3 0 .4.1.8.1.1 0 0-.1.2-.1.5 0 .9.1 1.5 0l.1-.1.1.1c.5-.1 1-.1 1.5-.1-.1 0-.1 0-.1 0 .2 0 .4.1.5.1 0 0 0 0 0-.1.2 0 .3.1.5.1 0 0-.1 0 0 0h.1c-.1 0 .1 0 0 0 0 0-.1 0-.1 0s.1 0 .2 0 .1 0 .1 0c.1 0 0 0 0 0 .1 0 .1 0 .2 0 0 0 0 0-.1 0 .1 0 .3 0 .4-.1h.1c.4.1 1 0 1.5 0h.4c-.2 0-.5 0-.6 0h.1s-.1 0-.2 0h.1c.2 0 .1.1.3 0-.2 0 .1 0-.1 0 .1 0 .1 0 .2 0-.1 0-.1 0-.2 0 0 0 .3 0 .3 0s.1 0 .1 0c.1 0 .1 0 .1 0s0 0 .1 0c0 0 .1 0 .2 0 0 0-.1 0-.1 0 .2 0 .4 0 .7 0-.1 0-.1 0-.2 0 0 0 .1 0 .1 0s.1 0 .1 0h-.1c.1 0 .1 0 .2 0 0 0 .1 0 .1 0s-.1 0-.1 0c.1 0 .1 0 .2 0 0 0 0 0 .1 0 .2 0 .2 0 .3 0 .1 0 .5 0 .6 0h-.2c.1 0-.2 0-.1 0h.3c-.2 0 .2 0 .2 0 .1 0 .2 0 .3 0 .1 0-.1 0 0 0s.1 0 .2 0 .1 0 .2 0 .2 0 .2 0h.3s-.2 0-.1 0c-.1 0-.5 0-.5 0 .1 0 .2 0 .3 0 0 0 .2 0 .3 0 .2 0 0 0 .2 0 0 0 0 0 .1 0 0 0 .1 0 .1 0s.2 0 .3 0c-.1 0-.1 0 0 0-.2 0-.1 0-.3 0 .1 0 .2 0 .1 0s-.2 0-.4 0h.1s-.3 0-.3 0 .1 0 .1 0-.2 0-.2 0h.1c-.2 0-.2 0-.4 0 0 0 .3 0 .2 0 0 0-.1 0-.2 0h-.1c-.1 0-.3 0-.4 0 .1 0 .1 0 .2 0-.2 0-.3 0-.4 0h.1c-.1 0-.2 0-.3 0-.1 0 .1 0 .1 0-.1 0-.2 0-.2 0-.1 0-.2 0-.2 0-.1 0 0 0-.1 0s-.3 0-.3 0 .2 0 .1 0c0 0-.1 0-.2 0 .2 0-.2 0-.1 0-.2 0-.2 0-.3 0h-.2s.1 0-.1 0c-.1 0-.1-.1-.3-.1-.1 0-.3 0-.3 0s.1 0 .2 0c-.1 0 .2 0 0 0 .1 0-.3 0-.4.1-.1 0-.2 0-.3 0 0 0 .1 0 .1 0-.3 0-.4 0-.7 0 0 0 0 0-.1 0 0 0-.1 0-.1 0h-.2s0 0-.1 0c0 0 0 0 .1 0h-.1s-.1 0-.1 0-.1 0-.2 0c0 0 0 0 .1 0-.1 0-.2 0-.3 0 0 0 0 0 .1 0 0 0 0 0-.1 0s-.1 0 0 0c-.1 0-.1 0-.3 0h.1s-.1 0-.1 0c-.1 0-.4 0-.5 0-.1 0-.1-.1-.3-.1h-.2s-.1 0-.2 0c-.1.1-.3 0-.3 0s-.1 0-.1 0-.2 0-.3 0c-.1 0-.1 0-.3 0-.2 0 .1.1-.2.1h-.1c-.1 0-.2 0-.2 0 .2 0 .2 0 .4-.1-.2 0-.2-.1-.4-.1 0 0 0 0 .1 0-.1 0-.2 0-.1 0-.1 0-.1 0-.2-.1v-.1c-.2 0-.3 0-.5 0 .1 0 .3.1.4.1-.1.1.4 0 .5.1-.1 0 .1.1-.1.1-.1 0-.2 0-.3 0-.1 0 .1.1-.1.1.1 0-.1-.1.1-.1-.3-.1-.4 0-.6-.1.2 0-.1-.1 0-.1 0 .1.4.1.1.1h.2s-.2 0 0-.1c-.2 0-.2 0-.4-.1 0 0-.2 0-.2.1-.1 0-.2-.1-.2 0h.1c-.1 0-.1 0-.2.1-.1 0-.1 0 0-.1-.2 0-.4 0-.5 0 .2 0 0 .1.2.1h-.1c-.3-.1-.7-.2-.7-.3-.3-.1-.2.1-.6 0 .1 0 0 .1 0 .1-.1 0-.2 0-.2 0h.2c-.2-.1-.4 0-.6 0 0 0 0 .1.1.1 0 0-.1 0-.2 0s0-.1-.2-.2c-.9 0-1.8-.1-2.7-.1-.9 0-1.8-.1-2.7-.1-.6-.1-1.2-.1-1.8-.1-.6 0-1.2 0-1.8 0-.4.2-.2-.3-.6 0-.3-.3-.6 0-1-.2v.1c-.6-.3-.9.1-1.1-.1zm20.1.9zm-2 0s.1 0 .2 0c.2 0 .3 0 .4 0 0 0 0 0-.1 0 0-.1-.4 0-.5 0zm3.9.1zm-1 0c.1 0 .1 0 0 0 .1 0 0 0 0 0zm-1.9.1c.1 0 .2 0 .2 0-.2 0-.2 0-.2 0zm-11.5.2c0 .1.1 0 .2 0s0-.1-.1-.1c0 0 0 .1-.1.1zm-5.4-.2s.1 0 .1 0 0-.1 0-.2c-.2 0-.1 0-.1.2zM196 79.4zM194.1 78.9s0 0 .1-.1c0 0 0 .1-.1.1zM216.9 78.7c.2 0 .2 0 .3 0-.2 0-.3 0-.5 0h.2zM216.8 78.8s-.1 0 0 0h-.1.1zM214.7 78.9h.2c0-.1-.2 0-.2 0zM215.4 78.7s-.1 0-.1 0c.1 0 0 0 .1 0zM214.2 78.9c-.1 0-.2 0-.2 0 .1 0 .2-.1.2 0zM214.3 78.7c.1 0 .1 0 .3 0-.1 0-.2 0-.3 0zM213.3 78.8s.1 0 .2 0c-.1 0-.1 0-.2 0 .2 0 .2 0 .3 0-.1 0-.2.1-.3 0 0 .1-.1 0 0 0zM214.1 78.7c.1 0 .1 0 .3 0-.1 0-.1 0-.3 0h.1c-.1 0 0 0-.1 0zM212.8 78.9c.2 0 .3 0 .4 0-.1 0-.3 0-.4 0zM213.6 78.7c.2 0 0 0 0 0 .1 0 .1 0 .1 0-.1 0 .1 0-.1 0zM213.2 78.7h-.2.2c.2-.1 0 0 0 0zM213 78.7h-.3c.2 0 .2 0 .3 0zM210.1 78.9s.1 0 0 0c.1 0-.1.1 0 0zM210.7 78.6c-.1 0-.3 0-.4 0 .1 0 .4 0 .4 0zM210.3 78.6zM206.1 78.3zM206.2 78.3c.1 0 .2 0 .2 0-.1.1-.2.1-.2 0zM205.3 78.3s.1 0 .1 0c-.1.1-.2 0-.1 0zM198.9 79.4c-.1 0-.1 0-.1-.1.1 0 0 .1.1.1zM198.6 79.3v.1zM198 79.4c0 .1 0 .1 0 0 0 .1 0 .1 0 0zM198.1 79.5zM198.1 79.5zM197.8 79.5l.1-.1c.1 0-.1.1 0 .2l-.1-.1zM197.4 79.5c-.1 0-.3-.1-.3 0-.3-.1.1-.2-.3-.3.4-.1.2.2.5.2-.2 0 .1 0 .1.1zM197.5 79.2c0 .1-.1.1-.2 0 0 .1.1 0 .2 0zM196.8 79.4l-.1.1-.1-.1zM196.4 79.5c.1 0-.1 0 0 0zM195.9 79.6c-.1 0-.2-.1 0-.1 0 0-.2.1 0 .1zM194.7 79.3c.1 0 .1 0 .1.1l-.1-.1zM194.7 78.9c.1-.1.2 0 .3 0-.2 0-.2 0-.3 0zM194.5 79.5s.1 0 .2 0c-.1.1-.2 0-.2 0zM194.2 79.5c-.1 0 0 0 0 0-.2.2-.3.2-.3.1s.1-.2 0-.2c.2-.1.3.1.3.1l.2.1c-.1 0-.1-.2-.2-.1zM194.6 79.1l-.1.1c0-.1-.1-.1-.1-.1 0-.2.1 0 .2 0zM193.1 79.4h-.2l.1-.1zM193 79.4v.1l-.2-.1zM192.7 79.5h.2zM192.3 79.5c.1-.1.2-.1.2 0-.1 0-.2 0-.2 0zM190.8 77.8s0 .1 0 .1v-.1c-.1 0 0 0 0 0zM190.5 78l-.2-.1c.2 0 .2.1.4.1 0 0-.1-.1-.2 0zM187.3 78c0 .1 0 .1.1.2-.2-.1-.3 0-.5-.1 0-.1-.1-.2 0-.1l.2.1V78c.1-.1 0 .1.2 0zM178.8 79.1c0 .1 0 .1 0 .2-.2 0 0-.1 0-.2z" class="st0"/></svg>