<?xml version="1.0" encoding="utf-8"?>
<!-- Generator: Adobe Illustrator 21.0.2, SVG Export Plug-In . SVG Version: 6.00 Build 0)  -->
<svg version="1.1" id="Layer_1" xmlns="http://www.w3.org/2000/svg" xmlns:xlink="http://www.w3.org/1999/xlink" x="0px" y="0px"
	 viewBox="0 0 820 20" style="enable-background:new 0 0 820 20;" xml:space="preserve">
<style type="text/css">
	.st0{fill:#8B6E4A;}
	.st1{opacity:0.3;fill:#8B6E4A;}
</style>
<path class="st0" d="M420.9,6.6c0,2-0.4,4-1.3,6.3c-0.9,2.2-2.3,4.5-4.2,6.8l-2.3-1.7c0.3-0.4,0.7-1,1.1-1.7s0.8-1.5,1.1-2.3
	s0.6-1.8,0.9-2.7s0.4-1.9,0.4-2.7c-0.3,0.1-0.5,0.2-0.7,0.2c-0.2,0-0.4,0-0.6,0c-0.5,0-1-0.1-1.5-0.2c-0.5-0.2-0.9-0.4-1.3-0.7
	s-0.7-0.7-0.9-1.2s-0.4-1.1-0.4-1.8c0-0.6,0.1-1.2,0.3-1.7c0.2-0.5,0.5-1,0.9-1.4s0.9-0.7,1.4-1c0.5-0.2,1.2-0.4,1.8-0.4
	c0.9,0,1.7,0.2,2.3,0.5s1.2,0.8,1.7,1.3c0.4,0.6,0.8,1.2,1,2C420.8,4.9,420.9,5.7,420.9,6.6z M408.9,6.6c0,2-0.4,4-1.3,6.3
	c-0.9,2.2-2.3,4.5-4.2,6.8l-2.3-1.7c0.3-0.4,0.7-1,1.1-1.7s0.8-1.5,1.1-2.3s0.6-1.8,0.9-2.7s0.4-1.9,0.4-2.7
	c-0.3,0.1-0.5,0.2-0.7,0.2c-0.2,0-0.4,0-0.6,0c-0.5,0-1-0.1-1.5-0.2c-0.5-0.2-0.9-0.4-1.3-0.7s-0.7-0.7-0.9-1.2s-0.4-1.1-0.4-1.8
	c0-0.6,0.1-1.2,0.3-1.7c0.2-0.5,0.5-1,0.9-1.4s0.9-0.7,1.4-1c0.5-0.2,1.2-0.4,1.8-0.4c0.9,0,1.7,0.2,2.3,0.5s1.2,0.8,1.7,1.3
	c0.4,0.6,0.8,1.2,1,2C408.8,4.9,408.9,5.7,408.9,6.6z"/>
<rect x="452" y="9.5" class="st1" width="368" height="1"/>
<rect y="9.5" class="st1" width="368" height="1"/>
</svg>
