<?xml version="1.0" encoding="utf-8"?>
<!-- Generator: Adobe Illustrator 21.0.2, SVG Export Plug-In . SVG Version: 6.00 Build 0)  -->
<svg version="1.1" id="Layer_1" xmlns="http://www.w3.org/2000/svg" xmlns:xlink="http://www.w3.org/1999/xlink" x="0px" y="0px"
	 viewBox="0 0 820 20" style="enable-background:new 0 0 820 20;" xml:space="preserve">
<style type="text/css">
	.st0{fill:#8B6E4A;}
	.st1{opacity:0.3;fill:#8B6E4A;}
</style>
<path class="st0" d="M399.1,13.4c0-2,0.4-4,1.3-6.3c0.9-2.2,2.3-4.5,4.2-6.8l2.3,1.7c-0.3,0.4-0.7,1-1.1,1.7s-0.8,1.5-1.1,2.3
	s-0.6,1.8-0.9,2.7s-0.4,1.9-0.4,2.7c0.3-0.1,0.5-0.2,0.7-0.2c0.2,0,0.4,0,0.6,0c0.5,0,1,0.1,1.5,0.2c0.5,0.2,0.9,0.4,1.3,0.7
	s0.7,0.7,0.9,1.2s0.4,1.1,0.4,1.8c0,0.6-0.1,1.2-0.3,1.7c-0.2,0.5-0.5,1-0.9,1.4s-0.9,0.7-1.4,1c-0.5,0.2-1.2,0.4-1.8,0.4
	c-0.9,0-1.7-0.2-2.3-0.5s-1.2-0.8-1.7-1.3c-0.4-0.6-0.8-1.2-1-2C399.2,15.1,399.1,14.3,399.1,13.4z M411.1,13.4c0-2,0.4-4,1.3-6.3
	c0.9-2.2,2.3-4.5,4.2-6.8l2.3,1.7c-0.3,0.4-0.7,1-1.1,1.7s-0.8,1.5-1.1,2.3s-0.6,1.8-0.9,2.7s-0.4,1.9-0.4,2.7
	c0.3-0.1,0.5-0.2,0.7-0.2c0.2,0,0.4,0,0.6,0c0.5,0,1,0.1,1.5,0.2c0.5,0.2,0.9,0.4,1.3,0.7s0.7,0.7,0.9,1.2s0.4,1.1,0.4,1.8
	c0,0.6-0.1,1.2-0.3,1.7c-0.2,0.5-0.5,1-0.9,1.4s-0.9,0.7-1.4,1c-0.5,0.2-1.2,0.4-1.8,0.4c-0.9,0-1.7-0.2-2.3-0.5s-1.2-0.8-1.7-1.3
	c-0.4-0.6-0.8-1.2-1-2C411.2,15.1,411.1,14.3,411.1,13.4z"/>
<rect y="9.5" class="st1" width="368" height="1"/>
<rect x="452" y="9.5" class="st1" width="368" height="1"/>
</svg>
