<?xml version="1.0" encoding="utf-8"?>
<!-- Generator: Adobe Illustrator 21.0.2, SVG Export Plug-In . SVG Version: 6.00 Build 0)  -->
<svg version="1.1" id="Layer_1" xmlns="http://www.w3.org/2000/svg" xmlns:xlink="http://www.w3.org/1999/xlink" x="0px" y="0px"
	 viewBox="0 0 240 120" style="enable-background:new 0 0 240 120;" xml:space="preserve">
<style type="text/css">
	.st0{fill:#FFFFFF;}
</style>
<g>
	<g>
		<g>
			<path class="st0" d="M11.9,43.3c0.9-0.2,1.3-0.3,2.2-0.6c0.4-0.1,0.9-0.3,1.7-0.6c0.4-0.1,0.5-0.2,0.9-0.3
				c0.5-0.2,0.8-0.1,0.9,0.3c0,0.1,0,0.3-0.1,0.4c-0.1,0.1-0.2,0.2-0.3,0.3c-0.1,0.3-0.2,0.4-0.3,0.6c-0.2,0.3-0.2,0.4-0.2,0.6
				c-0.1,1.1,0,2.5,0.4,3.9c0.3,0.9,0.5,1.8,0.9,2.7c0.1,0.5,0.2,0.8,0.3,1.3c0.1,0.4,0.2,0.5,0.3,0.9c0.1,0.5,0.2,0.7,0.3,1.2
				c0.1,0.3,0.1,0.4,0.2,0.7c0,0.1,0.1,0.3,0.1,0.8c0,0.1,0,0.3,0.1,0.6c0.1,0.2,0.2,0.5,0.3,0.8c0.1,0.4,0.2,0.7,0.3,0.8
				c0.1,0.3,0.2,0.5,0.3,0.8c0,0.1,0.1,0.4,0.1,0.9c0,0.1,0,0.1,0.1,0.2c0.3,1,0.9,1.3,1.9,1c0.2-0.1,0.6-0.2,1.1-0.4
				c0.4-0.1,0.8-0.2,1.3-0.4c0.1,0,0.2-0.1,0.3-0.1c0.3-0.1,0.5-0.1,0.8-0.2c0.2,0,0.4-0.4,0.7-1c0.4-0.8,0.6-1.3,0.7-1.5
				c0.2-0.9,0.4-1.4,0.6-1.5c0.2-0.1,0.4,0.1,0.4,0.4c0.1,0.5,0.1,0.8,0.2,1.3c0.1,0.4,0.2,0.6,0.4,1c0,0.1,0.1,0.2,0.1,0.4
				c0.1,0.2,0.1,0.3,0.2,0.5c0.1,0.5,0,0.9-0.2,1.1c-0.2,0.1-0.6,0.2-1.2,0.4c-0.3,0.1-0.5,0.1-0.8,0.2c-0.8,0.2-1.3,0.3-2.1,0.5
				c0,0-0.1,0-0.1,0c0,0-0.1,0.1-0.3,0.1c-0.1,0-0.2,0.1-0.3,0.1c-0.1,0-0.2,0-0.3,0.1c-0.3,0.1-0.6,0.2-0.8,0.3
				c-0.5,0.1-1,0.3-1.7,0.3c-0.3,0-0.5,0.1-0.7,0.1c-0.3,0.1-0.9,0.3-1.8,0.6c0,0-0.1,0-0.2,0.1c-0.1,0-0.2,0.1-0.5,0.2
				c-0.2,0.1-0.4,0.2-0.6,0.3c-0.1,0-0.1,0.1-0.2,0.1c-0.5,0.1-0.8,0.1-0.9-0.2c-0.1-0.2,0-0.5,0.1-0.7c0.1-0.2,0.3-0.4,0.5-0.7
				c0.4-0.6,0.5-1.4,0.3-2.2c-0.1-0.4-0.2-1.3-0.6-2.7c-0.2-0.5-0.2-0.8-0.4-1.3c0-0.1-0.1-0.3-0.1-0.4c0-0.2-0.1-0.3-0.1-0.4
				c0-0.1-0.1-0.3-0.1-0.4c0-0.1-0.1-0.2-0.1-0.3c0,0,0-0.1,0-0.1c-0.1-0.5-0.3-1.1-0.4-1.9c0,0,0-0.2-0.1-0.3c0,0,0,0-0.1-0.1
				c0-0.1,0-0.2-0.1-0.3c0-0.1-0.1-0.2-0.1-0.4c0-0.1-0.1-0.3-0.2-0.4c-0.1-0.2-0.1-0.3-0.1-0.5c-0.4-1.3-0.5-1.9-0.9-3.2
				c-0.1-0.3-0.2-0.4-0.3-0.7c-0.1-0.1-0.1-0.3-0.2-0.5c-0.1-0.2-0.1-0.4-0.2-0.6c-0.1-0.1-0.4-0.3-0.6-0.5
				c-0.2-0.2-0.3-0.2-0.5-0.4c-0.1,0-0.2-0.1-0.4-0.1c-0.2,0-0.4,0-0.6-0.1c-0.2,0-0.3-0.1-0.3-0.3c-0.1-0.2,0.1-0.4,0.4-0.5
				c0.1,0,0.2-0.1,0.3-0.1C11.6,43.4,11.8,43.3,11.9,43.3z"/>
			<path class="st0" d="M41.2,37.4c-0.3-0.1-0.5-0.2-0.8-0.3c-0.4-0.1-0.6-0.2-0.6-0.4c0-0.2,0.2-0.4,0.8-0.5
				c0.3-0.1,0.8-0.1,1.5-0.2c0.3,0,0.6-0.1,1-0.1c0,0,0.2,0,0.4-0.1c0.3-0.1,0.4-0.1,0.6-0.1c0.6-0.1,0.9-0.2,1.5-0.3
				c0.4-0.1,0.5-0.1,0.9-0.2c0.4-0.1,0.6,0,0.7,0.3c0,0.2-0.2,0.6-0.6,1.2c-0.1,0.1-0.2,0.2-0.4,0.3C46,37,45.9,37,45.8,37.1
				c-0.2,0.2-0.3,0.6-0.5,1.2c-0.1,0.3-0.1,0.6,0,1c0,0.1,0.1,0.3,0.1,0.5c0.1,0.2,0.1,0.6,0.2,1c0.3,1.2,0.4,1.7,0.6,2.9
				c0,0.3,0,0.4,0.1,0.7c0,0.2,0.1,0.4,0.1,0.6c0,0.3,0.1,0.5,0.1,0.8c0.2,0.8,0.2,1.2,0.4,2.1c0,0.1,0.1,0.5,0.3,1.2
				c0,0.1,0.1,0.3,0.1,0.4c0.1,0.3,0.1,0.8,0.1,1.4c0,0.3,0,0.6,0,0.7c0,0.3,0,0.5,0,0.7c0,0,0,0.1,0,0.1c0,0.1,0,0.1,0,0.2
				c0,0.1,0,0.2,0,0.3c-0.1,0.7-0.3,1.3-0.5,1.6c-0.8,1.3-1.5,2.1-2.3,2.4c0,0-0.1,0-0.2,0.1c-0.1,0-0.2,0.1-0.3,0.1
				c-0.1,0-0.2,0.1-0.3,0.1c-0.1,0-0.6,0.1-1.4,0.4c-0.5,0.2-1,0.3-1.3,0.4c-0.8,0.2-1.5,0.2-2.2,0.2c-1.7-0.1-2.7-0.2-3.1-0.3
				c-0.5-0.1-1.1-0.4-1.7-0.9c-0.1-0.1-0.3-0.2-0.4-0.3c-0.5-0.4-0.9-0.7-1.1-1c-0.4-0.7-0.7-1.4-0.9-2.2c0-0.1,0-0.1-0.1-0.2
				c-0.1-0.3-0.1-0.5-0.2-0.9c-0.1-0.4-0.2-0.6-0.3-1c-0.1-0.3-0.2-0.4-0.3-0.6c0-0.2-0.1-0.6-0.3-1.1c-0.2-0.6-0.3-0.9-0.3-1.1
				c-0.3-1.1-0.4-2-0.4-2.7c0-0.1,0-0.1,0-0.2c-0.3-0.7-0.4-1-0.7-1.7c0,0,0-0.1,0-0.1c0-0.1,0-0.1,0-0.3c0-0.1,0-0.2-0.1-0.3
				c0-0.2-0.1-0.3-0.1-0.4c-0.4-1.5-1-2.4-1.9-2.6c-0.4-0.1-0.7-0.1-0.8-0.2c-0.1,0-0.1-0.1-0.2-0.2c-0.1-0.3,0.2-0.5,0.7-0.6
				c0.3-0.1,0.5-0.1,0.8-0.2c0.1,0,0.2-0.1,0.4-0.1c0.1,0,0.2,0,0.3,0c0.3-0.1,0.6-0.2,0.9-0.3c0.4-0.1,0.6-0.1,1-0.2
				c0.5-0.1,0.8-0.2,1-0.3c0.1,0,0.5-0.1,1.1-0.3c0.5-0.1,0.7-0.2,1.2-0.3c0.6-0.1,1,0,1.1,0.4c0,0.2,0,0.3-0.1,0.5
				c-0.1,0.1-0.3,0.3-0.8,0.5c-0.8,0.5-1.3,1-1.4,1.6c-0.1,0.4,0,1,0.1,1.5c0.1,0.5,0.2,1.1,0.4,1.7c0.1,0.3,0.1,0.4,0.2,0.7
				c0,0.1,0.1,0.2,0.1,0.5c0,0.2,0.1,0.4,0.1,0.5c0,0,0,0.1,0,0.2c0,0.1,0,0.2,0,0.3c0,0.2,0.1,0.3,0.1,0.5c0,0.1,0.1,0.2,0.1,0.4
				c0,0.1,0,0.3,0.1,0.5c0,0.2,0,0.4,0,0.5c0,0.1,0,0.2,0,0.3c0,0,0.2,0.8,0.7,2.2c0,0.2,0.1,0.2,0.1,0.4c0.1,0.2,0.1,0.3,0.1,0.6
				c0,0.2,0.1,0.3,0.1,0.6c0.2,1.4,0.5,2.3,0.9,2.8c0.7,0.8,1.2,1.3,1.3,1.4c0.2,0.1,0.5,0.3,1.1,0.4c0.1,0,0.4,0.1,1,0.4
				c0.2,0.1,0.4,0.1,0.6,0.1c0.2,0,0.6-0.2,1.2-0.5c0,0,0.1-0.1,0.2-0.1c0.6-0.1,0.9-0.2,1.6-0.3c0.3-0.1,0.9-0.4,1.5-0.8
				c0.6-0.5,1-0.9,1.1-1.2c0,0,0.2-0.5,0.5-1.3c0.3-0.8,0.4-1.3,0.4-1.4c0-0.2-0.1-0.7-0.2-1.4c-0.1-0.7-0.1-1-0.2-1.7
				c-0.2-1.1-0.3-1.7-0.4-2.9c-0.1-0.3-0.1-0.5-0.2-0.8c-0.1-0.7-0.2-1-0.4-1.7c0-0.1,0-0.1,0-0.2c0-0.3-0.1-0.4-0.1-0.7
				c0,0,0,0-0.1-0.1c-0.1-0.2-0.2-0.5-0.3-0.8c0-0.1-0.2-0.4-0.5-0.7c-0.1-0.1-0.3-0.6-0.6-1.5c0-0.1-0.1-0.2-0.1-0.3
				c0-0.1-0.1-0.1-0.1-0.2c0,0-0.1-0.1-0.1-0.1c0,0,0,0-0.1,0c-0.3-0.1-0.5-0.2-0.8-0.4C41.9,38,41.7,37.7,41.2,37.4z"/>
			<path class="st0" d="M56.5,48.8c0.1,0.6,0.1,0.9,0.2,1.4c0.1,0.4,0.3,1,0.7,1.9c0.1,0.3,0.7,0.7,1.6,1.1c0.5,0.3,0.7,0.5,0.8,0.7
				c0,0.2-0.2,0.4-0.7,0.5c0,0-0.5,0-1.3,0.2c-0.4,0.1-0.9,0.1-1.4,0.2c-1.4,0.2-2.2,0.3-2.4,0.3c-0.2,0-0.4-0.2-0.4-0.5
				c0-0.1,0-0.2,0-0.3c0-0.1,0.3-0.3,0.6-0.6c0.8-0.6,1.2-1.8,0.9-3.2c-0.1-0.6-0.4-2.2-0.7-4.5c0-0.2,0-0.3-0.1-0.6
				c-0.1-1.2-0.2-1.8-0.4-3c-0.1-0.5-0.3-1.2-0.6-2.1c0,0-0.2-1.2-0.6-3.2c-0.1-0.6-0.3-1-0.5-1.2c-0.1-0.1-0.6-0.3-1.5-0.6
				c-0.4-0.2-0.7-0.4-0.7-0.6c-0.1-0.3,0.1-0.5,0.3-0.6c0.1,0,0.4-0.1,0.6-0.1c0.3-0.1,0.5-0.1,0.8-0.1c0,0,0.1,0,0.2,0
				c0.1,0,0.3,0,0.5-0.1c0.2,0,0.4-0.1,0.5-0.1c0.1,0,0.3,0,0.4,0c0.4-0.1,1-0.2,1.8-0.4c0.1,0,0.3-0.1,0.4-0.1
				c0.4-0.1,0.6,0,0.8,0.3c0,0.1,0.1,0.4,0.3,0.9c0.2,0.7,0.4,1.6,0.7,2.3c0.5,1.2,1.5,2.8,3,4.8c0,0,0,0.1,0.1,0.1
				c0,0.1,0.1,0.1,0.1,0.2c0.1,0.1,0.1,0.2,0.2,0.3c0.3,0.7,0.6,1.1,0.7,1.2c0.1,0.2,0.3,0.5,0.6,1c0,0,0.4,0.5,1.1,1.3
				c0.3,0.4,0.5,0.7,0.6,0.9c0.1,0.3,0.3,0.4,0.4,0.4c0.2,0,0.5-0.4,0.8-1c0,0,0.1-0.1,0.2-0.3c0.2-0.4,0.5-1.4,0.9-2.9
				c0.1-0.2,0.1-0.3,0.1-0.5c0.1-0.3,0.1-0.5,0.2-0.8c0.2-0.6,0.2-0.9,0.4-1.5c0.2-0.9,0.3-1.4,0.5-2.4c0.1-0.6,0.2-1,0.3-1.6
				c0.1-0.5,0.2-0.8,0.3-1.3c0.2-0.7,0.3-1.4,0.5-2c0-0.1,0.1-0.2,0.1-0.4c0-0.2,0.1-0.3,0.1-0.3c0.1-0.3,0.2-0.5,0.4-0.6
				c0.3-0.2,1-0.3,1.9-0.4c0.3,0,0.6,0,0.9,0c0,0,0.1,0,0.1,0c0.4-0.1,0.6-0.1,1-0.2c0.2,0,0.4,0.1,0.7,0.3c0.1,0.1,0.2,0.2,0.2,0.3
				c0,0.2,0,0.3-0.2,0.4c-0.2,0.1-0.3,0.2-0.6,0.3c-0.3,0.2-0.6,0.6-0.9,1.3C72,33.6,72,34,72,34.6c0,0.6,0.1,1.5,0.2,2.6
				c0.1,0.8,0.2,1.5,0.3,1.9c0,0.2,0.1,0.4,0.1,0.6c0,0.2,0.1,0.3,0.1,0.4c0,0.1,0,0.2,0,0.2c0.2,1.6,0.3,2.5,0.3,2.8
				c0,0.3,0,0.4,0.1,0.6c0,0.3,0.1,0.5,0.1,0.8c0.1,1,0.2,1.5,0.3,2.5c0,0.1,0,0.3,0.1,0.6c0,0.3,0,0.5,0.1,0.5
				c0,0.2,0.1,0.5,0.4,1.1c0.3,0.8,0.6,1.2,0.7,1.3c0.3,0.1,0.5,0.2,0.9,0.4c0.1,0.1,0.2,0.2,0.2,0.4c0,0.2,0,0.3-0.1,0.4
				c-0.1,0.1-0.2,0.2-0.3,0.2c-0.3,0-0.4,0-0.7,0c-0.5,0.1-0.8,0.1-1.4,0.2c-0.1,0-0.2,0-0.3,0c-0.2,0-0.3,0.1-0.4,0.1
				c-0.8,0.1-1.2,0.1-2,0.2c-0.1,0-0.3,0-0.7,0.1c-0.4,0.1-0.6,0.1-0.7,0.1c-0.4,0.1-0.6,0-0.7-0.2c0-0.1,0-0.1,0-0.2
				c0,0,0-0.1,0.1-0.2c0-0.1,0.1-0.1,0.1-0.1c0,0,0.1-0.1,0.2-0.2c0.1-0.1,0.2-0.2,0.3-0.3c0.7-0.6,1.1-1.1,1.2-1.5
				c0.1-0.2,0.1-0.5,0.1-0.7c0-0.3-0.2-1.2-0.3-2.6c0-0.2,0-0.3,0-0.5c0-0.2,0-0.3,0-0.5c0-0.1,0-0.2,0-0.4c0-0.2,0-0.3,0-0.4
				c0-0.1,0-0.2,0-0.4c0-0.1-0.1-0.3-0.2-0.7C70.1,43.2,70,43,70,42.5c-0.1-0.5-0.2-0.9-0.3-1.4c0-0.1,0-0.2-0.1-0.3
				c0-0.1-0.1-0.2-0.1-0.2c0,0,0-0.1,0-0.1c0-0.2,0-0.5-0.1-0.9c0-0.7-0.1-1.1-0.1-1.4c0-0.3-0.1-0.4-0.3-0.4
				c-0.2,0-0.3,0.2-0.3,0.4c0,0.1-0.1,0.2-0.1,0.4c-0.1,0.3-0.2,0.6-0.2,0.8c-0.1,0.5-0.2,0.8-0.3,0.9c-0.1,0.2-0.2,0.4-0.4,0.6
				c-0.1,0.1-0.2,0.7-0.4,1.6c-0.2,0.7-0.5,1.4-0.6,1.8c0,0.2-0.2,1.1-0.4,2.7c-0.1,0.3-0.3,0.7-0.4,1.2c-0.1,0.3-0.2,1-0.4,2
				c-0.2,0.5-0.2,0.7-0.4,1.2c0,0.2-0.2,0.7-0.4,1.5c-0.1,0.1-0.2,0.2-0.3,0.2c-0.1,0-0.3-0.1-0.5-0.3c-0.1-0.1-0.4-0.6-0.7-1.5
				c-0.1-0.2-0.5-0.9-1.4-2.2c-0.4-0.7-0.9-1.4-1.3-2.1c-0.2-0.3-0.6-0.8-1.2-1.5C59,45,58.5,44.2,58,43.1c-0.4-0.7-1-1.7-1.9-2.8
				c-0.1,0-0.1-0.1-0.2-0.1c0,0,0-0.1,0-0.1c-0.3-0.4-0.5-0.6-0.6-0.6c-0.2,0-0.3,0.2-0.2,0.4c0.1,0.6,0.2,0.9,0.3,1.5
				c0,0.6,0,0.8,0.1,1.4c0.1,0.5,0.1,0.7,0.2,1.2c0.1,0.3,0.1,0.6,0.2,0.9c0,0,0,0.2,0,0.3c0,0.2,0,0.5,0.1,0.9
				c0,0.4,0.1,0.9,0.1,1.2C56.3,48.2,56.5,48.7,56.5,48.8z"/>
			<path class="st0" d="M82.3,45.2c0.1,0.6,0.1,0.9,0.1,1.4c0,0.4,0.2,1.1,0.6,1.9c0.1,0.3,0.6,0.7,1.5,1.2c0.5,0.3,0.7,0.6,0.7,0.7
				c0,0.2-0.2,0.4-0.8,0.4c0,0-0.5,0-1.3,0.1c-0.4,0-0.9,0.1-1.4,0.1c-1.4,0.1-2.2,0.2-2.4,0.1c-0.2-0.1-0.4-0.2-0.4-0.5
				c0-0.1,0-0.2,0-0.3c0.1-0.1,0.3-0.3,0.7-0.6c0.8-0.5,1.3-1.7,1.2-3.1c-0.1-0.6-0.2-2.2-0.4-4.5c0-0.2,0-0.3,0-0.6
				c-0.1-1.2-0.1-1.8-0.2-3c-0.1-0.5-0.2-1.2-0.5-2.1c0,0-0.1-1.2-0.4-3.2c-0.1-0.6-0.3-1-0.4-1.2c-0.1-0.1-0.6-0.4-1.5-0.7
				c-0.4-0.2-0.6-0.4-0.7-0.7c0-0.3,0.1-0.5,0.3-0.5c0.1,0,0.4,0,0.6-0.1c0.3,0,0.5-0.1,0.8-0.1c0,0,0.1,0,0.2,0c0.1,0,0.3,0,0.5,0
				c0.2,0,0.4,0,0.5,0c0.1,0,0.3,0,0.4,0c0.4,0,1-0.1,1.8-0.3c0.1,0,0.3-0.1,0.4-0.1c0.4,0,0.6,0.1,0.7,0.4c0,0.1,0.1,0.4,0.2,0.9
				c0.2,0.8,0.3,1.6,0.6,2.4c0.4,1.2,1.3,2.9,2.7,5c0,0,0,0.1,0,0.1c0,0.1,0.1,0.1,0.1,0.2c0.1,0.1,0.1,0.2,0.2,0.3
				c0.3,0.7,0.5,1.1,0.6,1.2c0.1,0.2,0.3,0.5,0.5,1c0,0,0.3,0.5,1,1.4c0.3,0.4,0.5,0.7,0.5,0.9c0.1,0.3,0.2,0.4,0.4,0.4
				c0.2,0,0.5-0.3,0.8-0.9c0,0,0.1-0.1,0.2-0.3c0.3-0.4,0.6-1.3,1.1-2.8c0.1-0.2,0.1-0.3,0.2-0.5c0.1-0.3,0.1-0.5,0.2-0.8
				c0.2-0.6,0.3-0.9,0.5-1.5c0.3-0.9,0.4-1.4,0.7-2.3c0.2-0.6,0.3-0.9,0.4-1.6c0.2-0.5,0.3-0.7,0.4-1.2c0.2-0.7,0.4-1.3,0.6-2
				c0-0.1,0.1-0.2,0.1-0.4c0-0.2,0.1-0.3,0.1-0.3c0.1-0.3,0.2-0.5,0.4-0.5c0.3-0.1,1-0.2,1.9-0.3c0.3,0,0.6,0,0.9,0c0,0,0.1,0,0.1,0
				c0.4,0,0.6-0.1,1-0.1c0.2,0,0.4,0.1,0.7,0.3c0.1,0.1,0.2,0.3,0.2,0.3c0,0.2-0.1,0.3-0.2,0.4c-0.2,0.1-0.4,0.2-0.6,0.3
				c-0.4,0.1-0.7,0.6-1,1.2c-0.1,0.2-0.1,0.6-0.1,1.2c0,0.6,0,1.5,0,2.6c0,0.8,0.1,1.5,0.1,1.9c0,0.2,0,0.4,0.1,0.6
				c0,0.2,0,0.4,0.1,0.5c0,0.1,0,0.2,0,0.2c0.1,1.6,0.1,2.5,0.1,2.8c0,0.3,0,0.4,0,0.6c0,0.3,0,0.5,0,0.8c0.1,1,0.1,1.5,0.2,2.5
				c0,0.1,0,0.3,0,0.6c0,0.3,0,0.5,0,0.6c0,0.2,0.1,0.5,0.3,1.1c0.3,0.8,0.5,1.2,0.7,1.3c0.3,0.2,0.5,0.3,0.8,0.4
				c0.1,0.1,0.2,0.3,0.2,0.5c0,0.2,0,0.3-0.1,0.4c-0.1,0.1-0.2,0.1-0.3,0.1c-0.3,0-0.4,0-0.7,0c-0.5,0-0.8,0-1.4,0.1
				c-0.1,0-0.2,0-0.3,0c-0.2,0-0.3,0.1-0.4,0.1c-0.8,0-1.2,0.1-2,0.1c-0.1,0-0.3,0-0.7,0.1c-0.4,0-0.6,0.1-0.7,0.1
				c-0.4,0-0.6-0.1-0.7-0.3c0-0.1,0-0.1,0-0.2c0,0,0-0.1,0.1-0.1c0-0.1,0.1-0.1,0.1-0.1c0,0,0.1-0.1,0.2-0.2
				c0.1-0.1,0.2-0.2,0.3-0.3c0.7-0.6,1.2-1.1,1.3-1.4c0.1-0.2,0.2-0.4,0.2-0.6c0-0.3-0.1-1.2-0.1-2.7c0-0.2,0-0.3,0-0.5
				c0-0.2,0-0.3,0-0.5c0-0.1,0-0.2,0-0.4c0-0.2,0-0.3,0-0.4c0-0.1,0-0.2,0-0.4c0-0.1-0.1-0.3-0.1-0.7c0-0.5-0.1-0.7-0.1-1.1
				c0-0.5-0.1-0.9-0.2-1.4c0-0.1,0-0.2,0-0.3c0-0.1,0-0.2-0.1-0.2c0,0,0-0.1,0-0.1c0-0.2,0-0.5,0-0.9c0-0.7,0-1.1,0-1.4
				c0-0.3-0.1-0.4-0.3-0.4c-0.2,0-0.3,0.1-0.3,0.4c0,0.1-0.1,0.2-0.1,0.4c-0.1,0.3-0.2,0.6-0.2,0.7c-0.1,0.5-0.2,0.7-0.3,0.9
				c-0.2,0.2-0.2,0.3-0.4,0.6c-0.1,0.1-0.2,0.7-0.5,1.6c-0.2,0.7-0.6,1.3-0.7,1.8c0,0.2-0.2,1.1-0.6,2.7c-0.1,0.3-0.3,0.7-0.5,1.1
				c-0.1,0.3-0.3,1-0.6,2c-0.2,0.5-0.3,0.7-0.5,1.2c-0.1,0.2-0.2,0.7-0.5,1.5c-0.1,0.1-0.2,0.2-0.3,0.2c-0.1,0-0.3-0.1-0.5-0.4
				c-0.1-0.1-0.3-0.6-0.6-1.5c-0.1-0.2-0.5-1-1.2-2.3c-0.4-0.7-0.8-1.4-1.2-2.1c-0.2-0.3-0.6-0.8-1.1-1.6c-0.4-0.6-0.8-1.4-1.3-2.5
				c-0.3-0.8-0.9-1.7-1.7-2.9c0,0-0.1-0.1-0.1-0.1c0,0,0-0.1,0-0.1c-0.3-0.4-0.4-0.7-0.5-0.6c-0.2,0-0.3,0.2-0.3,0.4
				c0.1,0.6,0.1,0.9,0.2,1.5c0,0.6,0,0.8,0,1.4c0,0.5,0.1,0.7,0.1,1.2c0.1,0.3,0.1,0.6,0.1,0.9c0,0,0,0.2,0,0.3c0,0.2,0,0.5,0,0.9
				c0,0.4,0,0.9,0,1.2C82.1,44.7,82.3,45.2,82.3,45.2z"/>
			<path class="st0" d="M105.3,28.1c0.8,0,1.2,0,2,0c0.8-0.1,1.3-0.2,1.6-0.2c1,0,1.5,0.2,1.5,0.7c0,0.1-0.1,0.3-0.4,0.5
				c-0.4,0.3-0.6,0.6-0.7,0.8c-0.2,0.6-0.3,2.1-0.2,4.5c0,0,0,0,0,0.2c0,0.2,0,0.3,0,0.5c0,0.7,0.1,1.4,0.1,1.9c0,0.3,0,0.5,0,0.9
				c0,1.1,0,2,0,2.7c0,0.1,0,0.2,0,0.4c0,0.2,0,0.4,0,0.5c0,0.3,0.1,0.6,0.1,0.9c0,0.1,0,0.1,0,0.1c0,0.1,0,0.2,0,0.3
				c0,0.1,0,0.2,0,0.3c0,0.2,0.1,0.5,0.2,1c0,0.7,0,1,0.1,1.6c0,0.2,0,0.3,0,0.5c0.1,0.1,0.2,0.4,0.4,0.7c0,0.1,0.1,0.2,0.1,0.3
				c0.1,0.1,0.1,0.2,0.1,0.3c0.2,0.2,0.3,0.3,0.5,0.5c0.2,0.2,0.3,0.4,0.3,0.5c0,0.3-0.1,0.5-0.3,0.5c-0.3,0-0.5,0-0.9,0
				c-0.1,0-0.1,0-0.1,0c-0.4,0.1-0.7,0.1-0.8,0.1c0,0-0.1,0-0.1,0c-0.1,0-0.1,0-0.3,0c-0.1,0-0.2,0-0.3,0c-0.6,0-0.8,0-1.4,0.1
				c-0.3,0-0.7,0-1.1-0.1c-0.2-0.1-0.3-0.3-0.3-0.5c0-0.1,0-0.2,0.1-0.3c0.3-0.3,0.5-0.4,0.8-0.7c0.2-0.3,0.3-0.6,0.3-1
				c0,0,0-0.1,0-0.3c0-0.1,0-0.3,0-0.5c0-0.2,0-0.4,0-0.6c0-0.1,0-0.1,0-0.3c0-0.1,0-0.3-0.1-0.6c0-0.3-0.1-0.5-0.1-0.6
				c0-0.1,0-0.6,0-1.4c0-0.6,0.1-1.1,0-1.4c0-0.1-0.1-0.7-0.2-1.9c0-0.4,0-0.6,0.1-1c0,0,0-0.1,0-0.1c0-0.1,0-0.1,0-0.2
				c0-0.1,0-0.2,0-0.3c0-0.1,0-0.1,0-0.2c0-1.2-0.1-1.8-0.1-3c0-0.1,0-0.3,0-0.4c0-0.2-0.1-0.7-0.2-1.6c0-0.7-0.1-1-0.1-1.7
				c-0.1-0.5-0.3-0.9-0.9-1.3c-0.4-0.3-0.6-0.5-0.6-0.7C104.6,28.4,104.8,28.2,105.3,28.1z"/>
			<path class="st0" d="M125.8,27.8c0.8,0,1.2,0.1,2,0.1c0.8-0.1,1.3-0.1,1.6-0.1c1,0,1.5,0.3,1.5,0.8c0,0.1-0.1,0.3-0.4,0.5
				c-0.4,0.3-0.7,0.6-0.8,0.8c-0.2,0.6-0.4,2.1-0.4,4.5c0,0,0,0,0,0.2c0,0.2,0,0.3,0,0.5c0,0.7,0,1.4,0,1.9c0,0.3,0,0.5,0,0.9
				c0,1.1-0.1,2-0.2,2.7c0,0.1,0,0.2,0,0.4c0,0.2,0,0.4,0,0.5c0,0.3,0,0.6,0,0.9c0,0.1,0,0.1,0,0.1c0,0.1,0,0.2,0,0.3
				c0,0.1,0,0.2,0,0.3c0,0.2,0,0.5,0.1,1c0,0.7,0,1,0,1.6c0,0.2,0,0.3,0,0.5c0.1,0.1,0.2,0.4,0.3,0.7c0,0.1,0.1,0.2,0.1,0.3
				s0.1,0.2,0.1,0.3c0.2,0.2,0.3,0.3,0.5,0.5c0.2,0.2,0.2,0.4,0.2,0.5c0,0.3-0.1,0.5-0.3,0.5c-0.3,0-0.5,0-0.9,0c-0.1,0-0.1,0-0.1,0
				c-0.4,0-0.7,0-0.8,0c0,0-0.1,0-0.1,0c-0.1,0-0.1,0-0.3,0c-0.1,0-0.2,0-0.3,0c-0.6,0-0.8,0-1.4,0c-0.3,0-0.7-0.1-1.1-0.2
				c-0.2-0.1-0.3-0.3-0.3-0.5c0-0.1,0-0.2,0.1-0.3c0.3-0.3,0.5-0.4,0.8-0.7c0.2-0.3,0.3-0.6,0.3-1c0,0,0-0.1,0-0.3
				c0-0.1,0-0.3,0.1-0.5c0-0.2,0-0.4,0.1-0.6c0-0.1,0-0.1,0-0.3c0-0.1,0-0.3,0-0.6c0-0.3,0-0.5,0-0.6c0-0.1,0-0.6,0.1-1.4
				c0.1-0.6,0.1-1.1,0.1-1.4c0-0.1,0-0.7-0.1-1.9c0-0.4,0.1-0.6,0.1-1c0,0,0-0.1,0-0.1c0-0.1,0-0.1,0-0.2c0-0.1,0-0.2,0-0.3
				c0-0.1,0-0.1,0-0.2c0-1.2,0-1.8,0-3c0-0.1,0-0.3,0-0.4c0-0.2-0.1-0.7-0.1-1.6c0-0.7,0-1,0-1.7c0-0.5-0.3-0.9-0.8-1.3
				c-0.4-0.3-0.6-0.5-0.6-0.7C125.1,28.1,125.3,27.9,125.8,27.8z"/>
			<path class="st0" d="M135.1,42.6c0.2,0,0.3,0.1,0.3,0.2c0.2,0.7,0.3,1.1,0.6,1.8c0.1,0.2,0.1,0.2,0.2,0.4c0,0.1,0.2,0.4,0.5,1
				c0,0,0.3,0.3,0.8,0.7c0.2,0.2,0.3,0.3,0.6,0.6c0.3,0.3,0.7,0.6,1.1,0.8c0.3,0.2,0.5,0.4,0.7,0.5c0.4,0.2,0.6,0.3,0.7,0.3
				c0.4,0,0.6,0,1-0.1c0.7,0,1.2,0,1.5-0.1c0.3-0.1,0.6-0.3,1-0.7c0.4-0.4,0.7-0.7,0.9-0.8c0.1-0.1,0.1-0.2,0.2-0.3
				c0.1-0.1,0.1-0.2,0.2-0.2c0-0.1,0.1-0.1,0.1-0.2c0-0.1,0.1-0.1,0.1-0.1c0,0,0-0.1,0-0.1c0.2-0.5,0.4-0.9,0.4-1.2
				c0.1-1.9-0.8-3.3-2.9-4.1c-0.4-0.2-0.6-0.3-1.1-0.5c-0.9-0.3-1.3-0.4-2.2-0.7c-0.2-0.1-0.3-0.2-0.6-0.3c-0.3-0.1-0.8-0.5-1.5-1
				c-0.3-0.3-0.6-0.6-0.9-1c-0.6-0.7-0.9-1.2-1-1.4c-0.1-0.2-0.2-0.4-0.3-0.7c0-0.2,0-0.4,0-0.6c0-0.2,0-0.4,0-0.6
				c0-0.2,0-0.4,0-0.5c0-0.1,0-0.2,0-0.2c0-0.5,0.2-1,0.5-1.6c0.2-0.4,0.5-0.8,0.9-1.2c0.3-0.3,0.9-0.8,1.8-1.4
				c0.3-0.2,0.4-0.2,0.7-0.4c0.2-0.1,0.3-0.1,0.5-0.2c1-0.4,1.9-0.5,2.7-0.5c1.2,0.1,1.9,0.1,2.2,0.2c0.5,0.1,1.4,0.3,2.5,0.8
				c0.2,0,0.6,0.2,0.9,0.5c0.3,0.3,0.4,0.9,0.6,1.6c0.2,1.3,0.3,2,0.3,2c0,0.1,0,0.2,0,0.3c0,0.3,0,0.4,0.1,0.7
				c0,0.2-0.1,0.3-0.4,0.3c-0.2,0-0.4-0.1-0.6-0.3c-0.1-0.1-0.3-0.5-0.5-1.1c-0.1-0.2-0.3-0.5-0.6-0.9c0,0-0.3-0.2-0.8-0.6
				c-0.2-0.1-0.2-0.2-0.4-0.3c-0.1-0.1-0.2-0.2-0.3-0.3c-0.6-0.7-1-1-1.1-1.1c-0.3-0.2-0.6-0.3-1-0.3c-0.1,0-0.5,0-1,0
				c-0.7,0-1.1,0.1-1.3,0.2c-0.3,0.1-0.6,0.3-0.9,0.6c-0.6,0.6-0.9,0.9-1,1c-0.3,0.4-0.4,0.7-0.5,0.9c-0.1,0.3-0.1,0.6-0.1,0.7
				c0,0.5,0.1,1,0.4,1.7c0.2,0.5,0.8,1,1.7,1.6c0.2,0.2,0.7,0.3,1.3,0.5c0.1,0,0.2,0,0.4,0.1c0.2,0.1,0.6,0.2,1.3,0.4
				c0.1,0,0.5,0.3,1.1,0.6c0.4,0.2,0.7,0.3,1,0.5c0.3,0.2,0.6,0.4,0.9,0.7c0.9,0.8,1.4,1.4,1.6,1.8c0.2,0.4,0.3,0.8,0.5,1.1
				c0.1,0.3,0.2,0.5,0.4,0.8c0.1,0.7,0.1,1.4,0,2c0,0.3,0,0.4,0,0.7c0,0.8-0.5,1.6-1.3,2.5c-0.2,0.3-0.7,0.7-1.4,1.2
				c-0.1,0.1-0.5,0.3-1.1,0.6c-0.6,0.3-1,0.4-1.2,0.5c-0.5,0.1-0.9,0.1-1.3,0.1c-0.7-0.1-1.1-0.1-1.8-0.2c-0.3,0-0.5,0-0.8,0
				c-0.2,0-0.3,0-0.5-0.1c-0.4-0.1-0.6-0.2-1-0.3c-0.7-0.2-1.4-0.3-2.1-0.5c-0.8-0.2-1.3-0.7-1.4-1.3c0-0.3-0.1-0.5-0.1-0.8
				c-0.1-0.5-0.1-1-0.1-1.5c0-0.3,0-0.7,0-1c0-0.1,0-0.3,0-0.4C134.5,43.1,134.8,42.6,135.1,42.6z"/>
			<path class="st0" d="M154.9,29.4c0.9,0.1,1.4,0.2,2.3,0.3c0.4,0,1,0,1.8,0.1c0.4,0,0.6,0,0.9,0.1c0.5,0,0.8,0.2,0.7,0.5
				c0,0.1-0.1,0.2-0.2,0.3c-0.2,0.1-0.3,0.1-0.4,0.2c-0.2,0.2-0.3,0.3-0.5,0.5c-0.2,0.2-0.4,0.3-0.4,0.4c-0.5,1-0.9,2.3-1,3.8
				c-0.1,1-0.2,1.9-0.2,2.9c-0.1,0.6-0.1,0.8-0.2,1.4c0,0.4-0.1,0.6-0.1,0.9c0,0.5-0.1,0.8-0.1,1.3c0,0.3,0,0.5-0.1,0.8
				c0,0.1-0.1,0.3-0.2,0.8c0,0.1-0.1,0.3-0.1,0.6c0,0.2,0,0.5,0,0.9c0,0.4,0,0.7,0,0.9c0,0.3,0,0.5,0,0.8c0,0.1-0.1,0.4-0.2,0.8
				c0,0.1,0,0.2,0,0.3c-0.1,1,0.4,1.5,1.4,1.6c0.2,0,0.6,0,1.1,0c0.4,0,0.8,0.1,1.3,0.1c0.1,0,0.2,0,0.3,0c0.3,0,0.5,0.1,0.8,0.1
				c0.2,0,0.5-0.2,1-0.6c0.6-0.6,1-1,1.1-1.2c0.5-0.8,0.9-1.2,1.1-1.1c0.2,0,0.3,0.2,0.2,0.5c-0.1,0.5-0.2,0.8-0.3,1.3
				c0,0.4,0,0.7,0,1.1c0,0.2,0,0.2,0,0.4c0,0.2,0,0.3,0,0.5c-0.1,0.5-0.3,0.8-0.6,0.9c-0.2,0-0.6,0-1.2-0.1c-0.3,0-0.5-0.1-0.8-0.1
				c-0.8-0.1-1.3-0.2-2.1-0.3c0,0-0.1,0-0.1,0c-0.1,0-0.1,0-0.3,0c-0.1,0-0.2,0-0.4,0c-0.1,0-0.2,0-0.3,0c-0.3,0-0.6,0-0.8,0
				c-0.5,0-1.1-0.1-1.7-0.3c-0.2-0.1-0.5-0.1-0.7-0.1c-0.3,0-0.9-0.1-1.8-0.1c0,0-0.1,0-0.2,0c-0.1,0-0.3,0-0.5,0.1
				c-0.2,0-0.4,0-0.7,0.1c-0.1,0-0.2,0-0.3,0c-0.5,0-0.8-0.2-0.8-0.5c0-0.2,0.1-0.5,0.3-0.6c0.2-0.1,0.4-0.3,0.6-0.5
				c0.6-0.4,0.9-1.1,1.1-1.9c0.1-0.4,0.2-1.3,0.4-2.7c0-0.6,0.1-0.8,0.1-1.4c0-0.1,0-0.3,0-0.4c0-0.2,0-0.3,0-0.5c0-0.1,0-0.3,0-0.4
				c0-0.1,0-0.2,0-0.3c0-0.1,0-0.1,0-0.1c0-0.5,0.2-1.1,0.3-1.9c0,0,0-0.2,0.1-0.3c0,0,0-0.1,0-0.1c0-0.1,0-0.2,0-0.3
				c0-0.1,0-0.3,0-0.4c0-0.1,0-0.3,0-0.5c0-0.2,0-0.3,0-0.5c0.1-1.3,0.2-2,0.3-3.3c0-0.3,0-0.5,0-0.8c0-0.1,0-0.3,0-0.6
				c0-0.3,0-0.5,0-0.6c-0.1-0.2-0.2-0.4-0.4-0.7c-0.1-0.2-0.2-0.3-0.3-0.6c-0.1-0.1-0.2-0.1-0.4-0.2c-0.2-0.1-0.4-0.2-0.6-0.3
				c-0.1-0.1-0.2-0.2-0.2-0.4c0-0.3,0.3-0.3,0.6-0.4c0.1,0,0.2,0,0.4,0C154.6,29.4,154.8,29.4,154.9,29.4z"/>
			<path class="st0" d="M180,53.5c0,0-0.1,0-0.1,0c-0.4,0.1-0.8,0.1-1.2,0c-0.3-0.1-0.5-0.2-0.5-0.4c0-0.1,0.2-0.3,0.5-0.5
				c0.7-0.4,1.1-0.9,1.2-1.6c0.1-0.4,0-0.8-0.1-1.4c0,0,0-0.1,0-0.2c0-0.1-0.1-0.3-0.1-0.5c-0.1-0.2-0.1-0.5-0.2-0.7
				c0-0.1-0.1-0.9-0.2-2c-0.1-0.8-0.6-1.3-1.4-1.4c-0.4-0.2-0.6-0.2-1-0.4c-0.3-0.2-0.7-0.3-1.2-0.4c-0.7-0.1-1.3-0.1-1.7,0
				c-0.3,0-0.6,0.4-1,1.2c-0.2,0.5-0.4,0.9-0.6,1.1c-0.4,0.4-0.6,0.8-0.8,1.2c0,0-0.1,0.2-0.2,0.6c-0.2,0.7-0.3,1.2-0.3,1.3
				c-0.1,0.4,0,0.7,0,0.9c0,0.1,0.1,0.1,0.1,0.1c0.1,0.1,0.2,0.2,0.3,0.5c0.1,0.2,0.3,0.4,0.5,0.7c0.2,0.3,0.3,0.4,0.3,0.5
				c0,0.3-0.3,0.4-0.8,0.3c-0.3,0-0.6-0.1-1-0.2c-0.1,0-0.2,0-0.3,0c-0.1,0-0.2,0-0.3,0c-0.2,0-0.3,0-0.5-0.1
				c-0.6-0.1-0.8-0.1-1.4-0.1c-0.5-0.1-0.7-0.3-0.7-0.6c0-0.2,0.1-0.3,0.2-0.4c0.3-0.2,0.4-0.2,0.7-0.4c0.1-0.1,0.4-0.4,0.8-1.1
				c0-0.1,0.2-0.3,0.6-0.7c0.1-0.1,0.3-0.5,0.6-1.3c0.1-0.1,0.4-0.7,1.1-1.8c0.3-0.5,0.4-0.8,0.7-1.3c0.7-1.3,1.4-2.6,2.3-4.1
				c0,0,0.1-0.1,0.2-0.3c0.1-0.2,0.3-0.4,0.5-0.8c0.2-0.4,0.5-0.8,0.7-1.2c0.7-1.2,1.2-1.9,1.3-2.3c0.5-0.9,0.9-2,1.2-3.1
				c0.2-0.7,0.6-1.1,1-1c0.1,0,0.3,0.2,0.4,0.6c0.1,0.2,0.3,1.3,0.7,3.1c0,0,0.1,0.4,0.4,1.2c0,0.1,0,0.5,0.1,0.9c0,0.1,0,0.2,0,0.3
				c0,0.1,0,0.3,0.1,0.5c0,0.2,0.1,0.4,0.1,0.6c0,0.2,0.1,0.6,0.4,1.3c0.2,0.9,0.3,1.4,0.5,2.3c0,0.5,0.1,0.7,0.1,1.1
				c0.1,0.7,0.2,1.1,0.3,1.8c0.1,0.6,0.2,1.5,0.4,2.6c0.1,0.4,0.2,1.2,0.4,2.3c0.1,1,0.4,1.8,0.7,2.4c0.1,0,0.3,0.2,0.6,0.7
				c0.1,0.1,0.1,0.3,0.1,0.5c0,0.3-0.3,0.4-0.7,0.4c-0.7-0.1-1.1-0.1-1.8-0.2c-0.3,0-0.5,0-0.8-0.1C181,53.9,180.7,53.8,180,53.5z
				 M177.7,38c-0.1,0-0.1,0-0.2,0c-0.2,0.2-0.2,0.3-0.4,0.5c-0.3,0.4-0.6,0.7-0.8,1c-0.5,0.9-0.7,1.5-0.8,1.9c0,0.2,0,0.4,0,0.6
				c0.1,0.3,0.5,0.6,1.2,0.8c0.2,0,0.3,0.1,0.4,0.2c0.3,0.1,0.5,0.2,0.7,0.2c0.3,0,0.4-0.1,0.5-0.4c0.2-1.1,0.2-2.1,0-3.1
				C178.2,38.7,178,38.1,177.7,38z"/>
			<path class="st0" d="M191.1,40.3c0.1-0.3,0.1-0.5,0.1-0.8c0.1-0.7,0.2-1.2,0.1-1.5c0-0.7-0.1-1.3-0.3-1.5
				c-0.1-0.1-0.5-0.5-1.3-1.1c-0.3-0.2-0.5-0.5-0.4-0.8c0.1-0.4,0.3-0.5,0.6-0.5c0.3,0.1,0.5,0.1,0.9,0.2c0.1,0,0.4,0,0.9,0.1
				c0,0,0.1,0,0.2,0c0.1,0,0.3,0,0.6,0.1c0.3,0,0.6,0.1,0.9,0.1c0.9,0.1,1.3,0.2,2.1,0.3c0.6,0.1,0.9,0.4,0.8,0.8
				c0,0.1,0,0.2-0.1,0.2c-0.1,0.4-0.2,0.7-0.3,0.8c-0.1,0.5,0.3,1.8,1.3,4c0.1,0.2,0.1,0.3,0.2,0.6c0,0.1,0.2,0.4,0.4,0.9
				c0.2,0.5,0.4,1.1,0.7,1.7c0.3,0.6,0.6,1.3,1,2c0.4,0.7,0.8,1.5,1.4,2.3c0,0.1,0.1,0.1,0.1,0.2c0,0.1,0.1,0.1,0.1,0.2
				c0,0,0,0.1,0.1,0.1c0,0,0,0.1,0.1,0.1c0.2,0.4,0.3,0.7,0.6,0.9c0.3,0.2,0.4,0.3,0.7,0.6c0.2,0.1,0.5-0.1,0.7-0.5
				c0.1-0.2,0.3-0.8,0.7-1.8c0.2-0.6,0.3-0.9,0.5-1.6c0.1-0.7,0.2-1,0.3-1.6c0-0.1,0.1-0.4,0.3-0.9c0,0,0.1-0.1,0.1-0.1
				c0-0.3,0.1-0.5,0.1-0.9c0-0.2,0-0.3,0.1-0.4c0-0.7,0.2-1.6,0.2-2.3c0-0.6-0.5-1.4-1.4-2.2c-0.2-0.2-0.3-0.4-0.3-0.6
				c0-0.1,0.1-0.2,0.2-0.3c0.1-0.1,0.2-0.2,0.3-0.2c0.8,0.2,1.1,0.4,1.9,0.6c0,0,0.2,0,0.5,0c0.3,0,0.5,0,0.6,0
				c0.4,0.1,0.6,0.1,1,0.2c0.6,0.1,1,0.2,1.1,0.3c0.2,0.1,0.3,0.3,0.3,0.6c0,0.2-0.1,0.3-0.3,0.3c-0.3,0.1-0.4,0.1-0.7,0.2
				c-0.7,0.2-1.1,0.5-1.3,1.1c-0.1,0.2-0.3,0.9-0.5,2c0,0.1-0.1,0.3-0.1,0.5c0,0.2-0.1,0.3-0.1,0.4c0,0.1,0,0.1,0,0.2
				c0,0,0,0.1,0,0.1c0,0.1,0,0.2,0,0.4c0,0.2-0.1,0.3-0.1,0.5c-0.1,0.5-0.2,1-0.3,1.6c-0.1,0.3-0.1,0.4-0.2,0.7c0,0,0,0.1-0.1,0.1
				c0,0.1,0,0.1-0.1,0.2c0,0.1-0.1,0.2-0.1,0.3c0,0.1-0.1,0.3-0.1,0.4c0,0.2-0.1,0.3-0.1,0.4c-0.2,0.9-0.3,1.4-0.5,2.3
				c-0.2,0.6-0.4,1-0.4,1.2c0,0.2-0.1,0.7-0.2,1.4c-0.1,0.4-0.1,0.6-0.2,1.1c-0.1,0.3-0.1,0.4-0.1,0.6c-0.1,0.5-0.2,0.9-0.3,1.3
				c-0.1,0.3-0.1,0.5-0.1,0.6c0,0.1-0.1,0.2-0.1,0.4c0,0.1,0,0.2,0,0.3c0,0.1,0,0.1,0,0.1c-0.1,0.7-0.5,0.9-0.9,0.8
				c-0.2,0-0.3-0.1-0.3-0.2c-0.2-0.6-0.3-0.8-0.5-1.4c0,0-0.1-0.2-0.3-0.6c-0.5-0.8-0.8-1.2-0.9-1.4c-0.2-0.5-0.4-0.9-0.5-1.2
				c-0.1-0.2-0.4-0.7-0.8-1.5c-0.1-0.1-0.1-0.2-0.2-0.3c-0.2-0.3-0.2-0.5-0.4-0.8c-0.2-0.4-0.3-0.5-0.5-0.9
				c-0.2-0.4-0.3-0.5-0.5-0.9c-0.2-0.4-0.3-0.6-0.5-0.9c-0.1-0.1-0.2-0.3-0.4-0.7c-0.2-0.3-0.3-0.6-0.4-0.8c0,0-0.1-0.3-0.3-0.6
				c-0.2-0.4-0.4-0.7-0.5-1.1c-0.2-0.5-0.4-0.9-0.6-1.3c-0.1-0.3-0.5-0.9-1-2c-0.3-0.7-0.5-1.1-0.9-1.8c-0.2,0-0.4,0.1-0.6,0.5
				c-0.1,0.7-0.2,1.1-0.3,1.8c-0.1,0.6-0.2,0.9-0.3,1.5c-0.3,1.3-0.5,2.7-0.9,3.9c-0.2,0.7-0.3,1.2-0.4,1.4c0,0.2-0.1,0.6-0.1,1
				c0,0-0.1,0.4-0.1,1.1c0,0.2,0,0.2,0,0.4c-0.1,0.6-0.1,1.1-0.1,1.3c0,1,0.5,1.7,1.6,2.2c0.3,0.1,0.5,0.4,0.4,0.7
				c0,0.2-0.5,0.3-1.5,0.1c-0.2,0-0.4-0.1-0.7-0.2c-0.4-0.1-1-0.2-1.8-0.4c-0.3-0.1-0.6-0.1-0.8-0.1c-0.1,0-0.1,0-0.2,0
				c-0.2,0-0.6-0.1-1-0.3c-0.3-0.1-0.4-0.3-0.4-0.5c0-0.1,0.1-0.2,0.3-0.3c0.3-0.1,0.6-0.2,0.7-0.2c0.6-0.2,1-0.5,1.3-1.1
				c0.2-0.4,0.5-1.4,0.8-2.8c0.1-0.4,0.1-0.8,0.2-1c0-0.2,0.1-0.3,0.1-0.5c0-0.2,0.1-0.5,0.1-1c0-0.1,0-0.2,0.1-0.3
				c0.1-0.3,0.2-0.7,0.4-1.4c0-0.1,0.1-0.3,0.1-0.3c0-0.2,0-0.3,0.1-0.6c0-0.2,0.1-0.4,0.1-0.6c0-0.1,0-0.2,0-0.3c0-0.1,0-0.2,0-0.3
				c0-0.1,0-0.1,0-0.1c0-0.2,0.1-0.6,0.3-1c0-0.1,0.1-0.3,0.2-0.8c0-0.1,0.1-0.3,0.1-0.6C191.1,40.6,191.1,40.4,191.1,40.3z"/>
			<path class="st0" d="M214.8,39.3c0.5,0.1,0.9,0.3,1.4,0.5c0.2,0.1,0.3,0.1,0.3,0.1c0.1,0,0.6,0,1.5,0.1c0.7,0.1,1.1,0.2,1.8,0.4
				c0,0,0.5,0.2,1.6,0.5c0.7,0.2,1.6,0.5,2.7,0.8c0.3,0.1,1,0.6,2,1.7c0.1,0.1,0.1,0.1,0.2,0.2c0.1,0.2,0.2,0.3,0.3,0.5
				c0.7,0.7,1.2,1.4,1.6,2.2c0.3,0.4,0.7,1.1,0.9,2c0.2,0.9,0.1,1.7,0.1,2.1c-0.1,0.9-0.2,1.5-0.4,2c-0.2,0.6-0.3,0.9-0.5,1.6
				c-0.2,0.6-0.3,0.9-0.4,1.5c-0.1,0.5-0.5,1.3-1.3,2.4c-0.3,0.4-0.5,0.7-0.6,0.8c-0.1,0.1-0.4,0.4-0.9,0.9
				c-0.6,0.5-1.1,0.9-1.4,1.2c-0.5,0.3-1,0.5-1.5,0.6c0,0-0.2,0-0.4,0.1s-0.4,0.1-0.5,0.1c-0.2,0-0.9,0.1-2.1,0.2
				c-0.1,0-0.3,0-0.6,0.1c-0.9,0.1-1.6,0.1-1.9,0c-0.3-0.1-0.7-0.2-1.1-0.3c-0.6-0.1-0.9-0.2-1-0.2c-0.1,0-0.2,0-0.3,0
				c-0.1,0-0.2,0-0.2,0c0,0-0.2-0.1-0.3-0.1c-0.2-0.1-0.4-0.2-0.5-0.2c-0.1-0.1-0.5-0.2-1.1-0.3c-0.4-0.1-0.7-0.2-0.9-0.3
				c-0.4-0.1-0.5-0.1-0.9-0.2c-0.4-0.1-0.7-0.2-1.1-0.3c-0.2,0-0.3-0.1-0.5-0.1c-0.3-0.1-0.4-0.3-0.3-0.7c0-0.2,0.2-0.4,0.3-0.4
				c0.4-0.1,0.5-0.2,0.9-0.3c0.6-0.3,1.1-0.9,1.3-1.8c0-0.2,0.1-0.5,0.3-1c0.2-0.5,0.3-0.8,0.4-1c0.1-0.2,0.2-0.7,0.3-1.4
				c0-0.1,0-0.2,0-0.2c0-0.1,0.1-0.2,0.1-0.3c0.1-0.4,0.3-0.8,0.4-1.3c0-0.1,0-0.1,0-0.2c0-0.1,0-0.3,0.1-0.4c0-0.2,0.1-0.3,0.1-0.4
				c0.1-0.6,0.2-0.9,0.3-1.5c0.1-0.3,0.2-0.9,0.3-1.6c0.1-0.4,0.1-0.6,0.2-0.9c0.1-0.3,0.2-0.7,0.3-1c0.1-0.3,0.3-0.6,0.3-0.8
				c0-0.2,0.1-0.5,0.1-0.8c0-0.4,0.1-0.6,0.1-0.8c0-0.6,0-1-0.1-1.2c-0.1-0.2-0.1-0.5-0.3-0.8c-0.1-0.1-0.2-0.2-0.3-0.3
				c-0.1-0.1-0.3-0.3-0.4-0.3c-0.1-0.1-0.1-0.3-0.1-0.5C213.4,39.1,213.9,39,214.8,39.3z M221.4,42.3c-1.9-0.5-3.1-0.1-3.5,1.1
				c-0.2,0.5-0.4,1-0.7,1.5c0,0,0,0-0.1,0.1c0,0.1,0,0.5,0,1.2c0,0.1-0.1,0.2-0.1,0.3c0,0,0,0.1,0,0.1c0,0.1-0.1,0.1-0.1,0.3
				c0,0.1-0.1,0.2-0.1,0.3c-0.2,0.6-0.4,1-0.4,1.3c-0.2,0.7-0.4,1.3-0.5,1.8c0,0-0.1,0.1-0.1,0.2c0,0.1-0.1,0.2-0.1,0.2
				c-0.1,0.6-0.1,0.9-0.2,1.4c-0.1,0.4-0.2,0.7-0.4,1.1c-0.1,0.3-0.1,0.4-0.2,0.7c-0.1,0.3-0.2,0.5-0.3,0.8
				c-0.1,0.8-0.2,1.3-0.2,1.3c0,0.2-0.2,0.5-0.3,1.1c0,0-0.1,0.1-0.1,0.2c-0.1,0.5-0.1,1,0.2,1.5c0.3,0.5,0.6,0.8,1.1,0.9
				c0.1,0,0.5,0,1.2,0c0.4,0,0.6,0.1,1,0.1c0.3,0,0.5,0,0.8,0c0.4,0,0.7,0,1.1-0.1c0.2-0.1,0.4-0.2,0.8-0.5c0.4-0.3,0.6-0.4,0.9-0.6
				c0.1,0,0.2-0.1,0.3-0.2c0.1-0.1,0.2-0.1,0.3-0.2c0,0,0.1-0.1,0.2-0.1c0.1-0.1,0.2-0.1,0.3-0.3c0.1-0.1,0.3-0.2,0.4-0.3
				c0.1,0,0.2-0.1,0.3-0.3c0.2-0.1,0.3-0.2,0.4-0.3c0.2-0.1,0.4-0.4,0.5-0.7c0,0,0.1-0.2,0.2-0.5c0.1-0.3,0.2-0.6,0.4-0.8
				c0.2-0.4,0.3-0.7,0.6-1.1c0-0.2,0.2-0.5,0.4-1c0.2-0.5,0.3-0.8,0.3-0.9c0.1-0.3,0.1-0.5,0.1-0.8c0.1-0.3,0.1-0.5,0.2-0.8
				c0.1-0.2,0.2-0.7,0.3-1.4c0-0.1-0.1-0.6-0.4-1.4c-0.1-0.5-0.3-1.1-0.6-2c-0.2-0.3-0.6-0.8-1.2-1.3c-0.3-0.3-0.5-0.5-0.6-0.6
				c-0.5-0.5-0.8-0.8-0.9-0.9C222.2,42.6,221.8,42.5,221.4,42.3z"/>
		</g>
	</g>
	<g>
		<path class="st0" d="M92.4,65.9H94h0.6c0.3,0,0.4,0,0.6,0.2c0.1,0.2,0.2,0.4,0.2,0.7c0,0.4,0,0.7-0.1,0.7L94.4,68
			c-0.1,0.1-0.2,0.2-0.2,0.5c0,0.3,0.3,1.2,0.8,2.5c0.2,0.5,0.6,0.8,1,0.8c0.2,0,0.4-0.1,0.5-0.2c0.1-0.1,0.1-0.2,0.2-0.6
			c0.2-0.6,0.4-1.1,0.4-1.3c0.1-0.5,0.1-0.8,0.1-0.9c0-0.3-0.1-0.6-0.3-0.8c-0.1-0.1-0.3-0.2-0.8-0.3c-0.2,0-0.3-0.2-0.3-0.4
			c0-0.2,0.1-0.5,0.3-0.8c0.1-0.3,0.3-0.4,0.6-0.4c0.1,0,0.2,0,0.5,0c0.3,0,0.4,0,0.5,0h1c0.5,0,1.2,0,2,0c0.7,0,1,0.3,1,0.8
			c0,0.3-0.1,0.5-0.3,0.7c-0.1,0.1-0.4,0.4-1,0.8c-0.4,0.3-1,1-1.7,2.2c0,0-0.2,0.3-0.5,1c-0.1,0.3-0.3,0.9-0.5,2
			c0,0-0.2,0.4-0.5,1.2c-0.1,0.2-0.1,0.3-0.1,0.5c0,0.1,0,0.4,0.1,0.7c0,0.1,0.1,0.2,0.1,0.4c0.1,0.2,0.2,0.5,0.3,0.9
			c0.1,0.4,0.2,0.8,0.4,1.1c0.1,0.3,0.3,1.1,0.7,2.5c0.2,0.5,0.5,1.3,0.9,2.4l0.1,0.6c0.2,1.2,0.5,1.8,0.7,1.8
			c0.2,0,0.4-0.4,0.7-1.2c0.4-0.9,0.7-1.9,0.9-2.8l0.4-1.5c0.3-0.9,0.5-1.7,0.6-2.2c0.2-0.5,0.4-1,0.7-1.4c0.1-0.1,0.3-0.7,0.7-2
			l0.3-1l0.2-1c0.2-1,0.3-1.6,0.3-1.7c0-0.1,0-0.1,0-0.2s0-0.1,0-0.1c0,0,0-0.1,0-0.1c0-0.1,0-0.1-0.1-0.1c0,0-0.1-0.1-0.1-0.2
			c-0.1-0.1-0.1-0.2-0.1-0.2c0-0.1-0.1-0.2-0.2-0.3c-0.1-0.2-0.2-0.3-0.2-0.4c-0.1-0.1-0.1-0.3-0.2-0.6c-0.1-0.2-0.2-0.4-0.3-0.6
			l-0.6-0.4c-0.1-0.1-0.2-0.3-0.2-0.5c0-0.2,0.1-0.3,0.2-0.5c0.2-0.2,0.3-0.3,0.5-0.2c1.4,0.2,2.3,0.2,2.5,0.2c1,0,1.6,0,1.7,0h0.9
			c0.7,0,1.1,0.3,1.1,0.8c0,0.2-0.1,0.3-0.2,0.5l-1,0.6c-0.5,0.4-0.9,1-1.2,1.8c-0.5,1.2-0.9,2-1.1,2.6c-0.1,0.3-0.6,2.1-1.7,5.5
			c-0.5,1.4-1.1,3.3-1.8,5.5c-0.6,1.9-1.1,3.7-1.5,5.2c-0.2,0.5-0.3,1.3-0.5,2.2c-0.1,1.1-0.4,1.6-1,1.6c-0.2,0-0.4-0.1-0.6-0.3
			c-0.1-0.3-0.3-0.8-0.5-1.4l-0.5-1.3L98,87.8l-0.6-1.1L97.2,86l-0.5-0.8l-0.3-1.3c-0.4-1.1-0.7-1.9-0.9-2.6
			c-0.2-0.5-0.3-0.8-0.4-0.8c-0.2,0-0.4,0.3-0.7,0.8c-0.2,0.4-0.3,0.8-0.5,1.5l-0.5,1.3l-0.8,3.1c-0.9,2.2-1.4,3.5-1.4,3.7
			c-0.2,0.7-0.4,1.1-0.7,1.1c-0.1,0-0.3-0.1-0.6-0.4c-0.3-0.3-0.4-0.5-0.4-0.7l-0.3-1l-0.4-1L88,86.6l-1-2.4l-0.4-1.3l-0.3-0.7
			l-0.6-1.9L85,78.7l-0.8-2.3l-0.7-1.7l-0.3-1.2c-0.2-0.8-0.4-1.5-0.7-2.1l-0.2-0.5c-0.6-1.4-1.1-2.3-1.4-2.6
			c-0.3-0.3-0.6-0.5-1.1-0.7c-0.5-0.3-0.8-0.7-0.8-1.2c0-0.5,0.3-0.7,0.8-0.7c0.7,0,1.6,0,2.7,0.1c0.2,0,0.5,0,0.7,0
			c0.3,0,0.5,0,0.7,0l0.5-0.1c1.6,0,2.4,0.1,2.6,0.2c0.4,0.2,0.5,0.5,0.5,1.1c0,0.3,0,0.5-0.1,0.5l-0.7,0.7
			c-0.4,0.4-0.5,1.2-0.5,2.2c0,1.1,0.2,2.1,0.5,3.1c0.2,0.8,0.8,2.2,1.7,4l0.6,2l0.8,2.2l0.4,1.5c0.3,1,0.5,1.5,0.6,1.6
			c0.1,0.2,0.3,0.3,0.5,0.3c0.3,0,0.6-0.6,1-1.7c0.1-0.3,0.2-0.6,0.4-0.9c0.2-0.3,0.4-0.9,0.7-1.8c0.5-1.4,0.8-2.3,0.8-2.6
			c0-0.7-0.5-2.1-1.5-4c-0.3-0.5-0.5-1.2-0.8-2.3C91.6,71.6,91.4,71,91,70c-0.3-0.7-0.6-1.4-1-2.2c-0.1-0.1-0.4-0.3-1-0.6
			c-0.2-0.1-0.3-0.3-0.3-0.7c0-0.6,0.3-0.8,1-0.8L92.4,65.9z"/>
		<path class="st0" d="M113.1,65.8l2.3,0.1c0.9-0.1,1.5-0.2,1.8-0.2c1.1,0,1.7,0.3,1.7,1c0,0.2-0.1,0.4-0.4,0.6
			c-0.5,0.4-0.7,0.7-0.8,1c-0.3,0.8-0.4,2.6-0.4,5.5c0-0.1,0,0,0,0.2c0,0.2,0,0.4,0,0.6c0.1,0.9,0.1,1.7,0.1,2.3v1
			c0,1.3,0,2.4-0.1,3.3c0,0.1,0,0.2,0,0.5c0,0.2,0,0.4,0,0.6c0,0.4,0,0.8,0,1.2v0.2c0,0.1,0,0.2,0,0.3v0.4c0,0.2,0.1,0.6,0.2,1.2
			l0,2l0,0.7c0.1,0.2,0.3,0.4,0.4,0.8c0,0.1,0.1,0.2,0.2,0.3s0.1,0.3,0.2,0.3l0.6,0.6c0.2,0.3,0.3,0.5,0.3,0.7
			c0,0.4-0.1,0.6-0.4,0.6h-1h-0.2c-0.5,0.1-0.8,0.1-1,0.1c0,0-0.1,0-0.2,0c-0.1,0-0.2,0-0.3,0c-0.1,0-0.3,0-0.4,0l-1.7,0
			c-0.4,0-0.8-0.1-1.3-0.2c-0.2-0.1-0.3-0.3-0.3-0.6c0-0.2,0-0.3,0.1-0.3l1-0.8c0.2-0.3,0.4-0.7,0.4-1.2c0-0.1,0-0.2,0-0.3
			c0-0.2,0.1-0.4,0.1-0.6c0-0.2,0.1-0.5,0.1-0.7c0-0.1,0-0.2,0-0.3c0-0.1,0-0.3-0.1-0.7c0-0.4-0.1-0.6-0.1-0.7c0-0.2,0-0.7,0.1-1.7
			c0.1-0.8,0.1-1.3,0.1-1.7c0-0.1-0.1-0.9-0.2-2.3l0.1-1.2c0,0,0-0.1,0-0.1c0-0.1,0-0.2,0-0.3c0-0.1,0-0.2,0-0.4v-0.3v-3.7
			c0-0.2,0-0.3,0-0.5c0-0.3-0.1-0.9-0.2-2l0-2.1c-0.1-0.6-0.4-1.1-0.9-1.6c-0.4-0.4-0.7-0.6-0.7-0.8C112.2,66,112.5,65.8,113.1,65.8
			z"/>
		<path class="st0" d="M123.8,65.9l2.6,0.1c0.4-0.1,1.1-0.1,2.1-0.1l1.1,0c0.6-0.1,0.9,0.1,0.9,0.6c0,0.2-0.1,0.3-0.2,0.4l-0.5,0.3
			l-0.5,0.7c-0.3,0.3-0.4,0.4-0.4,0.6c-0.5,1.3-0.7,2.9-0.7,4.7c0,1.2,0,2.3,0.1,3.5l0,1.7v1.2V81v0.9c0,0.1,0,0.4-0.1,1
			c0,0.1,0,0.4,0,0.7c0,0.3,0,0.6,0.1,1.1c0,0.5,0.1,0.9,0.1,1.1l0.1,1c0,0.2-0.1,0.5-0.2,1v0.3c0,1.2,0.6,1.8,1.8,1.8
			c0.3,0,0.7-0.1,1.3-0.2c0.5,0,1,0,1.6,0l0.4,0h1c0.2,0,0.6-0.3,1.2-0.9c0.7-0.8,1.1-1.3,1.2-1.6c0.5-1,0.9-1.5,1.1-1.5
			c0.3,0,0.4,0.2,0.3,0.5l-0.1,1.7l0.1,1.3v0.5l0,0.7c0,0.6-0.2,1-0.6,1.2c-0.3,0.1-0.7,0.1-1.5,0.1h-1l-2.6-0.1c0,0-0.1,0-0.1,0
			c-0.1,0-0.2,0-0.3,0c-0.2,0-0.3,0-0.4,0h-0.3c-0.4,0.1-0.7,0.1-1,0.1c-0.6,0-1.3-0.1-2.1-0.2c-0.3-0.1-0.6-0.1-0.9-0.1
			c-0.4,0-1.1,0-2.2,0.1c0,0-0.1,0-0.2,0c-0.1,0-0.3,0.1-0.6,0.1c-0.3,0.1-0.5,0.1-0.8,0.2c-0.1,0-0.2,0-0.3,0c-0.6,0-1-0.2-1-0.5
			c0-0.3,0.1-0.5,0.3-0.8c0.2-0.2,0.5-0.4,0.7-0.6c0.7-0.6,1-1.4,1.1-2.5c0.1-0.5,0.1-1.6,0.2-3.3v-1.7c0-0.2,0-0.3,0-0.5
			c0-0.2,0-0.4,0-0.6c0-0.2,0-0.3,0-0.5c0-0.2,0-0.3,0-0.4v-0.2c0-0.6,0.1-1.4,0.2-2.3c0-0.1,0-0.2,0-0.4l0-0.1c0-0.1,0-0.2,0-0.3
			c0-0.2,0-0.3,0-0.5c0-0.2,0-0.4,0-0.6c0-0.2,0-0.4,0-0.6v-4l-0.1-1c0-0.2,0-0.4-0.1-0.7c0-0.3,0-0.6,0-0.7
			c-0.1-0.2-0.3-0.5-0.5-0.8l-0.4-0.7c-0.1-0.1-0.2-0.2-0.4-0.2c-0.2-0.1-0.4-0.2-0.7-0.3c-0.2-0.1-0.3-0.3-0.3-0.5
			c0-0.3,0.2-0.5,0.6-0.5c0.1,0,0.2,0,0.4-0.1C123.6,66,123.7,65.9,123.8,65.9z"/>
		<path class="st0" d="M141.7,65.9c0.5,0,1.1,0.1,1.7,0.2c0.2,0.1,0.3,0.1,0.3,0.1c0.1,0,0.6-0.1,1.7-0.3l2.1-0.1c0,0,0.6,0,1.8,0.1
			c0.8,0,1.9,0.1,3.2,0.1c0.3,0,1.2,0.5,2.7,1.3l0.3,0.2l0.5,0.5c1,0.6,1.8,1.3,2.4,2c0.4,0.4,1,1,1.7,2c0.4,1.2,0.7,2,0.8,2.5
			c0.2,1.1,0.2,1.9,0.2,2.4v2v1.8c0,0.6-0.2,1.7-0.7,3.2c-0.2,0.6-0.3,0.9-0.4,1.1c-0.1,0.2-0.3,0.7-0.7,1.3
			c-0.5,0.8-0.9,1.5-1.2,1.8c-0.5,0.5-1,0.9-1.5,1.2c-0.1,0-0.2,0.1-0.4,0.2c-0.2,0.1-0.4,0.2-0.5,0.3c-0.3,0.1-1,0.4-2.3,0.9
			c-0.2,0.1-0.4,0.2-0.7,0.3c-1,0.4-1.8,0.6-2.2,0.6c-0.3,0-0.8,0-1.4,0c-0.7,0.1-1.1,0.1-1.2,0.1c-0.1,0-0.2,0-0.3,0
			c-0.1,0-0.2,0-0.3,0c-0.1,0-0.2,0-0.4-0.1c-0.2,0-0.5-0.1-0.7-0.1c-0.2,0-0.6,0-1.4,0c-0.4,0-0.8,0-1.2,0l-1.1,0l-1.3,0l-0.7,0
			c-0.4,0-0.6-0.3-0.6-0.8c0-0.3,0.1-0.5,0.3-0.6l1-0.6c0.7-0.5,1-1.4,1-2.5c0-0.2,0-0.6,0.1-1.3c0.1-0.7,0.2-1.1,0.2-1.3
			c0-0.3,0-0.9-0.1-1.8c0-0.1,0-0.2,0-0.3c0-0.1,0-0.2,0-0.3c0.1-0.5,0.1-1,0.1-1.7v-0.2c0-0.2,0-0.3-0.1-0.5c0-0.2,0-0.4,0-0.5
			l0-1.9c0-0.4,0-1.1-0.1-2c0-0.4,0-0.8,0-1.1c0-0.4,0-0.9,0.1-1.3c0.1-0.4,0.2-0.8,0.2-1c0-0.2,0-0.6-0.1-1c0-0.5-0.1-0.8-0.1-1
			c-0.2-0.7-0.3-1.2-0.4-1.4c-0.1-0.2-0.3-0.5-0.5-0.8c-0.1-0.1-0.2-0.1-0.4-0.3c-0.2-0.1-0.4-0.2-0.5-0.3c-0.2-0.1-0.2-0.3-0.2-0.6
			C140.1,66.2,140.6,65.9,141.7,65.9z M149.7,67.6c-2.3,0-3.4,0.8-3.5,2.4c-0.1,0.6-0.2,1.3-0.3,2c0,0,0,0.1,0,0.1
			c0,0.1,0.1,0.6,0.3,1.4V74c0,0,0,0.1,0,0.2c0,0.1,0,0.2,0,0.3c0,0.1,0,0.3,0,0.4c-0.1,0.8-0.1,1.3-0.1,1.7c0,0.9,0,1.7,0,2.3
			c0,0.1,0,0.1-0.1,0.2c0,0.1,0,0.2,0,0.2l0.2,1.8c0,0.5-0.1,0.9-0.1,1.4l0,0.9l-0.1,1c0.1,1,0.2,1.6,0.2,1.6c0,0.2,0,0.7-0.1,1.3
			c0,0.1,0,0.1,0,0.2c0,0.6,0.2,1.2,0.7,1.7c0.4,0.5,1,0.8,1.6,0.8c0.1,0,0.6-0.1,1.4-0.3l1.2-0.2l0.9-0.2c0.4-0.1,0.8-0.3,1.2-0.5
			c0.2-0.1,0.4-0.4,0.8-0.8l0.9-1c0.1-0.1,0.1-0.2,0.3-0.3c0.1-0.1,0.2-0.2,0.3-0.3c0-0.1,0.1-0.1,0.1-0.2c0.1-0.1,0.2-0.2,0.3-0.4
			c0.1-0.2,0.2-0.3,0.3-0.5c0.1-0.1,0.1-0.2,0.3-0.4c0.1-0.2,0.2-0.3,0.3-0.4c0.2-0.2,0.3-0.6,0.4-1c0,0,0-0.2,0.1-0.6
			c0-0.4,0.1-0.8,0.1-1.1l0.3-1.5c0-0.2,0-0.6,0.1-1.2c0.1-0.6,0.1-1,0.1-1.2l-0.1-1l0-1c0-0.3,0-0.9-0.1-1.7c0-0.2-0.3-0.7-0.8-1.6
			c-0.2-0.5-0.7-1.2-1.3-2.1c-0.3-0.3-0.9-0.7-1.7-1.2c-0.5-0.3-0.7-0.5-0.8-0.5c-0.7-0.5-1.1-0.7-1.3-0.8
			C150.7,67.7,150.3,67.6,149.7,67.6z"/>
	</g>
	<g>
		<g>
			<path class="st0" d="M21.6,78.8C21.5,78.8,21.6,78.8,21.6,78.8L21.6,78.8z"/>
			<path class="st0" d="M21.7,78.8L21.7,78.8C21.7,78.8,21.7,78.8,21.7,78.8z"/>
			<path class="st0" d="M22.3,78.8c-0.1,0-0.3,0-0.4,0C22.1,78.8,22.3,78.8,22.3,78.8z"/>
			<polygon class="st0" points="22.1,78.8 22.1,78.8 22.2,78.8 			"/>
			<polygon class="st0" points="22,78.8 22,78.8 22.2,78.8 			"/>
			<path class="st0" d="M22.8,78.8l-0.1,0c-0.1,0,0.1,0,0,0c-0.2,0-0.1,0-0.3,0c0,0,0.4,0,0.3,0C22.9,78.8,22.7,78.8,22.8,78.8z"/>
			<path class="st0" d="M31.4,78.5C31.4,78.5,31.4,78.5,31.4,78.5C31.4,78.5,31.4,78.5,31.4,78.5z"/>
			<path class="st0" d="M33.8,78.4C33.8,78.5,33.9,78.5,33.8,78.4C33.9,78.5,33.9,78.4,33.8,78.4L33.8,78.4z"/>
			<path class="st0" d="M30,78.7C29.9,78.7,29.9,78.7,30,78.7C29.9,78.7,29.9,78.7,30,78.7z"/>
			<path class="st0" d="M45,79C45,79,45,79,45,79L45,79L45,79L45,79z"/>
			<path class="st0" d="M36.4,78.3c0,0,0.1,0,0.1,0C36.5,78.2,36.5,78.2,36.4,78.3z"/>
			<path class="st0" d="M29.1,78.7C29.1,78.7,29.1,78.7,29.1,78.7C29.1,78.7,29.1,78.7,29.1,78.7L29.1,78.7L29.1,78.7z"/>
			<path class="st0" d="M33,78.4C33.1,78.4,33.1,78.4,33,78.4C33.1,78.4,33.1,78.4,33,78.4z"/>
			<path class="st0" d="M25,78.8c0,0,0.1,0,0.1,0C25.1,78.8,25,78.8,25,78.8z"/>
			<path class="st0" d="M25.8,78.8L25.8,78.8C25.8,78.8,25.8,78.8,25.8,78.8z"/>
			<path class="st0" d="M26.4,78.8L26.4,78.8C26.4,78.8,26.4,78.8,26.4,78.8z"/>
			<path class="st0" d="M25.1,78.8c0.1,0,0.1,0,0.2,0l0,0c0.1,0,0.1,0,0.2,0c0,0,0,0,0,0c0,0-0.1,0-0.1,0
				C25.2,78.8,25.2,78.8,25.1,78.8z"/>
			<path class="st0" d="M31.4,78.6C31.4,78.5,31.4,78.6,31.4,78.6L31.4,78.6z"/>
			<path class="st0" d="M30.7,78.6C30.7,78.6,30.7,78.6,30.7,78.6C30.7,78.6,30.7,78.6,30.7,78.6z"/>
			<path class="st0" d="M28,78.7C28,78.7,28,78.7,28,78.7C28,78.6,28,78.7,28,78.7z"/>
			<path class="st0" d="M30.8,78.6C30.8,78.6,30.8,78.6,30.8,78.6C30.8,78.6,30.8,78.6,30.8,78.6z"/>
			<path class="st0" d="M28.8,78.7C28.8,78.7,28.8,78.7,28.8,78.7C28.8,78.7,28.8,78.7,28.8,78.7z"/>
			<path class="st0" d="M56.3,79.9c-0.1,0-0.1,0-0.1-0.1C56,80,56.4,79.8,56.3,79.9C56.3,80,56.3,80,56.3,79.9l0-0.1
				C56.2,79.8,56.4,79.8,56.3,79.9z"/>
			<path class="st0" d="M45.7,79.2L45.7,79.2C45.7,79.2,45.7,79.3,45.7,79.2c0.1,0,0-0.1,0.2-0.2c0,0-0.1,0-0.1,0
				C45.8,79.1,45.8,79.1,45.7,79.2z"/>
			<path class="st0" d="M45.8,79C45.8,79,45.8,79,45.8,79C45.7,79,45.7,79,45.8,79C45.7,79,45.7,79,45.8,79C45.7,79,45.7,79,45.8,79
				z"/>
			<path class="st0" d="M54.5,79.8C54.4,79.8,54.4,79.8,54.5,79.8C54.4,79.8,54.5,79.8,54.5,79.8z"/>
			<path class="st0" d="M36.3,79.1C36.3,79.2,36.2,79.2,36.3,79.1C36.2,79.2,36.3,79.2,36.3,79.1z"/>
			<path class="st0" d="M44.4,79.1C44.4,79.1,44.4,79.1,44.4,79.1c-0.1,0-0.1,0-0.1,0L44.4,79.1z"/>
			<path class="st0" d="M48.7,77.9c0,0.1,0,0,0.1,0.1l0.1-0.1C48.9,77.9,48.8,77.9,48.7,77.9z"/>
			<path class="st0" d="M56.4,80C56.4,80,56.4,80,56.4,80C56.4,79.9,56.4,79.9,56.4,80L56.4,80z"/>
			<path class="st0" d="M51.3,77.8C51.3,77.8,51.3,77.8,51.3,77.8C51.3,77.8,51.3,77.8,51.3,77.8z"/>
			<path class="st0" d="M45.2,78.9l-0.3,0l0.1,0C45.1,78.9,45.2,79,45.2,78.9z"/>
			<path class="st0" d="M47.3,77.9L47.3,77.9c-0.4,0.1-0.7-0.1-1,0.1c-0.4-0.3-0.3,0.3-0.6,0l0,0c-0.6,0-1.2,0-1.8,0
				c-0.6,0-1.2,0-1.8,0.1l0,0c-0.9,0-1.8,0-2.7,0.1c-0.9,0-1.8,0.1-2.7,0.1c-0.2,0-0.1,0.1-0.2,0.2c-0.1,0-0.2,0-0.2,0
				c0.1,0,0.1-0.1,0.1-0.1c-0.2,0-0.5,0-0.6,0l0.2,0c-0.1,0-0.2,0-0.2,0c0,0-0.1-0.1,0-0.1c-0.4,0.1-0.3,0-0.6,0
				c-0.1,0.1-0.5,0.2-0.7,0.3l-0.1,0c0.2,0,0-0.1,0.2-0.1c-0.2,0-0.4,0-0.5,0c0,0,0,0.1,0,0.1c-0.1,0-0.1-0.1-0.2-0.1l0.1,0
				c-0.1,0-0.2,0-0.2,0c0,0-0.2,0-0.2-0.1c-0.2,0.1-0.2,0-0.4,0.1c0.2,0,0,0,0,0.1l0.2,0c-0.3,0,0.1,0,0.1-0.1c0.1,0-0.2,0.1,0,0.1
				c-0.3,0-0.3,0-0.6,0.1c0.2,0,0,0,0.1,0.1c-0.2,0-0.1,0-0.1-0.1c-0.1,0-0.2,0-0.3,0c-0.2,0,0,0-0.1-0.1c0.1,0,0.5,0,0.5-0.1
				c0.1,0,0.2-0.1,0.4-0.1c-0.1,0-0.3-0.1-0.5,0l0,0.1c-0.1,0-0.1,0.1-0.2,0.1c0,0,0-0.1-0.1,0c0,0,0.1,0,0.1,0
				c-0.2,0-0.2,0.1-0.4,0.1c0.2,0,0.2,0,0.4,0.1c0,0.1-0.1,0-0.2,0c0,0,0,0,0,0l-0.1,0c-0.2,0,0-0.1-0.2-0.1c-0.1,0-0.2,0-0.3,0
				c0,0,0,0,0,0c0,0,0,0,0,0l0,0c-0.1,0-0.2,0-0.3,0c0,0-0.1,0-0.1,0c-0.1,0-0.2,0.1-0.3,0c0,0,0,0,0,0c-0.1,0-0.3,0-0.2,0l-0.2,0
				l0,0c-0.2,0-0.2,0-0.3,0.1c-0.2,0-0.4,0-0.5,0c0,0,0,0-0.1,0l0.1,0c-0.2,0-0.1,0-0.3,0c0,0,0,0,0,0c0,0,0,0-0.1,0c0,0,0,0,0.1,0
				l0,0c-0.1,0-0.2,0-0.3,0c0,0,0,0,0.1,0c-0.1,0-0.2-0.1-0.2,0c0,0,0,0-0.1,0l-0.1,0c0,0,0,0,0.1,0c0,0-0.1,0-0.1,0l-0.2,0
				c0,0-0.1,0-0.1,0l0,0c-0.1,0-0.1,0-0.1,0c-0.3,0-0.4,0-0.7,0c-0.1,0,0.1,0,0.1,0c0,0-0.2,0-0.3,0c-0.1,0-0.5,0-0.4-0.1
				c-0.2,0,0.1,0,0,0l0,0c0.1,0,0.1,0,0.2,0c0,0-0.2,0-0.3,0l0,0c-0.2,0-0.2,0-0.3,0.1c-0.2,0-0.1,0-0.1,0l-0.2,0v0
				c-0.1,0-0.1,0-0.3,0c0.1,0-0.2,0-0.1,0c-0.1,0-0.1,0-0.2,0c-0.1,0,0.1,0,0.1,0c0,0-0.2,0-0.3,0c0,0,0.1,0-0.1,0c0,0-0.1,0-0.2,0
				c0,0-0.1,0-0.2,0c0.1,0,0.2,0,0.1,0c-0.1,0-0.1,0-0.3,0l0.1,0c-0.1,0-0.2,0-0.4,0c0.1,0,0.1,0,0.2,0c-0.1,0-0.2,0-0.4,0l-0.1,0
				c0,0-0.2,0-0.2,0c-0.2,0,0.1,0,0.2,0c-0.2,0-0.2,0-0.4,0l0.1,0c-0.1,0-0.2,0-0.2,0c0,0,0,0,0.1,0c0,0-0.3,0-0.3,0l0.1,0
				c-0.2,0-0.3,0-0.4,0c-0.1,0,0.1,0,0.1,0c-0.1,0-0.1,0-0.3,0c0.1,0,0.1,0,0,0c0.1,0,0.3,0,0.3,0l0,0c0,0,0.1,0,0.1,0
				c0.1,0,0.1,0,0.1,0c0.2,0,0,0,0.2,0l0,0c0.1,0,0.3,0,0.3,0c0.1,0,0.2,0,0.3,0c0,0-0.3,0-0.5,0c0.1,0-0.1,0-0.1,0l0.3,0
				c0,0,0.1,0,0.2,0l0,0c0.1,0,0.1,0,0.2,0c0,0,0,0,0,0c0.1,0,0.1,0,0.2,0c0.1,0-0.1,0,0,0c0.1,0,0.2,0,0.3,0c0,0,0.4,0,0.2,0l0.3,0
				c0.1,0-0.2,0-0.1,0l-0.2,0c0,0,0.4,0,0.6,0c0.1,0,0.1,0,0.3,0l0,0c0.1,0,0.1,0,0.1,0c0.1,0,0.1,0,0.2,0c0,0,0,0-0.1,0
				c0.1,0,0.1,0,0.1,0c0,0,0.1,0,0.2,0l-0.1,0c0,0,0.1,0,0.1,0c0,0,0.1,0,0.1,0c0,0-0.1,0-0.2,0c0.3,0,0.4,0,0.7,0c0,0-0.1,0-0.1,0
				c0.1,0,0.2,0,0.2,0c0,0,0,0,0.1,0c0,0,0,0,0.1,0c0,0,0,0,0.1,0c0,0,0.2,0,0.3,0c0,0-0.1,0-0.2,0c0.1,0,0.2,0,0.2,0
				c-0.2,0,0.2,0-0.1,0c0.2,0,0.1,0,0.3,0l0.1,0c0,0-0.2,0-0.2,0l0.1,0c-0.1,0-0.4,0-0.6,0l0.4,0c0.5,0,1.1,0,1.5,0l0,0c0,0,0,0,0,0
				l0,0l0.1,0c0.1,0,0.3,0,0.4,0.1c-0.1,0-0.1,0-0.1,0c0,0,0,0,0.2,0c0,0-0.1,0,0,0c-0.1,0,0,0,0.1,0c0.1,0,0.2,0,0.2,0
				c0,0-0.1,0-0.1,0c0,0,0.1,0,0,0l0.1,0c0.1,0-0.1,0,0,0c0.2,0,0.3-0.1,0.5-0.1c0,0,0,0.1,0,0.1c0.2,0,0.3-0.1,0.5-0.1
				c0,0-0.1,0-0.1,0c0.6,0,1,0,1.5,0.1l0.1-0.1l0.1,0.1c0.5,0.1,1,0,1.5,0c0.2,0,0.1,0.1,0.2,0.1c0.4,0,0.4-0.1,0.8-0.1
				c0,0-0.1,0.1,0,0.1c0,0,0-0.1,0.1,0l0,0c0.1,0,0.2,0,0.3,0c0.3,0,0.6-0.1,0.8-0.2c0.3,0,0,0.1,0,0.1c-0.2,0-0.1,0-0.2,0
				c0.1,0,0.2,0,0.3,0c0.1,0,0.2,0,0.3,0c-0.1,0-0.1,0-0.1,0c0.1,0,0.4,0,0.4,0.1c0.7,0,1.4,0,2.1,0.1c0.1,0-0.1,0,0-0.1
				c0.2-0.1,0.1,0,0.3,0l-0.1,0.1c0.2,0,0.4-0.1,0.6-0.1c0,0.1,0.2,0.1,0,0.1c0.1,0,0.2,0.3,0.3,0.2l-0.1-0.3c0,0,0.1,0,0.1,0
				c0.1,0.1,0.2,0.1,0.3,0.1c0,0.1-0.1,0.1-0.2,0c0,0.1,0.3,0.1,0.2,0.2c0.2,0,0-0.1,0.1-0.1l0.2,0l-0.1,0c0.1,0,0.2-0.1,0.3-0.1
				l0.2-0.1c0,0.1,0.1,0,0.2,0l-0.1,0.1c0.1,0,0.2,0,0.2,0.1c-0.1,0.1-0.1,0-0.1,0.1l0.1,0c0-0.1,0.1-0.1,0-0.1
				c0.1-0.1,0.2-0.2,0.5-0.2c0.1,0.1-0.2,0.1-0.1,0.2c0.3,0.1,0.4-0.3,0.6-0.2c0.2,0,0.2,0,0.5-0.1c-0.1,0.1,0.2,0.1,0.2,0.1
				l-0.1,0.1c0.1,0,0.1,0,0.1,0.1c0-0.1,0.3-0.1,0.5-0.1l0-0.1c0.1,0,0.3-0.1,0.5-0.1c0.2,0,0.2-0.1,0.3-0.2c0.1,0.1,0.1,0.2,0,0.3
				c-0.1,0-0.1,0-0.2,0c-0.3,0.1-0.5,0.2-0.7,0.2c-0.1,0.2,0.2,0,0.3,0.1c0,0,0,0,0,0c0,0,0,0,0,0c-0.1,0-0.2,0.1-0.3,0.2
				c0.2,0,0.1-0.2,0.3-0.1c0.1-0.1,0.3,0.1,0.3,0.1c0.1-0.1,0.1-0.2,0.3-0.2l-0.1,0.1c0.3,0,0.1-0.2,0.4-0.2c-0.1,0,0.1-0.1-0.1-0.1
				c0.1-0.1,0.3-0.1,0.4,0c0,0,0,0,0-0.1c-0.1-0.1-0.2,0.1-0.4,0l-0.1,0.1c-0.1,0-0.2-0.2-0.1-0.2c0,0-0.1,0-0.1,0
				c0-0.2,0.2,0.1,0.2-0.1l-0.1,0c0-0.1,0.2-0.1,0.4-0.1c0.1,0.1,0.3,0.1,0.3,0.2l-0.2,0c0.1,0.1,0.2,0,0.4,0c0,0,0,0,0,0
				c0,0,0,0,0,0c0,0,0,0,0.1,0c0.1,0,0.2-0.1,0.3,0l0-0.1l0,0c-0.1,0-0.2-0.1-0.1-0.1c0.2-0.1,0.2,0.1,0.3,0.2c0,0.1-0.2,0-0.3,0
				c0.1,0.1,0.2,0,0.4,0.1c-0.1,0.1-0.2,0-0.3,0.1c0.2,0,0.2-0.1,0.4,0c0,0.1-0.2,0.1-0.2,0.2l0.1,0c-0.3,0,0,0.2-0.2,0.2
				c0.1,0.1,0.1-0.1,0.3,0c0-0.1-0.2-0.2,0-0.2l0.2,0c0.1,0.1-0.2,0.2-0.1,0.2l0.2,0c0,0-0.1-0.1,0-0.1c0.1,0.1,0.2-0.2,0.3-0.2
				c0.1,0,0.2,0,0.2,0.1c0.2-0.1,0.5-0.1,0.7-0.2c-0.1,0.1,0,0.2,0.1,0.2c-0.2,0-0.2,0.2-0.2,0.3c0.1,0,0.2-0.2,0.1-0.2
				c0.2,0.1,0.1-0.1,0.3,0c0.1,0.1,0,0.1,0,0.2c0.2,0,0-0.2,0.2-0.1c0,0,0,0,0,0.1c0.1,0,0.2,0,0.2-0.1c0.1,0.2,0.3,0,0.3,0.2
				c0.3,0,0-0.1,0-0.2c0.1-0.1,0.3,0,0.4,0c-0.1,0-0.1,0.1-0.2,0l0.1,0.1c0.3,0.1,0.2-0.3,0.5-0.2c-0.2,0.1-0.1,0.1-0.1,0.2
				c0,0,0.3,0,0.1-0.1c0.1,0,0.2,0,0.3,0.1c0.1,0,0.2-0.1,0.3-0.2c0.2,0,0.3,0.1,0.4,0.2c0.3-0.1,0.6,0.1,1,0l0,0
				c0.3,0-0.1-0.2,0.2-0.2c0,0.2,0.2,0.1,0.3,0.2c0.4,0.1,0.6-0.1,0.9,0c0,0,0,0.1-0.1,0.1c0.2,0.1,0.4,0,0.7,0.1l0,0
				c0.4,0.2,0.7,0,1.1,0c0,0,0,0.1-0.1,0.1c0.2,0,0.5,0.1,0.6-0.1c0.2,0.2,0.1-0.1,0.4,0.1c0,0,0,0,0,0c0.1,0.1,0.2,0.1,0.4,0.1
				c0.3-0.1,0.4-0.4,0.8-0.3c0,0.3-0.2,0.1-0.2,0.3c0.1,0,0.1-0.1,0.2,0c-0.1,0.1,0,0.1-0.1,0.2c0.1,0.1,0.3-0.3,0.3-0.3
				c0-0.1,0-0.1-0.1-0.1c0.1-0.2,0.4,0,0.5-0.1c-0.1,0-0.2-0.1-0.2-0.2c0.2,0.1,0.3-0.2,0.5-0.3c0.2,0.1-0.2,0.2-0.1,0.4
				c0,0.1,0.1,0.2,0,0.3c0.2,0,0.3-0.1,0.5-0.2l0,0.1c0.2,0,0.5-0.3,0.7-0.1l-0.1-0.1c0,0,0.2,0,0.2-0.1c0,0.1,0.2,0.2,0.1,0.3
				c0.1-0.3,0.6-0.2,0.7-0.5c0.1,0.1,0,0.2,0,0.3c-0.2,0-0.2-0.1-0.3,0c0.1,0,0.2,0.1,0.2,0.2c0.1-0.2,0.4-0.3,0.5-0.5
				c0.1,0.1,0.2,0.2,0.1,0.3c0.4-0.1-0.2-0.5,0.2-0.5c0.2,0.2-0.2,0.2,0.1,0.3l-0.1,0c0.2,0.4,0.1-0.3,0.4-0.3c0,0.2-0.2,0.2,0,0.3
				c0.2-0.1,0.3-0.4,0.5-0.3l0,0.1c0.1,0,0.4,0,0.5,0c0,0,0,0,0,0.1c0.2,0.1,0.1-0.1,0.3,0l0.1-0.1c-0.1-0.1-0.3-0.2-0.4-0.1
				c0.1-0.1-0.2-0.3-0.1-0.5l0,0.1c-0.3-0.4-0.8-0.4-1.2-0.5c-0.3,0.2-0.5-0.1-0.7,0.1c0,0.3-0.1,0.1-0.3,0.1c0.1,0,0-0.2-0.1-0.2
				c0,0.1-0.1,0.1-0.2,0.1c0-0.1-0.4-0.3-0.5-0.1c-0.1-0.1,0-0.1,0.1-0.1c-0.1-0.1-0.1,0.1-0.2,0c0,0,0,0,0,0
				c-0.2,0-0.4-0.1-0.6-0.1c0,0.3-0.2,0.1-0.3,0.2c0-0.1-0.1-0.1-0.2-0.1l-0.1,0.2c-0.1,0.2-0.2-0.1-0.3,0l0,0
				c-0.1,0.1-0.4-0.1-0.6-0.2c-0.6,0.3-1,0.2-1.4,0.1c-0.4-0.1-0.9-0.2-1.5-0.2c-0.1,0.1,0.1,0.1,0,0.2c-0.1,0-0.1,0-0.3,0
				c0.1,0.1,0.1,0,0.1,0l0.2-0.1c0,0,0,0,0,0.1c0.1,0,0.1-0.1,0.2-0.1c-0.1,0.1-0.1,0.2-0.3,0.2c0,0,0,0,0.1,0c-0.1,0-0.1,0.1-0.2,0
				c-0.1,0-0.1,0-0.1-0.1l-0.3-0.1c-0.2,0.2-0.4,0-0.4,0c0-0.1,0.2,0,0.3-0.2l-0.1-0.1l0,0.1l-0.2,0l0,0c0,0,0,0.1-0.1,0.1
				c0,0,0,0,0-0.1l-0.1,0.1c0.1-0.1-0.1,0-0.1-0.2c-0.4-0.1-0.5,0.2-0.8,0c0.1,0.1-0.1,0.2-0.2,0.2c-0.1,0-0.1-0.1,0-0.1l-0.1,0.1
				c-0.2-0.2-0.3-0.1-0.6-0.1l0-0.1c-0.1,0.1-0.2,0.1-0.3,0.1l0-0.1c-0.2-0.1-0.1,0.2-0.3,0.2c0,0.1,0.1,0.2,0.1,0.3
				c0-0.1-0.3-0.1-0.2,0c-0.2,0.1-0.1,0-0.1,0l-0.1,0.1c-0.1,0,0-0.2,0-0.2c-0.1,0.1-0.3,0-0.4,0l0.1-0.1l-0.2,0
				c-0.1,0.1-0.3,0.1-0.5,0.1l0.1-0.2c-0.1-0.1-0.1,0.1-0.1,0.1c-0.2,0.1-0.2,0-0.3-0.1C47.9,78,47.6,77.6,47.3,77.9z M28,78.7
				L28,78.7C28,78.7,28,78.7,28,78.7z M29.6,78.7c-0.2,0-0.1,0-0.1,0c0.2,0,0.3,0,0.4,0c0,0,0,0,0,0c0.1,0,0.1,0,0.2,0
				C29.9,78.7,29.5,78.6,29.6,78.7z M26.1,78.8C26.1,78.8,26.1,78.8,26.1,78.8L26.1,78.8L26.1,78.8z M27,78.8
				C27,78.8,27,78.8,27,78.8C27.1,78.8,27,78.8,27,78.8z M28.8,78.9c0,0,0.1,0,0.2,0C29,78.9,29,78.9,28.8,78.9z M40.4,79
				C40.3,79.1,40.2,79.1,40.4,79c0,0.1,0.1,0.1,0.1,0.1c0,0,0,0,0,0C40.4,79.1,40.4,79,40.4,79z M45.8,78.7c0,0.1-0.1,0.1,0,0.2
				c0,0,0,0,0,0c0,0,0,0,0,0c0,0,0.1,0,0.1,0C45.9,78.7,46,78.7,45.8,78.7z"/>
			<path class="st0" d="M44,79.4C44,79.4,44,79.4,44,79.4C44,79.4,44,79.4,44,79.4z"/>
			<path class="st0" d="M45.9,78.9c0,0,0,0-0.1-0.1C45.8,78.8,45.8,78.9,45.9,78.9z"/>
			<path class="st0" d="M23.1,78.7L23.1,78.7L23.1,78.7c-0.2,0-0.2,0-0.3,0c0.2,0,0.3,0,0.5,0L23.1,78.7z"/>
			<path class="st0" d="M23.2,78.8C23.2,78.8,23.3,78.8,23.2,78.8l0.1,0L23.2,78.8z"/>
			<path class="st0" d="M25.3,78.9l-0.2,0C25.1,78.8,25.3,78.9,25.3,78.9z"/>
			<path class="st0" d="M24.6,78.7L24.6,78.7c0,0,0.1,0,0.1,0C24.6,78.7,24.7,78.7,24.6,78.7z"/>
			<path class="st0" d="M25.8,78.9c0.1,0,0.2,0,0.2,0C25.9,78.9,25.8,78.8,25.8,78.9z"/>
			<path class="st0" d="M25.7,78.7c-0.1,0-0.1,0-0.3,0C25.5,78.7,25.6,78.7,25.7,78.7z"/>
			<path class="st0" d="M26.7,78.8c0,0-0.1,0-0.2,0C26.6,78.8,26.6,78.8,26.7,78.8c-0.2,0-0.2,0-0.3,0
				C26.5,78.8,26.6,78.9,26.7,78.8C26.7,78.9,26.8,78.8,26.7,78.8z"/>
			<path class="st0" d="M25.9,78.7c-0.1,0-0.1,0-0.3,0C25.7,78.7,25.7,78.7,25.9,78.7l-0.1,0C25.9,78.7,25.8,78.7,25.9,78.7z"/>
			<path class="st0" d="M27.2,78.9L27.2,78.9c-0.2,0-0.3,0-0.4,0C26.9,78.9,27.1,78.9,27.2,78.9z"/>
			<path class="st0" d="M26.4,78.7L26.4,78.7C26.2,78.7,26.4,78.7,26.4,78.7c-0.1,0-0.1,0-0.1,0C26.4,78.7,26.2,78.7,26.4,78.7z"/>
			<path class="st0" d="M26.8,78.7l0.2,0L26.8,78.7C26.6,78.6,26.8,78.7,26.8,78.7z"/>
			<path class="st0" d="M27,78.7L27,78.7l0.3,0C27.1,78.7,27.1,78.7,27,78.7z"/>
			<path class="st0" d="M29.9,78.9C29.9,78.9,29.8,78.9,29.9,78.9C29.8,78.9,30,79,29.9,78.9z"/>
			<path class="st0" d="M29.3,78.6c0.1,0,0.3,0,0.4,0C29.6,78.6,29.3,78.6,29.3,78.6z"/>
			<path class="st0" d="M29.7,78.6C29.7,78.6,29.7,78.6,29.7,78.6C29.7,78.6,29.7,78.6,29.7,78.6z"/>
			<path class="st0" d="M33.9,78.3C33.9,78.3,33.9,78.3,33.9,78.3C33.9,78.3,33.9,78.3,33.9,78.3z"/>
			<path class="st0" d="M33.8,78.3c-0.1,0-0.2,0-0.2,0C33.7,78.4,33.8,78.4,33.8,78.3C33.8,78.3,33.8,78.3,33.8,78.3z"/>
			<path class="st0" d="M34.7,78.3c0,0-0.1,0-0.1,0C34.7,78.4,34.8,78.3,34.7,78.3z"/>
			<path class="st0" d="M41.1,79.4c0.1,0,0.1,0,0.1-0.1C41.1,79.3,41.2,79.4,41.1,79.4z"/>
			<polygon class="st0" points="41.4,79.3 41.4,79.4 41.4,79.4 			"/>
			<path class="st0" d="M42,79.4C42,79.5,42,79.5,42,79.4C42,79.5,42,79.5,42,79.4z"/>
			<path class="st0" d="M41.9,79.5C41.9,79.5,41.9,79.5,41.9,79.5C41.9,79.5,41.9,79.5,41.9,79.5z"/>
			<path class="st0" d="M41.9,79.5L41.9,79.5C41.9,79.5,41.9,79.5,41.9,79.5C41.9,79.5,41.9,79.5,41.9,79.5z"/>
			<path class="st0" d="M42.2,79.5l-0.1-0.1c-0.1,0,0.1,0.1,0,0.2L42.2,79.5z"/>
			<path class="st0" d="M42.6,79.5c0.1,0,0.3-0.1,0.3,0c0.3-0.1-0.1-0.2,0.3-0.3c-0.4-0.1-0.2,0.2-0.5,0.2
				C42.9,79.4,42.6,79.4,42.6,79.5z"/>
			<path class="st0" d="M42.5,79.2c0,0.1,0.1,0.1,0.2,0C42.7,79.3,42.6,79.2,42.5,79.2z"/>
			<polygon class="st0" points="43.2,79.4 43.3,79.5 43.4,79.4 			"/>
			<path class="st0" d="M43.6,79.5L43.6,79.5C43.5,79.5,43.7,79.5,43.6,79.5z"/>
			<path class="st0" d="M44.1,79.6c0.1,0,0.2-0.1,0-0.1l0,0C44.1,79.5,44.3,79.6,44.1,79.6z"/>
			<path class="st0" d="M45.3,79.3c-0.1,0-0.1,0-0.1,0.1L45.3,79.3L45.3,79.3z"/>
			<path class="st0" d="M45.3,78.9c-0.1-0.1-0.2,0-0.3,0C45.2,78.9,45.2,78.9,45.3,78.9z"/>
			<path class="st0" d="M45.5,79.5c0,0-0.1,0-0.2,0C45.4,79.6,45.5,79.5,45.5,79.5z"/>
			<path class="st0" d="M45.8,79.5C45.9,79.5,45.8,79.5,45.8,79.5c0.2,0.2,0.3,0.2,0.3,0.1c0-0.1-0.1-0.2,0-0.2
				C45.9,79.3,45.8,79.5,45.8,79.5l-0.2,0.1C45.7,79.6,45.7,79.4,45.8,79.5z"/>
			<path class="st0" d="M45.4,79.1l0.1,0.1c0-0.1,0.1-0.1,0.1-0.1C45.6,78.9,45.5,79.1,45.4,79.1z"/>
			<polygon class="st0" points="46.9,79.4 47.1,79.4 47,79.3 			"/>
			<polygon class="st0" points="47,79.4 47,79.5 47.2,79.4 			"/>
			<polygon class="st0" points="47.3,79.5 47.2,79.5 47.1,79.5 			"/>
			<path class="st0" d="M47.7,79.5L47.7,79.5c-0.1-0.1-0.2-0.1-0.2,0C47.6,79.5,47.7,79.5,47.7,79.5z"/>
			<path class="st0" d="M49.2,77.8c0,0,0,0.1,0,0.1L49.2,77.8C49.3,77.8,49.2,77.8,49.2,77.8z"/>
			<path class="st0" d="M49.5,78l0.2-0.1c-0.2,0-0.2,0.1-0.4,0.1C49.3,78,49.4,77.9,49.5,78L49.5,78z"/>
			<path class="st0" d="M52.7,78c0,0.1,0,0.1-0.1,0.2c0.2-0.1,0.3,0,0.5-0.1c0-0.1,0.1-0.2,0-0.1L52.9,78l0-0.1
				C52.8,77.9,52.9,78.1,52.7,78z"/>
			<path class="st0" d="M61.2,79.1c0,0.1,0,0.1,0,0.2C61.4,79.3,61.2,79.2,61.2,79.1z"/>
		</g>
		<g>
			<path class="st0" d="M218.4,78.8C218.5,78.8,218.4,78.8,218.4,78.8L218.4,78.8z"/>
			<path class="st0" d="M218.3,78.8L218.3,78.8C218.3,78.8,218.3,78.8,218.3,78.8z"/>
			<path class="st0" d="M217.7,78.8c0.1,0,0.3,0,0.4,0C217.9,78.8,217.7,78.8,217.7,78.8z"/>
			<polygon class="st0" points="217.9,78.8 217.9,78.8 217.8,78.8 			"/>
			<polygon class="st0" points="218,78.8 218,78.8 217.8,78.8 			"/>
			<path class="st0" d="M217.2,78.8l0.1,0c0.1,0-0.1,0,0,0c0.2,0,0.1,0,0.3,0c0,0-0.4,0-0.3,0C217.1,78.8,217.3,78.8,217.2,78.8z"/>
			<path class="st0" d="M208.6,78.5C208.6,78.5,208.6,78.5,208.6,78.5C208.6,78.5,208.6,78.5,208.6,78.5z"/>
			<path class="st0" d="M206.2,78.4C206.2,78.5,206.1,78.5,206.2,78.4C206.1,78.5,206.1,78.4,206.2,78.4L206.2,78.4z"/>
			<path class="st0" d="M210,78.7C210.1,78.7,210.1,78.7,210,78.7C210.1,78.7,210.1,78.7,210,78.7z"/>
			<path class="st0" d="M195,79C195,79,195,79,195,79C195,79,195,79,195,79L195,79L195,79z"/>
			<path class="st0" d="M203.6,78.3c0,0-0.1,0-0.1,0C203.5,78.2,203.5,78.2,203.6,78.3z"/>
			<path class="st0" d="M210.9,78.7C210.9,78.7,210.9,78.7,210.9,78.7C210.9,78.7,210.9,78.7,210.9,78.7L210.9,78.7L210.9,78.7z"/>
			<path class="st0" d="M207,78.4C206.9,78.4,206.9,78.4,207,78.4C206.9,78.4,206.9,78.4,207,78.4z"/>
			<path class="st0" d="M215,78.8c0,0-0.1,0-0.1,0C214.9,78.8,215,78.8,215,78.8z"/>
			<path class="st0" d="M214.2,78.8L214.2,78.8C214.2,78.8,214.2,78.8,214.2,78.8z"/>
			<path class="st0" d="M213.6,78.8L213.6,78.8C213.6,78.8,213.6,78.8,213.6,78.8z"/>
			<path class="st0" d="M214.9,78.8c-0.1,0-0.1,0-0.2,0l0,0c-0.1,0-0.1,0-0.2,0c0,0,0,0,0,0c0,0,0.1,0,0.1,0
				C214.8,78.8,214.8,78.8,214.9,78.8z"/>
			<path class="st0" d="M208.6,78.6C208.6,78.5,208.6,78.6,208.6,78.6L208.6,78.6z"/>
			<path class="st0" d="M209.3,78.6C209.3,78.6,209.3,78.6,209.3,78.6C209.3,78.6,209.3,78.6,209.3,78.6z"/>
			<path class="st0" d="M212,78.7C212,78.7,212,78.7,212,78.7C212,78.6,212,78.7,212,78.7z"/>
			<path class="st0" d="M209.2,78.6C209.2,78.6,209.2,78.6,209.2,78.6C209.2,78.6,209.2,78.6,209.2,78.6z"/>
			<path class="st0" d="M211.2,78.7C211.2,78.7,211.2,78.7,211.2,78.7C211.2,78.7,211.2,78.7,211.2,78.7z"/>
			<path class="st0" d="M183.7,79.9c0.1,0,0.1,0,0.1-0.1C184,80,183.6,79.8,183.7,79.9C183.7,80,183.7,80,183.7,79.9l0-0.1
				C183.8,79.8,183.6,79.8,183.7,79.9z"/>
			<path class="st0" d="M194.3,79.2L194.3,79.2C194.3,79.2,194.3,79.3,194.3,79.2c-0.1,0,0-0.1-0.2-0.2c0,0,0.1,0,0.1,0
				C194.2,79.1,194.2,79.1,194.3,79.2z"/>
			<path class="st0" d="M194.2,79C194.2,79,194.2,79,194.2,79C194.3,79,194.3,79,194.2,79C194.3,79,194.3,79,194.2,79
				C194.3,79,194.3,79,194.2,79z"/>
			<path class="st0" d="M185.5,79.8C185.6,79.8,185.6,79.8,185.5,79.8C185.6,79.8,185.5,79.8,185.5,79.8z"/>
			<path class="st0" d="M203.7,79.1C203.7,79.2,203.8,79.2,203.7,79.1C203.8,79.2,203.7,79.2,203.7,79.1z"/>
			<path class="st0" d="M195.6,79.1C195.6,79.1,195.6,79.1,195.6,79.1c0.1,0,0.1,0,0.1,0L195.6,79.1z"/>
			<path class="st0" d="M191.3,77.9c0,0.1,0,0-0.1,0.1l-0.1-0.1C191.1,77.9,191.2,77.9,191.3,77.9z"/>
			<path class="st0" d="M183.6,80C183.6,80,183.6,80,183.6,80C183.6,79.9,183.6,79.9,183.6,80L183.6,80z"/>
			<path class="st0" d="M188.7,77.8C188.7,77.8,188.7,77.8,188.7,77.8C188.7,77.8,188.7,77.8,188.7,77.8z"/>
			<path class="st0" d="M194.8,78.9l0.3,0l-0.1,0C194.9,78.9,194.8,79,194.8,78.9z"/>
			<path class="st0" d="M191.9,77.8c-0.1,0.1-0.1,0.2-0.3,0.1c0,0,0-0.2-0.1-0.1l0.1,0.2c-0.2,0-0.3,0-0.5-0.1l-0.2,0L191,78
				c-0.1,0-0.3,0.1-0.4,0c0,0.1,0.1,0.2,0,0.2l-0.1-0.1c0,0,0,0.1-0.1,0c0-0.1-0.2-0.1-0.2,0c0-0.1,0.1-0.2,0.1-0.3
				c-0.2,0.1-0.2-0.2-0.3-0.2l0,0.1c-0.1,0-0.2,0-0.3-0.1l0,0.1c-0.3,0.1-0.4-0.1-0.6,0.1l-0.1-0.1c0,0.1,0,0.1,0,0.1
				c-0.1,0-0.3-0.1-0.2-0.2c-0.3,0.2-0.5-0.1-0.8,0c0,0.1-0.2,0-0.1,0.2l-0.1-0.1c0,0,0,0,0,0.1c0,0-0.1,0-0.1-0.1l0,0l-0.2,0l0-0.1
				l-0.1,0.1c0.1,0.1,0.3,0,0.3,0.2c-0.1,0-0.3,0.2-0.4,0l-0.3,0.1c0,0.1,0,0-0.1,0.1c-0.1,0-0.1,0-0.2,0c0,0,0.1,0,0.1,0
				c-0.1,0.1-0.2-0.1-0.3-0.2c0.1,0,0.1,0,0.2,0.1c0,0,0,0,0-0.1l0.2,0.1c0-0.1,0,0,0.1,0c-0.1,0-0.1,0-0.3,0
				c-0.1-0.1,0.1-0.1,0-0.2c-0.6-0.1-1,0.1-1.5,0.2c-0.4,0.1-0.9,0.2-1.4-0.1c-0.1,0.1-0.4,0.3-0.6,0.2l0,0c-0.2-0.1-0.2,0.2-0.3,0
				l-0.1-0.2c-0.1,0-0.2,0.1-0.2,0.1c-0.1-0.1-0.3,0.1-0.3-0.2c-0.2,0-0.4,0.1-0.6,0.1c0,0,0,0,0,0c0,0.1-0.1-0.2-0.2,0
				c0,0.1,0.2,0.1,0.1,0.1c-0.1-0.2-0.4,0-0.5,0.1c-0.1,0-0.1-0.1-0.2-0.1c-0.1,0-0.2,0.2-0.1,0.2c-0.2-0.1-0.3,0.2-0.3-0.1
				c-0.3-0.2-0.5,0.2-0.7-0.1c-0.4,0.1-0.9,0.2-1.2,0.5l0-0.1c0.1,0.2-0.3,0.4-0.1,0.5c-0.1-0.1-0.3,0-0.4,0.1l0.1,0.1
				c0.2-0.2,0.1,0,0.3,0c0,0,0,0,0-0.1c0.1,0,0.4,0,0.5,0l0-0.1c0.2-0.1,0.3,0.3,0.5,0.3c0.2-0.2,0-0.1,0-0.3c0.2,0,0.2,0.7,0.4,0.3
				l-0.1,0c0.3-0.1-0.1-0.1,0.1-0.3c0.4,0-0.1,0.4,0.2,0.5c0-0.2,0.1-0.2,0.1-0.3c0.1,0.2,0.4,0.3,0.5,0.5c0-0.1,0.1-0.2,0.2-0.2
				c-0.1-0.1-0.1-0.1-0.3,0c0-0.1-0.1-0.2,0-0.3c0.1,0.3,0.6,0.2,0.7,0.5c-0.1-0.1,0.1-0.2,0.1-0.3c0.1,0.1,0.2,0.1,0.2,0.1
				l-0.1,0.1c0.2-0.1,0.5,0.1,0.7,0.1l0-0.1c0.2,0,0.3,0.2,0.5,0.2c-0.1-0.1,0-0.2,0-0.3c0-0.2-0.3-0.3-0.1-0.4
				c0.2,0.1,0.2,0.4,0.5,0.3c0.1,0.1-0.1,0.2-0.2,0.2c0.2,0.1,0.4-0.1,0.5,0.1c-0.1,0-0.1,0-0.1,0.1c0,0,0.2,0.3,0.3,0.3
				c0-0.1,0-0.1-0.1-0.2c0.1-0.1,0.2,0,0.2,0c0-0.2-0.2,0-0.2-0.3c0.4-0.1,0.4,0.2,0.8,0.3c0.1,0,0.2,0,0.4-0.1c0,0-0.1,0,0,0
				c0.3-0.2,0.2,0.1,0.4-0.1c0.1,0.2,0.4,0.1,0.6,0.1c0,0,0-0.1-0.1-0.1c0.4,0,0.7,0.2,1.1,0l0,0c0.2,0,0.4,0,0.7-0.1
				c-0.1,0-0.1,0-0.1-0.1c0.3-0.1,0.6,0.1,0.9,0c0.1-0.1,0.3,0,0.3-0.2c0.3,0-0.1,0.2,0.2,0.2l0,0c0.4,0.1,0.7-0.1,1,0
				c0.1-0.1,0.2-0.2,0.4-0.2c0.1,0.1,0.2,0.1,0.3,0.2c0.1,0,0.2-0.1,0.3-0.1c-0.1,0.1,0.1,0.1,0.1,0.1c-0.1-0.1,0-0.1-0.1-0.2
				c0.3-0.1,0.2,0.3,0.5,0.2l0.1-0.1c-0.1,0-0.1,0-0.2,0c0.1,0,0.3-0.1,0.4,0c0.1,0.1-0.2,0.1,0,0.2c0-0.2,0.2,0,0.3-0.2
				c0,0.1,0.1,0.1,0.2,0.1c0,0,0,0,0-0.1c0.2,0,0.1,0.1,0.2,0.1c0-0.1-0.1-0.1,0-0.2c0.1-0.1,0.1,0.1,0.3,0c-0.1,0,0,0.2,0.1,0.2
				c0-0.1,0-0.2-0.2-0.3c0.1-0.1,0.2-0.1,0.1-0.2c0.2,0.1,0.5,0.1,0.7,0.2c0-0.1,0.1-0.1,0.2-0.1c0.1,0.1,0.2,0.3,0.3,0.2
				c0,0.1,0,0.1,0,0.1l0.2,0c0.1-0.1-0.1-0.1-0.1-0.2l0.2,0c0.1,0.1,0,0.2,0,0.2c0.1-0.1,0.2,0.1,0.3,0c-0.2,0,0.1-0.2-0.2-0.2
				l0.1,0c0-0.1-0.2-0.1-0.2-0.2c0.2,0,0.2,0.1,0.4,0c0-0.1-0.2,0-0.3-0.1c0.2-0.1,0.4,0,0.4-0.1c-0.1,0-0.3,0.1-0.3,0
				c0-0.1,0.1-0.2,0.3-0.2c0.1,0.1-0.1,0.1-0.1,0.1l0,0l0,0.1c0.1,0,0.2,0,0.3,0c0,0,0,0,0.1,0c0,0,0,0,0,0c0,0,0,0,0,0
				c0.1,0,0.3,0.1,0.4,0l-0.2,0c0-0.1,0.1-0.1,0.3-0.2c0.1,0,0.4,0,0.4,0.1l-0.1,0c0,0.2,0.2-0.1,0.2,0.1c0,0-0.1,0-0.1,0
				c0.1,0.1,0.1,0.2-0.1,0.2L195,79c-0.1,0.1-0.2,0-0.4,0c0,0,0,0.1,0,0.1c0.1,0,0.3,0,0.4,0c-0.2,0,0,0.1-0.1,0.1
				c0.2,0,0.1,0.2,0.4,0.2l-0.1-0.1c0.2,0,0.2,0.1,0.3,0.2c0.1,0,0.2-0.2,0.3-0.1c0.2-0.1,0.2,0.1,0.3,0.1c0-0.1-0.2-0.1-0.3-0.2
				c0,0,0,0,0,0c0,0,0,0,0,0c0.1-0.1,0.4,0.1,0.3-0.1c-0.3,0-0.5-0.1-0.7-0.2c-0.1,0-0.2,0-0.2,0c0-0.1,0-0.2,0-0.3
				c0.2,0.1,0.1,0.2,0.3,0.2c0.1,0,0.3,0,0.5,0.1l0,0.1c0.2,0,0.5,0,0.5,0.1c0-0.1,0-0.1,0.1-0.1l-0.1-0.1c0-0.1,0.3-0.1,0.2-0.1
				c0.2,0,0.2,0.1,0.5,0.1c0.2,0,0.3,0.3,0.6,0.2c0.1-0.1-0.2-0.1-0.1-0.2c0.3,0,0.4,0.1,0.5,0.2c-0.1,0,0,0.1,0,0.1l0.1,0
				c0-0.1-0.1,0-0.1-0.1c0.1,0,0.1-0.1,0.2-0.1l-0.1-0.1c0.1,0,0.2,0.1,0.2,0l0.2,0.1c0.2-0.1,0.2,0,0.3,0.1l-0.1,0l0.2,0
				c0.1,0-0.1,0.1,0.1,0.1c-0.1-0.1,0.2-0.1,0.2-0.2c-0.1,0-0.2,0-0.2,0c0.1,0,0.2-0.1,0.3-0.1c0,0,0.1,0,0.1,0l-0.1,0.3
				c0.1,0.1,0.2-0.2,0.3-0.2c-0.2,0,0,0,0-0.1c0.2,0.1,0.4,0.2,0.6,0.1l-0.1-0.1c0.1,0.1,0.1-0.1,0.3,0c0.1,0-0.1,0,0,0.1
				c0.7,0,1.5-0.1,2.1-0.1c0-0.1,0.3-0.1,0.4-0.1c0.1,0,0,0.1-0.1,0c0.1,0,0.2,0,0.3,0c0.1-0.1,0.2-0.1,0.3,0c0,0,0-0.1-0.2,0
				c0.1,0-0.2-0.1,0-0.1c0.3,0.1,0.5,0.2,0.8,0.2c0.2,0,0.3,0,0.3,0l0,0c0.1,0,0.1,0,0.1,0c0.1,0,0.1-0.1,0-0.1
				c0.3,0,0.4,0.1,0.8,0.1c0.1,0,0-0.1,0.2-0.1c0.5,0,0.9,0.1,1.5,0l0.1-0.1l0.1,0.1c0.5-0.1,1-0.1,1.5-0.1c-0.1,0-0.1,0-0.1,0
				c0.2,0,0.4,0.1,0.5,0.1c0,0,0,0,0-0.1c0.2,0,0.3,0.1,0.5,0.1c0,0-0.1,0,0,0l0.1,0c-0.1,0,0.1,0,0,0c0,0-0.1,0-0.1,0
				c0,0,0.1,0,0.2,0c0.1,0,0.1,0,0.1,0c0.1,0,0,0,0,0c0.1,0,0.1,0,0.2,0c0,0,0,0-0.1,0c0.1,0,0.3,0,0.4-0.1l0.1,0l0,0c0,0,0,0,0,0
				l0,0c0.4,0.1,1,0,1.5,0l0.4,0c-0.2,0-0.5,0-0.6,0l0.1,0c0,0-0.1,0-0.2,0l0.1,0c0.2,0,0.1,0.1,0.3,0c-0.2,0,0.1,0-0.1,0
				c0.1,0,0.1,0,0.2,0c-0.1,0-0.1,0-0.2,0c0,0,0.3,0,0.3,0c0,0,0.1,0,0.1,0c0.1,0,0.1,0,0.1,0c0,0,0,0,0.1,0c0,0,0.1,0,0.2,0
				c0,0-0.1,0-0.1,0c0.2,0,0.4,0,0.7,0c-0.1,0-0.1,0-0.2,0c0,0,0.1,0,0.1,0c0,0,0.1,0,0.1,0l-0.1,0c0.1,0,0.1,0,0.2,0
				c0,0,0.1,0,0.1,0c0,0-0.1,0-0.1,0c0.1,0,0.1,0,0.2,0c0,0,0,0,0.1,0l0,0c0.2,0,0.2,0,0.3,0c0.1,0,0.5,0,0.6,0l-0.2,0
				c0.1,0-0.2,0-0.1,0l0.3,0c-0.2,0,0.2,0,0.2,0c0.1,0,0.2,0,0.3,0c0.1,0-0.1,0,0,0c0.1,0,0.1,0,0.2,0c0,0,0,0,0,0
				c0.1,0,0.1,0,0.2,0l0,0c0.1,0,0.2,0,0.2,0l0.3,0c0,0-0.2,0-0.1,0c-0.1,0-0.5,0-0.5,0c0.1,0,0.2,0,0.3,0c0,0,0.2,0,0.3,0l0,0
				c0.2,0,0,0,0.2,0c0,0,0,0,0.1,0c0,0,0.1,0,0.1,0l0,0c0,0,0.2,0,0.3,0c-0.1,0-0.1,0,0,0c-0.2,0-0.1,0-0.3,0c0.1,0,0.2,0,0.1,0
				c-0.1,0-0.2,0-0.4,0l0.1,0c0,0-0.3,0-0.3,0c0,0,0.1,0,0.1,0c0,0-0.2,0-0.2,0l0.1,0c-0.2,0-0.2,0-0.4,0c0,0,0.3,0,0.2,0
				c0,0-0.1,0-0.2,0l-0.1,0c-0.1,0-0.3,0-0.4,0c0.1,0,0.1,0,0.2,0c-0.2,0-0.3,0-0.4,0l0.1,0c-0.1,0-0.2,0-0.3,0c-0.1,0,0.1,0,0.1,0
				c-0.1,0-0.2,0-0.2,0c-0.1,0-0.2,0-0.2,0c-0.1,0,0,0-0.1,0c-0.1,0-0.3,0-0.3,0c0,0,0.2,0,0.1,0c0,0-0.1,0-0.2,0c0.2,0-0.2,0-0.1,0
				c-0.2,0-0.2,0-0.3,0v0l-0.2,0c0,0,0.1,0-0.1,0c-0.1,0-0.1-0.1-0.3-0.1l0,0c-0.1,0-0.3,0-0.3,0c0,0,0.1,0,0.2,0l0,0
				c-0.1,0,0.2,0,0,0c0.1,0-0.3,0-0.4,0.1c-0.1,0-0.2,0-0.3,0c0,0,0.1,0,0.1,0c-0.3,0-0.4,0-0.7,0c0,0,0,0-0.1,0l0,0
				c0,0-0.1,0-0.1,0l-0.2,0c0,0,0,0-0.1,0c0,0,0,0,0.1,0l-0.1,0c0,0-0.1,0-0.1,0c0,0-0.1,0-0.2,0c0,0,0,0,0.1,0c-0.1,0-0.2,0-0.3,0
				l0,0c0,0,0,0,0.1,0c0,0,0,0-0.1,0c-0.1,0-0.1,0,0,0c-0.1,0-0.1,0-0.3,0l0.1,0c0,0-0.1,0-0.1,0c-0.1,0-0.4,0-0.5,0
				c-0.1,0-0.1-0.1-0.3-0.1l0,0l-0.2,0c0,0-0.1,0-0.2,0c0,0,0,0,0,0c-0.1,0.1-0.3,0-0.3,0c0,0-0.1,0-0.1,0c0,0-0.2,0-0.3,0l0,0
				c0,0,0,0,0,0c0,0,0,0,0,0c-0.1,0-0.1,0-0.3,0c-0.2,0,0.1,0.1-0.2,0.1l-0.1,0c0,0,0,0,0,0c-0.1,0-0.2,0-0.2,0c0.2,0,0.2,0,0.4-0.1
				c-0.2,0-0.2-0.1-0.4-0.1c0,0,0,0,0.1,0c-0.1,0-0.2,0-0.1,0c-0.1,0-0.1,0-0.2-0.1l0-0.1c-0.2,0-0.3,0-0.5,0c0.1,0,0.3,0.1,0.4,0.1
				c-0.1,0.1,0.4,0,0.5,0.1c-0.1,0,0.1,0.1-0.1,0.1c-0.1,0-0.2,0-0.3,0c-0.1,0,0.1,0.1-0.1,0.1c0.1,0-0.1-0.1,0.1-0.1
				c-0.3-0.1-0.4,0-0.6-0.1c0.2,0-0.1-0.1,0-0.1c0,0.1,0.4,0.1,0.1,0.1l0.2,0c0,0-0.2,0,0-0.1c-0.2,0-0.2,0-0.4-0.1
				c0,0-0.2,0-0.2,0.1c-0.1,0-0.2-0.1-0.2,0l0.1,0c-0.1,0-0.1,0-0.2,0.1c-0.1,0-0.1,0,0-0.1c-0.2,0-0.4,0-0.5,0c0.2,0,0,0.1,0.2,0.1
				l-0.1,0c-0.3-0.1-0.7-0.2-0.7-0.3c-0.3-0.1-0.2,0.1-0.6,0c0.1,0,0,0.1,0,0.1c-0.1,0-0.2,0-0.2,0l0.2,0c-0.2-0.1-0.4,0-0.6,0
				c0,0,0,0.1,0.1,0.1c0,0-0.1,0-0.2,0c-0.1,0,0-0.1-0.2-0.2c-0.9,0-1.8-0.1-2.7-0.1c-0.9,0-1.8-0.1-2.7-0.1l0,0
				c-0.6-0.1-1.2-0.1-1.8-0.1c-0.6,0-1.2,0-1.8,0l0,0c-0.4,0.2-0.2-0.3-0.6,0c-0.3-0.3-0.6,0-1-0.2l0,0.1
				C192.4,77.6,192.1,78,191.9,77.8z M212,78.7L212,78.7C212,78.7,212,78.7,212,78.7z M210,78.7c0,0,0.1,0,0.2,0c0,0,0,0,0,0
				c0.2,0,0.3,0,0.4,0c0,0,0,0-0.1,0C210.5,78.6,210.1,78.7,210,78.7z M213.9,78.8L213.9,78.8C213.9,78.8,213.9,78.8,213.9,78.8
				L213.9,78.8z M212.9,78.8C213,78.8,213,78.8,212.9,78.8C213,78.8,212.9,78.8,212.9,78.8z M211,78.9c0.1,0,0.2,0,0.2,0
				C211,78.9,211,78.9,211,78.9z M199.5,79.1C199.5,79.1,199.5,79.1,199.5,79.1c0,0.1,0.1,0,0.2,0c0.1,0,0-0.1-0.1-0.1
				C199.6,79,199.6,79.1,199.5,79.1z M194.1,78.9c0,0,0.1,0,0.1,0c0,0,0,0,0,0c0,0,0,0,0,0c0,0,0-0.1,0-0.2
				C194,78.7,194.1,78.7,194.1,78.9z"/>
			<path class="st0" d="M196,79.4C196,79.4,196,79.4,196,79.4C196,79.4,196,79.4,196,79.4z"/>
			<path class="st0" d="M194.1,78.9c0,0,0,0,0.1-0.1C194.2,78.8,194.2,78.9,194.1,78.9z"/>
			<path class="st0" d="M216.9,78.7L216.9,78.7L216.9,78.7c0.2,0,0.2,0,0.3,0c-0.2,0-0.3,0-0.5,0L216.9,78.7z"/>
			<path class="st0" d="M216.8,78.8C216.8,78.8,216.7,78.8,216.8,78.8l-0.1,0L216.8,78.8z"/>
			<path class="st0" d="M214.7,78.9l0.2,0C214.9,78.8,214.7,78.9,214.7,78.9z"/>
			<path class="st0" d="M215.4,78.7L215.4,78.7c0,0-0.1,0-0.1,0C215.4,78.7,215.3,78.7,215.4,78.7z"/>
			<path class="st0" d="M214.2,78.9c-0.1,0-0.2,0-0.2,0C214.1,78.9,214.2,78.8,214.2,78.9z"/>
			<path class="st0" d="M214.3,78.7c0.1,0,0.1,0,0.3,0C214.5,78.7,214.4,78.7,214.3,78.7z"/>
			<path class="st0" d="M213.3,78.8c0,0,0.1,0,0.2,0C213.4,78.8,213.4,78.8,213.3,78.8c0.2,0,0.2,0,0.3,0
				C213.5,78.8,213.4,78.9,213.3,78.8C213.3,78.9,213.2,78.8,213.3,78.8z"/>
			<path class="st0" d="M214.1,78.7c0.1,0,0.1,0,0.3,0C214.3,78.7,214.3,78.7,214.1,78.7l0.1,0C214.1,78.7,214.2,78.7,214.1,78.7z"
				/>
			<path class="st0" d="M212.8,78.9L212.8,78.9c0.2,0,0.3,0,0.4,0C213.1,78.9,212.9,78.9,212.8,78.9z"/>
			<path class="st0" d="M213.6,78.7L213.6,78.7C213.8,78.7,213.6,78.7,213.6,78.7c0.1,0,0.1,0,0.1,0
				C213.6,78.7,213.8,78.7,213.6,78.7z"/>
			<path class="st0" d="M213.2,78.7l-0.2,0L213.2,78.7C213.4,78.6,213.2,78.7,213.2,78.7z"/>
			<path class="st0" d="M213,78.7L213,78.7l-0.3,0C212.9,78.7,212.9,78.7,213,78.7z"/>
			<path class="st0" d="M210.1,78.9C210.1,78.9,210.2,78.9,210.1,78.9C210.2,78.9,210,79,210.1,78.9z"/>
			<path class="st0" d="M210.7,78.6c-0.1,0-0.3,0-0.4,0C210.4,78.6,210.7,78.6,210.7,78.6z"/>
			<path class="st0" d="M210.3,78.6C210.3,78.6,210.3,78.6,210.3,78.6C210.3,78.6,210.3,78.6,210.3,78.6z"/>
			<path class="st0" d="M206.1,78.3C206.1,78.3,206.1,78.3,206.1,78.3C206.1,78.3,206.1,78.3,206.1,78.3z"/>
			<path class="st0" d="M206.2,78.3c0.1,0,0.2,0,0.2,0C206.3,78.4,206.2,78.4,206.2,78.3C206.2,78.3,206.2,78.3,206.2,78.3z"/>
			<path class="st0" d="M205.3,78.3c0,0,0.1,0,0.1,0C205.3,78.4,205.2,78.3,205.3,78.3z"/>
			<path class="st0" d="M198.9,79.4c-0.1,0-0.1,0-0.1-0.1C198.9,79.3,198.8,79.4,198.9,79.4z"/>
			<polygon class="st0" points="198.6,79.3 198.6,79.4 198.6,79.4 			"/>
			<path class="st0" d="M198,79.4C198,79.5,198,79.5,198,79.4C198,79.5,198,79.5,198,79.4z"/>
			<path class="st0" d="M198.1,79.5C198.1,79.5,198.1,79.5,198.1,79.5C198.1,79.5,198.1,79.5,198.1,79.5z"/>
			<path class="st0" d="M198.1,79.5L198.1,79.5C198.1,79.5,198.1,79.5,198.1,79.5C198.1,79.5,198.1,79.5,198.1,79.5z"/>
			<path class="st0" d="M197.8,79.5l0.1-0.1c0.1,0-0.1,0.1,0,0.2L197.8,79.5z"/>
			<path class="st0" d="M197.4,79.5c-0.1,0-0.3-0.1-0.3,0c-0.3-0.1,0.1-0.2-0.3-0.3c0.4-0.1,0.2,0.2,0.5,0.2
				C197.1,79.4,197.4,79.4,197.4,79.5z"/>
			<path class="st0" d="M197.5,79.2c0,0.1-0.1,0.1-0.2,0C197.3,79.3,197.4,79.2,197.5,79.2z"/>
			<polygon class="st0" points="196.8,79.4 196.7,79.5 196.6,79.4 			"/>
			<path class="st0" d="M196.4,79.5L196.4,79.5C196.5,79.5,196.3,79.5,196.4,79.5z"/>
			<path class="st0" d="M195.9,79.6c-0.1,0-0.2-0.1,0-0.1l0,0C195.9,79.5,195.7,79.6,195.9,79.6z"/>
			<path class="st0" d="M194.7,79.3c0.1,0,0.1,0,0.1,0.1L194.7,79.3L194.7,79.3z"/>
			<path class="st0" d="M194.7,78.9c0.1-0.1,0.2,0,0.3,0C194.8,78.9,194.8,78.9,194.7,78.9z"/>
			<path class="st0" d="M194.5,79.5c0,0,0.1,0,0.2,0C194.6,79.6,194.5,79.5,194.5,79.5z"/>
			<path class="st0" d="M194.2,79.5C194.1,79.5,194.2,79.5,194.2,79.5c-0.2,0.2-0.3,0.2-0.3,0.1c0-0.1,0.1-0.2,0-0.2
				C194.1,79.3,194.2,79.5,194.2,79.5l0.2,0.1C194.3,79.6,194.3,79.4,194.2,79.5z"/>
			<path class="st0" d="M194.6,79.1l-0.1,0.1c0-0.1-0.1-0.1-0.1-0.1C194.4,78.9,194.5,79.1,194.6,79.1z"/>
			<polygon class="st0" points="193.1,79.4 192.9,79.4 193,79.3 			"/>
			<polygon class="st0" points="193,79.4 193,79.5 192.8,79.4 			"/>
			<polygon class="st0" points="192.7,79.5 192.8,79.5 192.9,79.5 			"/>
			<path class="st0" d="M192.3,79.5L192.3,79.5c0.1-0.1,0.2-0.1,0.2,0C192.4,79.5,192.3,79.5,192.3,79.5z"/>
			<path class="st0" d="M190.8,77.8c0,0,0,0.1,0,0.1L190.8,77.8C190.7,77.8,190.8,77.8,190.8,77.8z"/>
			<path class="st0" d="M190.5,78l-0.2-0.1c0.2,0,0.2,0.1,0.4,0.1C190.7,78,190.6,77.9,190.5,78L190.5,78z"/>
			<path class="st0" d="M187.3,78c0,0.1,0,0.1,0.1,0.2c-0.2-0.1-0.3,0-0.5-0.1c0-0.1-0.1-0.2,0-0.1l0.2,0.1l0-0.1
				C187.2,77.9,187.1,78.1,187.3,78z"/>
			<path class="st0" d="M178.8,79.1c0,0.1,0,0.1,0,0.2C178.6,79.3,178.8,79.2,178.8,79.1z"/>
		</g>
	</g>
</g>
</svg>
